{"asset":{"version":"2.0","generator":"6xg CC0 web asset pipeline","extras":{"source":"https://polyhaven.com/a/boulder_01","license":"CC0-1.0"}},"scene":0,"scenes":[{"nodes":[0]}],"nodes":[{"mesh":0,"name":"boulder_01-0"}],"meshes":[{"primitives":[{"attributes":{"POSITION":0,"NORMAL":1,"TEXCOORD_0":2},"indices":3,"material":0}]}],"accessors":[{"bufferView":0,"componentType":5126,"count":947,"type":"VEC3","min":[-0.6311887502670288,0.0235308688133955,-0.911675214767456],"max":[0.6318663954734802,1,0.9000619649887085]},{"bufferView":1,"componentType":5126,"count":947,"type":"VEC3"},{"bufferView":2,"componentType":5126,"count":947,"type":"VEC2"},{"bufferView":3,"componentType":5123,"count":4050,"type":"SCALAR"}],"bufferViews":[{"buffer":0,"byteOffset":0,"byteLength":11364,"target":34962},{"buffer":0,"byteOffset":11364,"byteLength":11364,"target":34962},{"buffer":0,"byteOffset":22728,"byteLength":7576,"target":34962},{"buffer":0,"byteOffset":30304,"byteLength":8100,"target":34963}],"buffers":[{"uri":"model-high.bin","byteLength":38404}],"materials":[{"doubleSided":true,"name":"boulder_01","normalTexture":{"index":0},"pbrMetallicRoughness":{"baseColorTexture":{"index":1},"metallicFactor":0,"metallicRoughnessTexture":{"index":2}}}],"images":[{"uri":"boulder_01_nor_gl-ultra.jpg"},{"uri":"boulder_01_diff-ultra.jpg"},{"uri":"boulder_01_arm-ultra.jpg"}],"textures":[{"sampler":0,"source":0},{"sampler":0,"source":1},{"sampler":0,"source":2}],"samplers":[{"magFilter":9729,"minFilter":9987}]}