{"asset":{"version":"2.0","generator":"6xg CC0 web asset pipeline","extras":{"source":"https://polyhaven.com/a/boulder_01","license":"CC0-1.0"}},"scene":0,"scenes":[{"nodes":[0]}],"nodes":[{"mesh":0,"name":"boulder_01-0"}],"meshes":[{"primitives":[{"attributes":{"POSITION":0,"NORMAL":1,"TEXCOORD_0":2},"indices":3,"material":0}]}],"accessors":[{"bufferView":0,"componentType":5126,"count":2236,"type":"VEC3","min":[-0.6311887502670288,0.002802797593176365,-0.9056143164634705],"max":[0.6318663954734802,1,0.9101002812385559]},{"bufferView":1,"componentType":5126,"count":2236,"type":"VEC3"},{"bufferView":2,"componentType":5126,"count":2236,"type":"VEC2"},{"bufferView":3,"componentType":5123,"count":9000,"type":"SCALAR"}],"bufferViews":[{"buffer":0,"byteOffset":0,"byteLength":26832,"target":34962},{"buffer":0,"byteOffset":26832,"byteLength":26832,"target":34962},{"buffer":0,"byteOffset":53664,"byteLength":17888,"target":34962},{"buffer":0,"byteOffset":71552,"byteLength":18000,"target":34963}],"buffers":[{"uri":"model-ultra.bin","byteLength":89552}],"materials":[{"doubleSided":true,"name":"boulder_01","normalTexture":{"index":0},"pbrMetallicRoughness":{"baseColorTexture":{"index":1},"metallicFactor":0,"metallicRoughnessTexture":{"index":2}}}],"images":[{"uri":"boulder_01_nor_gl-ultra.jpg"},{"uri":"boulder_01_diff-ultra.jpg"},{"uri":"boulder_01_arm-ultra.jpg"}],"textures":[{"sampler":0,"source":0},{"sampler":0,"source":1},{"sampler":0,"source":2}],"samplers":[{"magFilter":9729,"minFilter":9987}]}