{"asset":{"version":"2.0","generator":"6xg CC0 web asset pipeline","extras":{"source":"https://polyhaven.com/a/island_tree_02","license":"CC0-1.0"}},"scene":0,"scenes":[{"nodes":[0,1,2]}],"nodes":[{"mesh":0,"name":"island_tree_02-0"},{"mesh":1,"name":"island_tree_02-1"},{"mesh":2,"name":"island_tree_02-2"}],"meshes":[{"primitives":[{"attributes":{"POSITION":0,"NORMAL":1,"TEXCOORD_0":2},"indices":3,"material":0}]},{"primitives":[{"attributes":{"POSITION":4,"NORMAL":5,"TEXCOORD_0":6},"indices":7,"material":1}]},{"primitives":[{"attributes":{"POSITION":8,"NORMAL":9,"TEXCOORD_0":10},"indices":11,"material":2}]}],"accessors":[{"bufferView":0,"componentType":5126,"count":527,"type":"VEC3","min":[-51.41645812988281,0.2605169117450714,-60.10820770263672],"max":[52.33434295654297,115.06914520263672,59.12537384033203]},{"bufferView":1,"componentType":5126,"count":527,"type":"VEC3"},{"bufferView":2,"componentType":5126,"count":527,"type":"VEC2"},{"bufferView":3,"componentType":5123,"count":2154,"type":"SCALAR"},{"bufferView":4,"componentType":5126,"count":17268,"type":"VEC3","min":[-86.02214813232422,52.86668014526367,-89.37958526611328],"max":[86.2354736328125,149.54246520996094,90.06229400634766]},{"bufferView":5,"componentType":5126,"count":17268,"type":"VEC3"},{"bufferView":6,"componentType":5126,"count":17268,"type":"VEC2"},{"bufferView":7,"componentType":5123,"count":25902,"type":"SCALAR"},{"bufferView":8,"componentType":5126,"count":1580,"type":"VEC3","min":[-79.854736328125,65.7080078125,-77.29073333740234],"max":[81.81436157226562,134.76454162597656,70.67025756835938]},{"bufferView":9,"componentType":5126,"count":1580,"type":"VEC3"},{"bufferView":10,"componentType":5126,"count":1580,"type":"VEC2"},{"bufferView":11,"componentType":5123,"count":5490,"type":"SCALAR"}],"bufferViews":[{"buffer":0,"byteOffset":0,"byteLength":6324,"target":34962},{"buffer":0,"byteOffset":6324,"byteLength":6324,"target":34962},{"buffer":0,"byteOffset":12648,"byteLength":4216,"target":34962},{"buffer":0,"byteOffset":16864,"byteLength":4308,"target":34963},{"buffer":0,"byteOffset":21172,"byteLength":207216,"target":34962},{"buffer":0,"byteOffset":228388,"byteLength":207216,"target":34962},{"buffer":0,"byteOffset":435604,"byteLength":138144,"target":34962},{"buffer":0,"byteOffset":573748,"byteLength":51804,"target":34963},{"buffer":0,"byteOffset":625552,"byteLength":18960,"target":34962},{"buffer":0,"byteOffset":644512,"byteLength":18960,"target":34962},{"buffer":0,"byteOffset":663472,"byteLength":12640,"target":34962},{"buffer":0,"byteOffset":676112,"byteLength":10980,"target":34963}],"buffers":[{"uri":"model-high.bin","byteLength":687092}],"materials":[{"doubleSided":true,"name":"island_tree_02","normalTexture":{"index":0},"pbrMetallicRoughness":{"baseColorTexture":{"index":1},"metallicFactor":0,"metallicRoughnessTexture":{"index":2}}},{"name":"ambientCG LeafSet004 canopy","doubleSided":true,"alphaMode":"MASK","alphaCutoff":0.4,"normalTexture":{"index":10,"scale":0.5},"pbrMetallicRoughness":{"baseColorTexture":{"index":9},"metallicFactor":0,"metallicRoughnessTexture":{"index":11}}},{"doubleSided":true,"extensions":{"KHR_materials_specular":{"specularFactor":0.4100000262260437},"KHR_materials_ior":{"ior":1.4500000476837158}},"name":"island_tree_02_branches","normalTexture":{"extensions":{"KHR_texture_transform":{"offset":[0,-2.4000000953674316],"scale":[15,3.4000000953674316]}},"index":6,"scale":0.5},"pbrMetallicRoughness":{"baseColorTexture":{"extensions":{"KHR_texture_transform":{"offset":[0,-2.4000000953674316],"scale":[15,3.4000000953674316]}},"index":7},"metallicFactor":0,"metallicRoughnessTexture":{"extensions":{"KHR_texture_transform":{"offset":[0,-2.4000000953674316],"scale":[15,3.4000000953674316]}},"index":8}}}],"images":[{"uri":"island_tree_02_nor_gl-ultra.jpg"},{"uri":"island_tree_02_diff-ultra.jpg"},{"uri":"island_tree_02_arm-ultra.jpg"},{"uri":"island_tree_02_leaves_nor_gl-ultra.jpg"},{"uri":"island_tree_02_leaves_diff-ultra.webp"},{"uri":"island_tree_02_leaves_arm-ultra.jpg"},{"uri":"island_tree_02_branches_nor_gl-ultra.jpg"},{"uri":"island_tree_02_branches_diff-ultra.jpg"},{"uri":"island_tree_02_branches_arm-ultra.jpg"},{"uri":"../LeafSet004/color-ultra.webp"},{"uri":"../LeafSet004/normal-ultra.jpg"},{"uri":"../LeafSet004/rough-ultra.jpg"}],"textures":[{"sampler":0,"source":0},{"sampler":0,"source":1},{"sampler":0,"source":2},{"sampler":0,"source":3},{"sampler":0,"source":4},{"sampler":0,"source":5},{"sampler":0,"source":6},{"sampler":0,"source":7},{"sampler":0,"source":8},{"source":9},{"source":10},{"source":11}],"samplers":[{"magFilter":9729,"minFilter":9987}],"extensionsUsed":["KHR_materials_specular","KHR_materials_ior","KHR_texture_transform"],"extensionsRequired":["KHR_texture_transform"]}