{"asset":{"version":"2.0","generator":"6xg CC0 web asset pipeline","extras":{"source":"https://polyhaven.com/a/island_tree_02","license":"CC0-1.0"}},"scene":0,"scenes":[{"nodes":[0,1,2]}],"nodes":[{"mesh":0,"name":"island_tree_02-0"},{"mesh":1,"name":"island_tree_02-1"},{"mesh":2,"name":"island_tree_02-2"}],"meshes":[{"primitives":[{"attributes":{"POSITION":0,"NORMAL":1,"TEXCOORD_0":2},"indices":3,"material":0}]},{"primitives":[{"attributes":{"POSITION":4,"NORMAL":5,"TEXCOORD_0":6},"indices":7,"material":1}]},{"primitives":[{"attributes":{"POSITION":8,"NORMAL":9,"TEXCOORD_0":10},"indices":11,"material":2}]}],"accessors":[{"bufferView":0,"componentType":5126,"count":151,"type":"VEC3","min":[-50.228309631347656,0.37464576959609985,-60.10820770263672],"max":[47.18434143066406,112.4020004272461,42.51664733886719]},{"bufferView":1,"componentType":5126,"count":151,"type":"VEC3"},{"bufferView":2,"componentType":5126,"count":151,"type":"VEC2"},{"bufferView":3,"componentType":5123,"count":549,"type":"SCALAR"},{"bufferView":4,"componentType":5126,"count":7500,"type":"VEC3","min":[-85.6474380493164,52.84178161621094,-89.21343994140625],"max":[86.54469299316406,149.95816040039062,88.88469696044922]},{"bufferView":5,"componentType":5126,"count":7500,"type":"VEC3"},{"bufferView":6,"componentType":5126,"count":7500,"type":"VEC2"},{"bufferView":7,"componentType":5123,"count":11250,"type":"SCALAR"},{"bufferView":8,"componentType":5126,"count":601,"type":"VEC3","min":[-77.27687072753906,65.7080078125,-75.63528442382812],"max":[76.40299224853516,127.62818908691406,70.67025756835938]},{"bufferView":9,"componentType":5126,"count":601,"type":"VEC3"},{"bufferView":10,"componentType":5126,"count":601,"type":"VEC2"},{"bufferView":11,"componentType":5123,"count":1569,"type":"SCALAR"}],"bufferViews":[{"buffer":0,"byteOffset":0,"byteLength":1812,"target":34962},{"buffer":0,"byteOffset":1812,"byteLength":1812,"target":34962},{"buffer":0,"byteOffset":3624,"byteLength":1208,"target":34962},{"buffer":0,"byteOffset":4832,"byteLength":1098,"target":34963},{"buffer":0,"byteOffset":5932,"byteLength":90000,"target":34962},{"buffer":0,"byteOffset":95932,"byteLength":90000,"target":34962},{"buffer":0,"byteOffset":185932,"byteLength":60000,"target":34962},{"buffer":0,"byteOffset":245932,"byteLength":22500,"target":34963},{"buffer":0,"byteOffset":268432,"byteLength":7212,"target":34962},{"buffer":0,"byteOffset":275644,"byteLength":7212,"target":34962},{"buffer":0,"byteOffset":282856,"byteLength":4808,"target":34962},{"buffer":0,"byteOffset":287664,"byteLength":3138,"target":34963}],"buffers":[{"uri":"model-low.bin","byteLength":290804}],"materials":[{"doubleSided":true,"name":"island_tree_02","normalTexture":{"index":0},"pbrMetallicRoughness":{"baseColorTexture":{"index":1},"metallicFactor":0,"metallicRoughnessTexture":{"index":2}}},{"name":"ambientCG LeafSet004 canopy","doubleSided":true,"alphaMode":"MASK","alphaCutoff":0.4,"normalTexture":{"index":10,"scale":0.5},"pbrMetallicRoughness":{"baseColorTexture":{"index":9},"metallicFactor":0,"metallicRoughnessTexture":{"index":11}}},{"doubleSided":true,"extensions":{"KHR_materials_specular":{"specularFactor":0.4100000262260437},"KHR_materials_ior":{"ior":1.4500000476837158}},"name":"island_tree_02_branches","normalTexture":{"extensions":{"KHR_texture_transform":{"offset":[0,-2.4000000953674316],"scale":[15,3.4000000953674316]}},"index":6,"scale":0.5},"pbrMetallicRoughness":{"baseColorTexture":{"extensions":{"KHR_texture_transform":{"offset":[0,-2.4000000953674316],"scale":[15,3.4000000953674316]}},"index":7},"metallicFactor":0,"metallicRoughnessTexture":{"extensions":{"KHR_texture_transform":{"offset":[0,-2.4000000953674316],"scale":[15,3.4000000953674316]}},"index":8}}}],"images":[{"uri":"island_tree_02_nor_gl-ultra.jpg"},{"uri":"island_tree_02_diff-ultra.jpg"},{"uri":"island_tree_02_arm-ultra.jpg"},{"uri":"island_tree_02_leaves_nor_gl-ultra.jpg"},{"uri":"island_tree_02_leaves_diff-ultra.webp"},{"uri":"island_tree_02_leaves_arm-ultra.jpg"},{"uri":"island_tree_02_branches_nor_gl-ultra.jpg"},{"uri":"island_tree_02_branches_diff-ultra.jpg"},{"uri":"island_tree_02_branches_arm-ultra.jpg"},{"uri":"../LeafSet004/color-ultra.webp"},{"uri":"../LeafSet004/normal-ultra.jpg"},{"uri":"../LeafSet004/rough-ultra.jpg"}],"textures":[{"sampler":0,"source":0},{"sampler":0,"source":1},{"sampler":0,"source":2},{"sampler":0,"source":3},{"sampler":0,"source":4},{"sampler":0,"source":5},{"sampler":0,"source":6},{"sampler":0,"source":7},{"sampler":0,"source":8},{"source":9},{"source":10},{"source":11}],"samplers":[{"magFilter":9729,"minFilter":9987}],"extensionsUsed":["KHR_materials_specular","KHR_materials_ior","KHR_texture_transform"],"extensionsRequired":["KHR_texture_transform"]}