{"asset":{"version":"2.0","generator":"6xg CC0 web asset pipeline","extras":{"source":"https://ambientcg.com/a/3DTreeStump001","license":"CC0-1.0"}},"scene":0,"scenes":[{"nodes":[0]}],"nodes":[{"mesh":0,"name":"3DTreeStump001-0"}],"meshes":[{"primitives":[{"attributes":{"POSITION":0,"NORMAL":1,"TEXCOORD_0":2},"indices":3,"material":0}]}],"accessors":[{"bufferView":0,"componentType":5126,"count":1008,"type":"VEC3","min":[-2.234227418899536,0.00010560896043898538,-3.2101943492889404],"max":[2.2319130897521973,1,3.2101943492889404]},{"bufferView":1,"componentType":5126,"count":1008,"type":"VEC3"},{"bufferView":2,"componentType":5126,"count":1008,"type":"VEC2"},{"bufferView":3,"componentType":5123,"count":5397,"type":"SCALAR"}],"bufferViews":[{"buffer":0,"byteOffset":0,"byteLength":12096,"target":34962},{"buffer":0,"byteOffset":12096,"byteLength":12096,"target":34962},{"buffer":0,"byteOffset":24192,"byteLength":8064,"target":34962},{"buffer":0,"byteOffset":32256,"byteLength":10794,"target":34963}],"buffers":[{"uri":"model-ultra.bin","byteLength":43052}],"materials":[{"name":"3DTreeStump001","pbrMetallicRoughness":{"baseColorTexture":{"index":0},"metallicFactor":0,"roughnessFactor":0.7},"normalTexture":{"index":1,"scale":0.6}}],"images":[{"uri":"color-ultra.jpg"},{"uri":"normal-ultra.jpg"}],"textures":[{"source":0},{"source":1}]}