{"asset":{"version":"2.0","generator":"6xg CC0 web asset pipeline","extras":{"source":"https://ambientcg.com/a/3DTreeStump001","license":"CC0-1.0"}},"scene":0,"scenes":[{"nodes":[0]}],"nodes":[{"mesh":0,"name":"3DTreeStump001-0"}],"meshes":[{"primitives":[{"attributes":{"POSITION":0,"NORMAL":1,"TEXCOORD_0":2},"indices":3,"material":0}]}],"accessors":[{"bufferView":0,"componentType":5126,"count":460,"type":"VEC3","min":[-2.234227418899536,0.00010560896043898538,-3.2101943492889404],"max":[2.228299617767334,1,3.2086057662963867]},{"bufferView":1,"componentType":5126,"count":460,"type":"VEC3"},{"bufferView":2,"componentType":5126,"count":460,"type":"VEC2"},{"bufferView":3,"componentType":5123,"count":2400,"type":"SCALAR"}],"bufferViews":[{"buffer":0,"byteOffset":0,"byteLength":5520,"target":34962},{"buffer":0,"byteOffset":5520,"byteLength":5520,"target":34962},{"buffer":0,"byteOffset":11040,"byteLength":3680,"target":34962},{"buffer":0,"byteOffset":14720,"byteLength":4800,"target":34963}],"buffers":[{"uri":"model-high.bin","byteLength":19520}],"materials":[{"name":"3DTreeStump001","pbrMetallicRoughness":{"baseColorTexture":{"index":0},"metallicFactor":0,"roughnessFactor":0.7},"normalTexture":{"index":1,"scale":0.6}}],"images":[{"uri":"color-ultra.jpg"},{"uri":"normal-ultra.jpg"}],"textures":[{"source":0},{"source":1}]}