{"asset":{"version":"2.0","generator":"6xg CC0 web asset pipeline","extras":{"source":"https://ambientcg.com/a/3DTreeStump001","license":"CC0-1.0"}},"scene":0,"scenes":[{"nodes":[0]}],"nodes":[{"mesh":0,"name":"3DTreeStump001-0"}],"meshes":[{"primitives":[{"attributes":{"POSITION":0,"NORMAL":1,"TEXCOORD_0":2},"indices":3,"material":0}]}],"accessors":[{"bufferView":0,"componentType":5126,"count":133,"type":"VEC3","min":[-2.198775053024292,0.007117144297808409,-3.1975719928741455],"max":[2.228299617767334,1,3.200221300125122]},{"bufferView":1,"componentType":5126,"count":133,"type":"VEC3"},{"bufferView":2,"componentType":5126,"count":133,"type":"VEC2"},{"bufferView":3,"componentType":5123,"count":648,"type":"SCALAR"}],"bufferViews":[{"buffer":0,"byteOffset":0,"byteLength":1596,"target":34962},{"buffer":0,"byteOffset":1596,"byteLength":1596,"target":34962},{"buffer":0,"byteOffset":3192,"byteLength":1064,"target":34962},{"buffer":0,"byteOffset":4256,"byteLength":1296,"target":34963}],"buffers":[{"uri":"model-low.bin","byteLength":5552}],"materials":[{"name":"3DTreeStump001","pbrMetallicRoughness":{"baseColorTexture":{"index":0},"metallicFactor":0,"roughnessFactor":0.7},"normalTexture":{"index":1,"scale":0.6}}],"images":[{"uri":"color-ultra.jpg"},{"uri":"normal-ultra.jpg"}],"textures":[{"source":0},{"source":1}]}