{"asset":{"version":"2.0","generator":"6xg CC0 web asset pipeline","extras":{"source":"https://ambientcg.com/a/3DApple002","license":"CC0-1.0"}},"scene":0,"scenes":[{"nodes":[0]}],"nodes":[{"mesh":0,"name":"3DApple002-0"}],"meshes":[{"primitives":[{"attributes":{"POSITION":0,"NORMAL":1,"TEXCOORD_0":2},"indices":3,"material":0}]}],"accessors":[{"bufferView":0,"componentType":5126,"count":149,"type":"VEC3","min":[-0.5117346048355103,0.0010607577860355377,-0.4997863471508026],"max":[0.5141949653625488,0.99444580078125,0.5088469982147217]},{"bufferView":1,"componentType":5126,"count":149,"type":"VEC3"},{"bufferView":2,"componentType":5126,"count":149,"type":"VEC2"},{"bufferView":3,"componentType":5123,"count":648,"type":"SCALAR"}],"bufferViews":[{"buffer":0,"byteOffset":0,"byteLength":1788,"target":34962},{"buffer":0,"byteOffset":1788,"byteLength":1788,"target":34962},{"buffer":0,"byteOffset":3576,"byteLength":1192,"target":34962},{"buffer":0,"byteOffset":4768,"byteLength":1296,"target":34963}],"buffers":[{"uri":"model-low.bin","byteLength":6064}],"materials":[{"name":"3DApple002","pbrMetallicRoughness":{"baseColorTexture":{"index":0},"metallicFactor":0,"roughnessFactor":0.7,"metallicRoughnessTexture":{"index":2}},"normalTexture":{"index":1,"scale":0.6}}],"images":[{"uri":"color-ultra.jpg"},{"uri":"normal-ultra.jpg"},{"uri":"rough-ultra.jpg"}],"textures":[{"source":0},{"source":1},{"source":2}]}