{"asset":{"version":"2.0","generator":"6xg CC0 web asset pipeline","extras":{"source":"https://ambientcg.com/a/3DApple002","license":"CC0-1.0"}},"scene":0,"scenes":[{"nodes":[0]}],"nodes":[{"mesh":0,"name":"3DApple002-0"}],"meshes":[{"primitives":[{"attributes":{"POSITION":0,"NORMAL":1,"TEXCOORD_0":2},"indices":3,"material":0}]}],"accessors":[{"bufferView":0,"componentType":5126,"count":489,"type":"VEC3","min":[-0.5144748687744141,0,-0.5120734572410583],"max":[0.5144748687744141,1,0.5120734572410583]},{"bufferView":1,"componentType":5126,"count":489,"type":"VEC3"},{"bufferView":2,"componentType":5126,"count":489,"type":"VEC2"},{"bufferView":3,"componentType":5123,"count":2430,"type":"SCALAR"}],"bufferViews":[{"buffer":0,"byteOffset":0,"byteLength":5868,"target":34962},{"buffer":0,"byteOffset":5868,"byteLength":5868,"target":34962},{"buffer":0,"byteOffset":11736,"byteLength":3912,"target":34962},{"buffer":0,"byteOffset":15648,"byteLength":4860,"target":34963}],"buffers":[{"uri":"model-high.bin","byteLength":20508}],"materials":[{"name":"3DApple002","pbrMetallicRoughness":{"baseColorTexture":{"index":0},"metallicFactor":0,"roughnessFactor":0.7,"metallicRoughnessTexture":{"index":2}},"normalTexture":{"index":1,"scale":0.6}}],"images":[{"uri":"color-ultra.jpg"},{"uri":"normal-ultra.jpg"},{"uri":"rough-ultra.jpg"}],"textures":[{"source":0},{"source":1},{"source":2}]}