{"asset":{"version":"2.0","generator":"6xg CC0 web asset pipeline","extras":{"source":"https://polyhaven.com/a/wooden_crate_02","license":"CC0-1.0"}},"scene":0,"scenes":[{"nodes":[0,1]}],"nodes":[{"mesh":0,"name":"wooden_crate_02-0"},{"mesh":1,"name":"wooden_crate_02-1"}],"meshes":[{"primitives":[{"attributes":{"POSITION":0,"NORMAL":1,"TEXCOORD_0":2},"indices":3,"material":0}]},{"primitives":[{"attributes":{"POSITION":4,"NORMAL":5,"TEXCOORD_0":6},"indices":7,"material":0}]}],"accessors":[{"bufferView":0,"componentType":5126,"count":242,"type":"VEC3","min":[-0.5700974464416504,0.0029306774958968163,-1.2491731643676758],"max":[0.5700974464416504,0.9572256803512573,1.2123279571533203]},{"bufferView":1,"componentType":5126,"count":242,"type":"VEC3"},{"bufferView":2,"componentType":5126,"count":242,"type":"VEC2"},{"bufferView":3,"componentType":5123,"count":525,"type":"SCALAR"},{"bufferView":4,"componentType":5126,"count":183,"type":"VEC3","min":[-0.5154176354408264,0.8564774990081787,-1.120792269706726],"max":[0.5154176950454712,1,1.1207917928695679]},{"bufferView":5,"componentType":5126,"count":183,"type":"VEC3"},{"bufferView":6,"componentType":5126,"count":183,"type":"VEC2"},{"bufferView":7,"componentType":5123,"count":540,"type":"SCALAR"}],"bufferViews":[{"buffer":0,"byteOffset":0,"byteLength":2904,"target":34962},{"buffer":0,"byteOffset":2904,"byteLength":2904,"target":34962},{"buffer":0,"byteOffset":5808,"byteLength":1936,"target":34962},{"buffer":0,"byteOffset":7744,"byteLength":1050,"target":34963},{"buffer":0,"byteOffset":8796,"byteLength":2196,"target":34962},{"buffer":0,"byteOffset":10992,"byteLength":2196,"target":34962},{"buffer":0,"byteOffset":13188,"byteLength":1464,"target":34962},{"buffer":0,"byteOffset":14652,"byteLength":1080,"target":34963}],"buffers":[{"uri":"model-low.bin","byteLength":15732}],"materials":[{"doubleSided":true,"name":"wooden_crate_02","normalTexture":{"index":0},"pbrMetallicRoughness":{"baseColorTexture":{"index":1},"metallicRoughnessTexture":{"index":2}}}],"images":[{"uri":"wooden_crate_02_nor_gl-ultra.jpg"},{"uri":"wooden_crate_02_diff-ultra.jpg"},{"uri":"wooden_crate_02_arm-ultra.jpg"}],"textures":[{"sampler":0,"source":0},{"sampler":0,"source":1},{"sampler":0,"source":2}],"samplers":[{"magFilter":9729,"minFilter":9987}]}