{"asset":{"version":"2.0","generator":"6xg CC0 web asset pipeline","extras":{"source":"https://polyhaven.com/a/wooden_crate_02","license":"CC0-1.0"}},"scene":0,"scenes":[{"nodes":[0,1]}],"nodes":[{"mesh":0,"name":"wooden_crate_02-0"},{"mesh":1,"name":"wooden_crate_02-1"}],"meshes":[{"primitives":[{"attributes":{"POSITION":0,"NORMAL":1,"TEXCOORD_0":2},"indices":3,"material":0}]},{"primitives":[{"attributes":{"POSITION":4,"NORMAL":5,"TEXCOORD_0":6},"indices":7,"material":0}]}],"accessors":[{"bufferView":0,"componentType":5126,"count":625,"type":"VEC3","min":[-0.5700974464416504,0.002466126810759306,-1.249620795249939],"max":[0.5700974464416504,0.9597514271736145,1.250443696975708]},{"bufferView":1,"componentType":5126,"count":625,"type":"VEC3"},{"bufferView":2,"componentType":5126,"count":625,"type":"VEC2"},{"bufferView":3,"componentType":5123,"count":2025,"type":"SCALAR"},{"bufferView":4,"componentType":5126,"count":557,"type":"VEC3","min":[-0.5154176950454712,0.8550316691398621,-1.120792269706726],"max":[0.5162081718444824,1,1.1207917928695679]},{"bufferView":5,"componentType":5126,"count":557,"type":"VEC3"},{"bufferView":6,"componentType":5126,"count":557,"type":"VEC2"},{"bufferView":7,"componentType":5123,"count":2022,"type":"SCALAR"}],"bufferViews":[{"buffer":0,"byteOffset":0,"byteLength":7500,"target":34962},{"buffer":0,"byteOffset":7500,"byteLength":7500,"target":34962},{"buffer":0,"byteOffset":15000,"byteLength":5000,"target":34962},{"buffer":0,"byteOffset":20000,"byteLength":4050,"target":34963},{"buffer":0,"byteOffset":24052,"byteLength":6684,"target":34962},{"buffer":0,"byteOffset":30736,"byteLength":6684,"target":34962},{"buffer":0,"byteOffset":37420,"byteLength":4456,"target":34962},{"buffer":0,"byteOffset":41876,"byteLength":4044,"target":34963}],"buffers":[{"uri":"model-high.bin","byteLength":45920}],"materials":[{"doubleSided":true,"name":"wooden_crate_02","normalTexture":{"index":0},"pbrMetallicRoughness":{"baseColorTexture":{"index":1},"metallicRoughnessTexture":{"index":2}}}],"images":[{"uri":"wooden_crate_02_nor_gl-ultra.jpg"},{"uri":"wooden_crate_02_diff-ultra.jpg"},{"uri":"wooden_crate_02_arm-ultra.jpg"}],"textures":[{"sampler":0,"source":0},{"sampler":0,"source":1},{"sampler":0,"source":2}],"samplers":[{"magFilter":9729,"minFilter":9987}]}