{"asset":{"version":"2.0","generator":"6xg CC0 web asset pipeline","extras":{"source":"https://ambientcg.com/a/3DAvocado001","license":"CC0-1.0"}},"scene":0,"scenes":[{"nodes":[0]}],"nodes":[{"mesh":0,"name":"3DAvocado001-0"}],"meshes":[{"primitives":[{"attributes":{"POSITION":0,"NORMAL":1,"TEXCOORD_0":2},"indices":3,"material":0}]}],"accessors":[{"bufferView":0,"componentType":5126,"count":132,"type":"VEC3","min":[-0.49454692006111145,0,-0.6740515232086182],"max":[0.4942684769630432,0.997621476650238,0.6785995960235596]},{"bufferView":1,"componentType":5126,"count":132,"type":"VEC3"},{"bufferView":2,"componentType":5126,"count":132,"type":"VEC2"},{"bufferView":3,"componentType":5123,"count":648,"type":"SCALAR"}],"bufferViews":[{"buffer":0,"byteOffset":0,"byteLength":1584,"target":34962},{"buffer":0,"byteOffset":1584,"byteLength":1584,"target":34962},{"buffer":0,"byteOffset":3168,"byteLength":1056,"target":34962},{"buffer":0,"byteOffset":4224,"byteLength":1296,"target":34963}],"buffers":[{"uri":"model-low.bin","byteLength":5520}],"materials":[{"name":"3DAvocado001","pbrMetallicRoughness":{"baseColorTexture":{"index":0},"metallicFactor":0,"roughnessFactor":0.7},"normalTexture":{"index":1,"scale":0.6}}],"images":[{"uri":"color-ultra.jpg"},{"uri":"normal-ultra.jpg"}],"textures":[{"source":0},{"source":1}]}