{"asset":{"version":"2.0","generator":"6xg CC0 web asset pipeline","extras":{"source":"https://ambientcg.com/a/3DAvocado001","license":"CC0-1.0"}},"scene":0,"scenes":[{"nodes":[0]}],"nodes":[{"mesh":0,"name":"3DAvocado001-0"}],"meshes":[{"primitives":[{"attributes":{"POSITION":0,"NORMAL":1,"TEXCOORD_0":2},"indices":3,"material":0}]}],"accessors":[{"bufferView":0,"componentType":5126,"count":285,"type":"VEC3","min":[-0.49454692006111145,0,-0.6785995960235596],"max":[0.49454692006111145,1,0.6785995960235596]},{"bufferView":1,"componentType":5126,"count":285,"type":"VEC3"},{"bufferView":2,"componentType":5126,"count":285,"type":"VEC2"},{"bufferView":3,"componentType":5123,"count":1500,"type":"SCALAR"}],"bufferViews":[{"buffer":0,"byteOffset":0,"byteLength":3420,"target":34962},{"buffer":0,"byteOffset":3420,"byteLength":3420,"target":34962},{"buffer":0,"byteOffset":6840,"byteLength":2280,"target":34962},{"buffer":0,"byteOffset":9120,"byteLength":3000,"target":34963}],"buffers":[{"uri":"model-ultra.bin","byteLength":12120}],"materials":[{"name":"3DAvocado001","pbrMetallicRoughness":{"baseColorTexture":{"index":0},"metallicFactor":0,"roughnessFactor":0.7},"normalTexture":{"index":1,"scale":0.6}}],"images":[{"uri":"color-ultra.jpg"},{"uri":"normal-ultra.jpg"}],"textures":[{"source":0},{"source":1}]}