# AssetId: 3DAvocado001
# Name: 3D Avocado 001
# Author: ambientCG
# Tags: 1,3d,avocado,green
mtllib 3DAvocado001_LQ-4K-JPG.mtl
usemtl 3DAvocado001_LQ-4K-JPG
o 3DAvocado001_LQ-4K-JPG
v 0.009230 0.083835 0.010848
v 0.003023 0.083662 0.017945
v 0.015162 0.079921 0.020850
v 0.017224 0.081367 0.009032
v 0.022893 0.076134 0.011524
v 0.009815 0.084503 -0.000542
v 0.022071 0.079128 -0.002890
v 0.030118 0.065218 0.021191
v 0.032595 0.067887 0.004161
v 0.038067 0.054014 0.009331
v 0.022707 0.072379 0.027198
v 0.029139 0.062274 0.030734
v 0.027804 0.070237 -0.019105
v 0.027711 0.073348 -0.008407
v 0.035119 0.064430 -0.008607
v 0.032108 0.063203 -0.022426
v 0.040617 0.046926 0.002942
v 0.038910 0.055436 -0.004519
v 0.037255 0.047631 0.017415
v 0.040436 0.039815 0.004097
v 0.036501 0.032977 0.015610
v 0.038699 0.033192 0.007168
v 0.034237 0.055040 0.021900
v 0.033605 0.045105 0.028566
v 0.034695 0.033148 -0.023996
v 0.038884 0.041535 -0.015765
v 0.036794 0.028615 -0.012450
v 0.037823 0.052540 -0.016220
v 0.033364 0.054922 -0.027106
v 0.040641 0.041030 -0.005834
v 0.035136 0.042083 -0.025409
v 0.038656 0.029796 -0.003395
v 0.031315 0.023585 -0.022911
v 0.030101 0.018757 -0.019361
v 0.030045 0.015360 -0.010488
v 0.035589 0.023476 0.003067
v 0.025293 0.010696 -0.001646
v 0.029609 0.015659 0.005858
v 0.024208 0.015895 -0.026230
v 0.030663 0.032986 0.028858
v 0.030786 0.023582 0.018374
v 0.031383 0.039502 0.032877
v 0.027323 0.026832 0.027703
v 0.022747 0.023878 0.032370
v 0.015650 0.005415 0.005621
v 0.018268 0.006131 -0.011800
v 0.014857 0.008076 0.016343
v 0.020702 0.012511 0.017635
v 0.007706 0.011783 0.032486
v 0.008054 0.007447 0.024245
v 0.010821 0.001729 -0.004510
v 0.005544 0.000739 -0.008556
v -0.002415 0.000947 0.000471
v 0.007819 0.003017 0.012855
v -0.001421 0.003706 0.015879
v -0.017793 0.007131 0.012504
v -0.014621 0.010825 0.024292
v 0.001112 0.074056 0.042311
v 0.009140 0.068675 0.049845
v 0.014137 0.073644 0.039078
v 0.005710 0.081325 0.024765
v 0.010720 0.077800 0.033176
v -0.005705 0.084462 0.014622
v -0.006593 0.081746 0.022893
v -0.004318 0.078826 0.032267
v -0.015354 0.075874 0.033684
v -0.018795 0.071459 0.036355
v -0.014907 0.067034 0.045712
v -0.023454 0.067359 0.035964
v -0.006887 0.066993 0.049958
v 0.000268 0.067777 0.050158
v -0.009191 0.062039 0.053380
v -0.001555 0.065082 0.055502
v 0.002450 0.062122 0.054490
v 0.008107 0.046093 0.059330
v 0.017146 0.044122 0.053656
v 0.010307 0.054779 0.057903
v 0.019461 0.052296 0.053039
v 0.004653 0.039123 0.058451
v 0.014894 0.034947 0.051260
v 0.015620 0.061909 0.052892
v 0.001937 0.055220 0.058709
v -0.004287 0.058483 0.056138
v -0.000246 0.049499 0.060509
v 0.020607 0.068794 0.041120
v 0.022854 0.062197 0.045064
v 0.027045 0.054532 0.041402
v 0.026182 0.043087 0.043045
v 0.021281 0.037722 0.046110
v 0.026237 0.033511 0.036209
v -0.007795 0.018028 0.039654
v -0.011628 0.023914 0.044767
v -0.016868 0.017506 0.034128
v -0.023306 0.016575 0.026485
v -0.003200 0.013351 0.035646
v -0.002365 0.007935 0.026148
v 0.005194 0.018948 0.042947
v 0.003333 0.028187 0.052121
v 0.010660 0.025768 0.046031
v 0.009030 0.032687 0.052906
v 0.014560 0.017984 0.035366
v -0.028202 0.060338 0.038509
v -0.016648 0.061039 0.051167
v -0.025067 0.055425 0.047741
v -0.030952 0.064434 0.027412
v -0.032264 0.045263 0.036584
v -0.031811 0.034389 0.035172
v -0.027799 0.041288 0.044458
v -0.022972 0.047844 0.051450
v -0.023279 0.040155 0.049183
v -0.021406 0.034203 0.047476
v -0.032632 0.028481 0.029025
v -0.020880 0.028042 0.042114
v -0.016054 0.044705 0.056361
v -0.011308 0.035314 0.055406
v -0.009483 0.046084 0.060287
v -0.012587 0.054958 0.056844
v -0.006066 0.027545 0.049489
v -0.003721 0.038290 0.058695
v -0.042280 0.056314 -0.011979
v -0.039230 0.060583 -0.019498
v -0.042368 0.047528 -0.020768
v -0.044609 0.044987 -0.006268
v -0.041905 0.059442 -0.002634
v -0.043543 0.049547 0.005568
v -0.040131 0.061529 0.005119
v -0.043822 0.037415 0.002401
v -0.042279 0.040266 0.011850
v -0.042741 0.038142 -0.020969
v -0.042881 0.031647 -0.010684
v -0.041859 0.028029 -0.000746
v -0.038899 0.059588 0.014842
v -0.036973 0.054936 0.024804
v -0.041050 0.048264 0.018414
v -0.034456 0.051599 0.033040
v -0.034178 0.067692 0.014457
v -0.038652 0.039329 0.021455
v -0.040611 0.029257 0.011254
v -0.037940 0.033184 0.021820
v -0.038869 0.021300 -0.015040
v -0.031524 0.012496 -0.010713
v -0.038937 0.020750 -0.000739
v -0.031774 0.012411 -0.002211
v -0.031291 0.013928 0.005570
v -0.036614 0.020564 0.010147
v -0.026813 0.013884 0.015878
v -0.025255 0.008996 0.004924
v -0.013137 0.003124 0.002129
v -0.032607 0.020805 0.019701
v -0.029144 0.021875 0.026291
v -0.036708 0.024798 0.017717
v -0.036216 0.059013 -0.030233
v -0.037457 0.045696 -0.033075
v -0.038650 0.032551 -0.028311
v -0.039650 0.028006 -0.022507
v -0.032768 0.049844 -0.039967
v -0.031821 0.040140 -0.042444
v -0.034995 0.033300 -0.035855
v -0.027926 0.029330 -0.042637
v -0.028271 0.022155 -0.036918
v -0.027035 0.016210 -0.030778
v -0.033456 0.021834 -0.029585
v -0.018765 0.018533 -0.040016
v -0.022431 0.011531 -0.027493
v -0.034143 0.017589 -0.020444
v -0.022442 0.035054 -0.049344
v -0.019881 0.027377 -0.046915
v -0.016659 0.034173 -0.051378
v -0.010169 0.029454 -0.051347
v -0.011312 0.024348 -0.047859
v -0.010258 0.016422 -0.040872
v -0.025746 0.010428 -0.020337
v -0.014418 0.012799 -0.034638
v -0.014545 0.006762 -0.024043
v -0.003177 0.009111 -0.031782
v -0.001888 0.020423 -0.044875
v -0.021472 0.005874 -0.008712
v -0.009565 0.002118 -0.011856
v -0.002684 0.002230 -0.017633
v 0.004792 0.011076 -0.033778
v 0.007284 0.003994 -0.020841
v 0.013863 0.010176 -0.028674
v 0.000882 0.086724 0.006236
v -0.010876 0.084584 0.010078
v -0.000315 0.086287 -0.012162
v -0.009670 0.085974 -0.008549
v 0.000087 0.086929 -0.004847
v -0.011962 0.085969 0.001625
v -0.016294 0.082494 0.015788
v -0.013187 0.080358 0.024339
v -0.018901 0.082434 -0.017207
v -0.017886 0.084566 -0.007396
v -0.021600 0.082538 0.002948
v -0.036020 0.070441 -0.005475
v -0.031912 0.071429 -0.019803
v -0.026995 0.078562 -0.007517
v -0.028578 0.077267 0.001577
v -0.025184 0.072181 0.026182
v -0.022976 0.078369 0.016178
v -0.031021 0.073125 0.011734
v -0.015655 0.080773 -0.027565
v -0.008107 0.084793 -0.018625
v -0.004052 0.079877 -0.032592
v -0.000650 0.076282 -0.037797
v 0.008495 0.074831 -0.036788
v 0.002805 0.083249 -0.024246
v 0.014476 0.077030 -0.028824
v 0.001310 0.068637 -0.046089
v 0.012726 0.083034 -0.012116
v 0.017674 0.079536 -0.018931
v -0.006419 0.069464 -0.044990
v 0.021499 0.074386 -0.024631
v -0.025355 0.070861 -0.031967
v -0.024886 0.076846 -0.022376
v -0.027503 0.061704 -0.038342
v -0.016991 0.065998 -0.044895
v -0.017075 0.071615 -0.039219
v -0.009490 0.074927 -0.038631
v -0.008874 0.058440 -0.052104
v -0.016755 0.051547 -0.052151
v -0.019120 0.057720 -0.048524
v 0.001637 0.056452 -0.053500
v -0.004073 0.049894 -0.056076
v -0.026433 0.053584 -0.044338
v -0.025177 0.045655 -0.048441
v -0.017104 0.042355 -0.053155
v -0.011362 0.041501 -0.055120
v 0.009841 0.063836 -0.047333
v 0.010626 0.051603 -0.052915
v 0.004738 0.043644 -0.055918
v -0.002551 0.041778 -0.056468
v -0.003026 0.034341 -0.054563
v 0.008519 0.033742 -0.051186
v 0.014512 0.039521 -0.049873
v 0.003297 0.029112 -0.049455
v 0.021728 0.053593 -0.043569
v 0.016045 0.046744 -0.049510
v 0.017462 0.054970 -0.048031
v 0.024145 0.040674 -0.041914
v 0.024992 0.048555 -0.041927
v 0.019271 0.066087 -0.039544
v 0.025001 0.066435 -0.031434
v 0.026223 0.058557 -0.036684
v 0.031329 0.050096 -0.033282
v 0.030301 0.041942 -0.034190
v 0.026154 0.032287 -0.036643
v 0.018305 0.018045 -0.034998
v 0.018574 0.028853 -0.042863
v 0.026923 0.025066 -0.031861
v 0.011366 0.024969 -0.044469
v 0.007759 0.015519 -0.038466
v -0.024617 0.023396 0.033218
vt 0.155869 0.672879
vt 0.150916 0.711220
vt 0.108387 0.682778
vt 0.139782 0.641384
vt 0.116355 0.625598
vt 0.191503 0.639265
vt 0.167252 0.590487
vt 0.052515 0.625968
vt 0.108754 0.565498
vt 0.271111 0.502741
vt 0.188192 0.476568
vt 0.255983 0.447591
vt 0.064693 0.672826
vt 0.025335 0.655584
vt 0.207851 0.524710
vt 0.168425 0.555393
vt 0.147048 0.518784
vt 0.213994 0.495391
vt 0.286091 0.427790
vt 0.319446 0.460360
vt 0.216177 0.419961
vt 0.284553 0.402320
vt 0.234156 0.366276
vt 0.267862 0.375369
vt 0.194615 0.439671
vt 0.171349 0.395968
vt 0.150394 0.455208
vt 0.404942 0.367856
vt 0.367352 0.406892
vt 0.355283 0.359524
vt 0.406299 0.478971
vt 0.372010 0.445853
vt 0.421837 0.442293
vt 0.325091 0.408551
vt 0.415991 0.395422
vt 0.332960 0.492731
vt 0.317768 0.364044
vt 0.400261 0.326650
vt 0.385880 0.306797
vt 0.348761 0.300133
vt 0.290268 0.337567
vt 0.313745 0.274527
vt 0.279708 0.297993
vt 0.418160 0.283326
vt 0.173235 0.346044
vt 0.224986 0.322516
vt 0.156990 0.367912
vt 0.183638 0.317638
vt 0.166366 0.294031
vt 0.281434 0.227204
vt 0.354689 0.237861
vt 0.236512 0.232289
vt 0.231834 0.261393
vt 0.167011 0.209577
vt 0.201804 0.203180
vt 0.324958 0.205521
vt 0.338740 0.185189
vt 0.301117 0.149678
vt 0.250527 0.195065
vt 0.237111 0.161306
vt 0.244911 0.092288
vt 0.193804 0.106067
vt 0.086060 0.799983
vt 0.042171 0.805793
vt 0.057676 0.744974
vt 0.125142 0.724488
vt 0.084299 0.736544
vt 0.184385 0.729974
vt 0.162703 0.759856
vt 0.128744 0.784626
vt 0.159343 0.823040
vt 0.161323 0.848841
vt 0.123689 0.872935
vt 0.178930 0.870295
vt 0.089671 0.862763
vt 0.067121 0.836820
vt 0.089592 0.889786
vt 0.061606 0.861857
vt 0.041348 0.855170
vt 0.020517 0.288007
vt 0.057140 0.322712
vt 0.015245 0.333609
vt 0.053365 0.360074
vt 0.033713 0.253309
vt 0.074415 0.289906
vt 0.033795 0.388588
vt 0.037929 0.889401
vt 0.007197 0.855817
vt 0.008204 0.800800
vt 0.065559 0.894663
vt 0.004978 0.899485
vt 0.038831 0.919234
vt 0.030091 0.730814
vt 0.002215 0.739851
vt 0.076684 0.421066
vt 0.107879 0.405916
vt 0.106682 0.357885
vt 0.094694 0.322877
vt 0.141792 0.331131
vt 0.125038 0.146205
vt 0.096479 0.138355
vt 0.145709 0.104429
vt 0.175948 0.072294
vt 0.146890 0.164606
vt 0.192800 0.159239
vt 0.118425 0.213664
vt 0.071172 0.221741
vt 0.100323 0.248669
vt 0.067463 0.258059
vt 0.153881 0.248872
vt 0.192333 0.906139
vt 0.119630 0.905607
vt 0.159308 0.932701
vt 0.226323 0.873688
vt 0.231888 0.957929
vt 0.259007 0.993537
vt 0.204148 0.984924
vt 0.155280 0.966918
vt 0.045713 0.088624
vt 0.018043 0.091498
vt 0.058663 0.055601
vt 0.064361 0.095979
vt 0.110097 0.030930
vt 0.146367 0.025696
vt 0.092007 0.092194
vt 0.010074 0.143571
vt 0.038341 0.162170
vt 0.000647 0.189054
vt 0.095751 0.928966
vt 0.114541 0.973028
vt 0.077670 0.171235
vt 0.028659 0.205381
vt 0.000021 0.252834
vt 0.080346 0.961115
vt 0.392128 0.814275
vt 0.403261 0.777756
vt 0.443060 0.813967
vt 0.399565 0.866157
vt 0.353214 0.829686
vt 0.350812 0.882493
vt 0.322645 0.843105
vt 0.386888 0.909378
vt 0.346142 0.922413
vt 0.464801 0.836081
vt 0.446135 0.885778
vt 0.420931 0.924120
vt 0.292493 0.869427
vt 0.265731 0.905117
vt 0.306081 0.914668
vt 0.235720 0.930653
vt 0.270902 0.840815
vt 0.313777 0.949958
vt 0.370224 0.955468
vt 0.318862 0.968662
vt 0.294993 0.999688
vt 0.366290 0.005141
vt 0.344110 0.039041
vt 0.293966 0.000212
vt 0.303730 0.035751
vt 0.432244 0.948224
vt 0.487128 0.898908
vt 0.267841 0.037699
vt 0.244869 0.011248
vt 0.392107 0.979023
vt 0.224028 0.055620
vt 0.275150 0.061686
vt 0.292941 0.110766
vt 0.200548 0.030364
vt 0.167450 0.045300
vt 0.353814 0.985124
vt 0.206102 0.009779
vt 0.436754 0.745025
vt 0.480673 0.767121
vt 0.500363 0.821896
vt 0.492794 0.854897
vt 0.486009 0.727193
vt 0.520720 0.739324
vt 0.520944 0.786157
vt 0.557136 0.757535
vt 0.477913 0.057298
vt 0.442258 0.059638
vt 0.441581 0.032505
vt 0.489110 0.100680
vt 0.421868 0.076917
vt 0.537290 0.838735
vt 0.518058 0.884875
vt 0.568555 0.098588
vt 0.534604 0.103042
vt 0.518042 0.063062
vt 0.561361 0.129464
vt 0.550139 0.157162
vt 0.528302 0.141541
vt 0.487704 0.136648
vt 0.563730 0.802192
vt 0.393969 0.027013
vt 0.388319 0.064785
vt 0.459383 0.113694
vt 0.410125 0.107842
vt 0.443957 0.159634
vt 0.510857 0.180508
vt 0.338760 0.078348
vt 0.353679 0.125850
vt 0.379248 0.152694
vt 0.449988 0.195167
vt 0.393005 0.192884
vt 0.422436 0.231730
vt 0.191575 0.684760
vt 0.212718 0.733740
vt 0.252058 0.645061
vt 0.263855 0.682661
vt 0.228829 0.660007
vt 0.239282 0.714521
vt 0.206285 0.770010
vt 0.174872 0.787028
vt 0.318142 0.690897
vt 0.282639 0.709912
vt 0.260995 0.749543
vt 0.334396 0.784754
vt 0.371382 0.738970
vt 0.310136 0.745077
vt 0.287827 0.772804
vt 0.207503 0.838192
vt 0.228263 0.794545
vt 0.265675 0.815003
vt 0.344492 0.660032
vt 0.293436 0.654717
vt 0.337525 0.610456
vt 0.350479 0.591719
vt 0.325542 0.558980
vt 0.290121 0.607710
vt 0.278709 0.558536
vt 0.387871 0.566452
vt 0.221661 0.598022
vt 0.236022 0.567207
vt 0.405848 0.595115
vt 0.248593 0.538816
vt 0.399319 0.689604
vt 0.354973 0.706154
vt 0.443114 0.693925
vt 0.435298 0.636025
vt 0.405252 0.645888
vt 0.378071 0.617505
vt 0.463226 0.594252
vt 0.500092 0.634812
vt 0.473896 0.643427
vt 0.441418 0.553141
vt 0.485368 0.571783
vt 0.481511 0.688654
vt 0.517101 0.685679
vt 0.536143 0.644097
vt 0.535746 0.615319
vt 0.382924 0.533188
vt 0.430864 0.517050
vt 0.587577 0.177314
vt 0.585374 0.147212
vt 0.487536 0.535306
vt 0.517139 0.569213
vt 0.586837 0.229996
vt 0.564115 0.206347
vt 0.578431 0.275812
vt 0.542310 0.265796
vt 0.568663 0.339321
vt 0.536993 0.310325
vt 0.534206 0.222386
vt 0.517136 0.394428
vt 0.543076 0.340833
vt 0.540281 0.384761
vt 0.497127 0.354867
vt 0.500621 0.384844
vt 0.318691 0.511125
vt 0.271791 0.504811
vt 0.460771 0.471738
vt 0.475894 0.436846
vt 0.502243 0.450263
vt 0.451466 0.415491
vt 0.384019 0.498684
vt 0.457171 0.380443
vt 0.469506 0.335663
vt 0.455792 0.262809
vt 0.493942 0.292427
vt 0.443653 0.314638
vt 0.506909 0.252573
vt 0.472570 0.214184
vt 0.136320 0.069309
vt 0.557719 0.697313
vn 0.2744 0.9494 0.1529
vn 0.1004 0.9594 0.2636
vn 0.4328 0.8700 0.2363
vn 0.4810 0.8688 0.1172
vn 0.6724 0.7215 0.1651
vn 0.3175 0.9483 0.0014
vn 0.5815 0.8135 -0.0122
vn 0.8274 0.5192 0.2140
vn 0.8154 0.5683 0.1103
vn 0.9380 0.2955 0.1810
vn 0.6640 0.7047 0.2501
vn 0.8636 0.4026 0.3036
vn 0.7197 0.6465 -0.2532
vn 0.7124 0.6940 -0.1039
vn 0.8653 0.4911 -0.1003
vn 0.8228 0.4613 -0.3319
vn 0.9905 0.1090 0.0843
vn 0.9591 0.2811 -0.0344
vn 0.9567 0.0706 0.2825
vn 0.9863 -0.1185 0.1144
vn 0.9134 -0.2702 0.3046
vn 0.9515 -0.2565 0.1699
vn 0.9168 0.2694 0.2947
vn 0.9325 0.0033 0.3612
vn 0.8858 -0.2355 -0.3998
vn 0.9649 -0.0505 -0.2578
vn 0.9189 -0.3454 -0.1905
vn 0.9491 0.1960 -0.2467
vn 0.8809 0.2488 -0.4027
vn 0.9940 -0.0554 -0.0939
vn 0.9114 -0.0310 -0.4104
vn 0.9415 -0.3335 -0.0482
vn 0.8263 -0.4169 -0.3786
vn 0.7777 -0.5580 -0.2895
vn 0.7570 -0.6412 -0.1259
vn 0.8703 -0.4814 0.1045
vn 0.6183 -0.7837 0.0591
vn 0.7166 -0.6717 0.1881
vn 0.6225 -0.6629 -0.4159
vn 0.8249 -0.3754 0.4226
vn 0.7723 -0.5275 0.3540
vn 0.8884 -0.2169 0.4046
vn 0.7530 -0.4768 0.4535
vn 0.6747 -0.5544 0.4873
vn 0.5050 -0.8486 0.1577
vn 0.5035 -0.8466 -0.1722
vn 0.5043 -0.8096 0.3004
vn 0.5966 -0.7289 0.3357
vn 0.2724 -0.8185 0.5058
vn 0.2782 -0.8682 0.4110
vn 0.3298 -0.9440 0.0040
vn 0.1201 -0.9887 -0.0901
vn -0.0683 -0.9946 0.0778
vn 0.2333 -0.9424 0.2396
vn -0.1049 -0.9496 0.2953
vn -0.3757 -0.8801 0.2903
vn -0.3455 -0.8443 0.4097
vn -0.0308 0.8535 0.5202
vn 0.1741 0.7121 0.6802
vn 0.3596 0.8309 0.4245
vn 0.1254 0.9474 0.2945
vn 0.2683 0.8899 0.3689
vn -0.1008 0.9636 0.2477
vn -0.0867 0.9476 0.3075
vn -0.0810 0.9117 0.4027
vn -0.3765 0.8110 0.4477
vn -0.5577 0.6716 0.4877
vn -0.4345 0.6897 0.5793
vn -0.6324 0.6164 0.4692
vn -0.2734 0.7510 0.6011
vn -0.0003 0.7774 0.6290
vn -0.3116 0.5455 0.7780
vn 0.0886 0.5544 0.8275
vn 0.1638 0.4810 0.8613
vn 0.3191 -0.0936 0.9431
vn 0.5969 -0.2131 0.7735
vn 0.2910 0.2485 0.9239
vn 0.6766 0.0779 0.7322
vn 0.2163 -0.3485 0.9120
vn 0.5423 -0.4565 0.7053
vn 0.4628 0.4586 0.7586
vn 0.0097 0.3770 0.9262
vn -0.1257 0.3645 0.9227
vn 0.0255 0.1233 0.9920
vn 0.6151 0.6638 0.4255
vn 0.7581 0.3402 0.5563
vn 0.8705 0.1515 0.4682
vn 0.8162 -0.1761 0.5502
vn 0.7032 -0.3893 0.5949
vn 0.7400 -0.4302 0.5171
vn -0.2312 -0.7457 0.6249
vn -0.3110 -0.6741 0.6699
vn -0.4083 -0.7372 0.5383
vn -0.5276 -0.7267 0.4398
vn -0.1454 -0.8129 0.5639
vn -0.1203 -0.8963 0.4268
vn 0.1681 -0.7238 0.6692
vn 0.1042 -0.6302 0.7694
vn 0.4679 -0.6026 0.6465
vn 0.3712 -0.5241 0.7665
vn 0.5332 -0.6589 0.5306
vn -0.7431 0.4879 0.4580
vn -0.4717 0.5575 0.6831
vn -0.7238 0.3144 0.6142
vn -0.7702 0.5225 0.3659
vn -0.8816 -0.0430 0.4700
vn -0.8061 -0.3054 0.5069
vn -0.8059 -0.1704 0.5669
vn -0.6868 0.0223 0.7265
vn -0.6519 -0.3043 0.6946
vn -0.5798 -0.4860 0.6540
vn -0.7513 -0.4509 0.4819
vn -0.5495 -0.5856 0.5959
vn -0.5399 -0.1232 0.8327
vn -0.3318 -0.5096 0.7939
vn -0.2676 -0.0301 0.9631
vn -0.3513 0.3454 0.8702
vn -0.1535 -0.6690 0.7273
vn -0.0601 -0.4044 0.9126
vn -0.9503 0.2862 -0.1228
vn -0.8820 0.4072 -0.2372
vn -0.9562 0.1271 -0.2638
vn -0.9988 0.0370 -0.0307
vn -0.9381 0.3462 0.0126
vn -0.9822 0.1313 0.1345
vn -0.8946 0.4210 0.1497
vn -0.9872 -0.1243 0.0999
vn -0.9661 -0.0902 0.2418
vn -0.9612 -0.0935 -0.2594
vn -0.9696 -0.2344 -0.0705
vn -0.9466 -0.3168 0.0601
vn -0.8879 0.3807 0.2582
vn -0.8780 0.3192 0.3568
vn -0.9480 0.0670 0.3112
vn -0.8861 0.1349 0.4433
vn -0.7956 0.5471 0.2601
vn -0.9174 -0.0960 0.3862
vn -0.9287 -0.2968 0.2223
vn -0.9023 -0.2012 0.3813
vn -0.8514 -0.5004 -0.1575
vn -0.6487 -0.7551 -0.0949
vn -0.8519 -0.5179 0.0774
vn -0.6555 -0.7526 0.0630
vn -0.6575 -0.7229 0.2124
vn -0.7842 -0.5792 0.2226
vn -0.5613 -0.7593 0.3292
vn -0.5086 -0.8428 0.1764
vn -0.2862 -0.9507 0.1195
vn -0.6687 -0.6368 0.3839
vn -0.6353 -0.6124 0.4705
vn -0.8216 -0.4513 0.3483
vn -0.8110 0.3854 -0.4401
vn -0.8892 0.0586 -0.4538
vn -0.8811 -0.2209 -0.4182
vn -0.8903 -0.3450 -0.2973
vn -0.7631 0.2173 -0.6087
vn -0.7575 -0.0732 -0.6487
vn -0.8251 -0.2357 -0.5135
vn -0.6253 -0.3953 -0.6729
vn -0.5893 -0.5482 -0.5934
vn -0.5423 -0.7115 -0.4468
vn -0.7441 -0.5222 -0.4166
vn -0.3533 -0.6783 -0.6443
vn -0.4075 -0.8096 -0.4224
vn -0.7073 -0.6452 -0.2890
vn -0.5037 -0.2455 -0.8282
vn -0.3950 -0.5049 -0.7675
vn -0.3101 -0.3196 -0.8954
vn -0.1250 -0.4693 -0.8741
vn -0.1469 -0.5930 -0.7917
vn -0.1119 -0.7389 -0.6645
vn -0.5117 -0.8191 -0.2594
vn -0.2390 -0.8082 -0.5383
vn -0.2600 -0.8953 -0.3617
vn -0.0262 -0.8452 -0.5337
vn 0.0899 -0.6372 -0.7655
vn -0.4246 -0.9031 -0.0640
vn -0.2095 -0.9703 -0.1209
vn -0.0563 -0.9594 -0.2765
vn 0.1277 -0.8037 -0.5811
vn 0.2312 -0.9064 -0.3536
vn 0.3982 -0.8049 -0.4400
vn 0.0847 0.9896 0.1164
vn -0.1524 0.9684 0.1973
vn 0.0842 0.9860 -0.1439
vn -0.1384 0.9860 -0.0931
vn 0.0877 0.9954 -0.0396
vn -0.1926 0.9784 0.0751
vn -0.3179 0.9091 0.2693
vn -0.2720 0.9054 0.3260
vn -0.4211 0.8848 -0.1993
vn -0.3630 0.9284 -0.0795
vn -0.4874 0.8676 0.0988
vn -0.7960 0.6044 -0.0333
vn -0.7176 0.6444 -0.2640
vn -0.6181 0.7807 -0.0922
vn -0.6552 0.7512 0.0806
vn -0.6440 0.6718 0.3659
vn -0.5566 0.7852 0.2715
vn -0.7160 0.6645 0.2138
vn -0.3252 0.8553 -0.4034
vn -0.1147 0.9659 -0.2322
vn -0.0084 0.8723 -0.4890
vn 0.0565 0.8035 -0.5927
vn 0.3009 0.7688 -0.5642
vn 0.1600 0.9288 -0.3344
vn 0.4250 0.7942 -0.4342
vn 0.1031 0.6416 -0.7600
vn 0.3492 0.9289 -0.1237
vn 0.4933 0.8361 -0.2400
vn -0.1154 0.6560 -0.7459
vn 0.6143 0.7025 -0.3593
vn -0.6073 0.6288 -0.4855
vn -0.6016 0.7498 -0.2754
vn -0.6413 0.4698 -0.6067
vn -0.4048 0.5626 -0.7208
vn -0.4077 0.6823 -0.6069
vn -0.1492 0.7629 -0.6290
vn -0.1760 0.4414 -0.8799
vn -0.3982 0.2405 -0.8852
vn -0.4903 0.3799 -0.7844
vn 0.1182 0.3971 -0.9101
vn -0.0626 0.2056 -0.9766
vn -0.6263 0.3371 -0.7029
vn -0.5966 0.1069 -0.7954
vn -0.3983 -0.0329 -0.9167
vn -0.2487 -0.0950 -0.9639
vn 0.3324 0.5429 -0.7712
vn 0.3937 0.1914 -0.8991
vn 0.2654 -0.0806 -0.9608
vn 0.0119 -0.1335 -0.9910
vn 0.0501 -0.4083 -0.9115
vn 0.3399 -0.4017 -0.8503
vn 0.5451 -0.1925 -0.8160
vn 0.1797 -0.5525 -0.8139
vn 0.6997 0.1960 -0.6870
vn 0.6026 -0.0224 -0.7977
vn 0.6071 0.2507 -0.7540
vn 0.7076 -0.1404 -0.6925
vn 0.6459 0.0420 -0.7623
vn 0.5662 0.5629 -0.6021
vn 0.7000 0.5551 -0.4493
vn 0.7472 0.3489 -0.5656
vn 0.8526 0.1115 -0.5105
vn 0.8287 -0.1173 -0.5472
vn 0.7383 -0.2896 -0.6091
vn 0.5086 -0.5931 -0.6241
vn 0.5754 -0.4028 -0.7118
vn 0.7147 -0.4050 -0.5703
vn 0.3392 -0.5404 -0.7701
vn 0.2363 -0.6894 -0.6848
vn -0.5916 -0.5945 0.5446
s 1
f 1/1/1 2/2/2 3/3/3
f 3/3/3 4/4/4 1/1/1
f 4/4/4 3/3/3 5/5/5
f 6/6/6 1/1/1 4/4/4
f 6/6/6 4/4/4 7/7/7
f 7/7/7 4/4/4 5/5/5
f 5/5/5 8/8/8 9/9/9
f 9/10/9 8/11/8 10/12/10
f 11/13/11 12/14/12 8/8/8
f 13/15/13 14/16/14 15/17/15
f 15/17/15 14/16/14 9/9/9
f 14/16/14 7/7/7 9/9/9
f 16/18/16 13/15/13 15/17/15
f 10/12/10 17/19/17 18/20/18
f 10/12/10 19/21/19 17/19/17
f 20/22/20 21/23/21 22/24/22
f 23/25/23 19/21/19 10/12/10
f 17/19/17 19/21/19 20/22/20
f 19/21/19 21/23/21 20/22/20
f 19/21/19 24/26/24 21/23/21
f 24/26/24 23/25/23 12/27/12
f 19/21/19 23/25/23 24/26/24
f 25/28/25 26/29/26 27/30/27
f 16/31/16 28/32/28 29/33/29
f 26/29/26 30/34/30 27/30/27
f 31/35/31 29/33/29 28/32/28
f 28/32/28 26/29/26 31/35/31
f 26/29/26 25/28/25 31/35/31
f 28/32/28 15/36/15 18/20/18
f 28/32/28 18/20/18 30/34/30
f 26/29/26 28/32/28 30/34/30
f 18/20/18 17/19/17 30/34/30
f 30/34/30 17/19/17 20/22/20
f 30/34/30 22/24/22 32/37/32
f 33/38/33 27/30/27 34/39/34
f 27/30/27 35/40/35 34/39/34
f 32/37/32 36/41/36 27/30/27
f 37/42/37 35/40/35 38/43/38
f 36/41/36 35/40/35 27/30/27
f 39/44/39 34/39/34 35/40/35
f 35/40/35 36/41/36 38/43/38
f 40/45/40 41/46/41 21/23/21
f 22/24/22 21/23/21 36/41/36
f 24/26/24 42/47/42 40/45/40
f 40/45/40 21/23/21 24/26/24
f 36/41/36 41/46/41 38/43/38
f 36/41/36 21/23/21 41/46/41
f 41/46/41 40/45/40 43/48/43
f 43/48/43 44/49/44 41/46/41
f 45/50/45 46/51/46 37/42/37
f 47/52/47 45/50/45 48/53/48
f 49/54/49 50/55/50 48/53/48
f 51/56/51 46/51/46 45/50/45
f 48/53/48 50/55/50 47/52/47
f 52/57/52 51/56/51 53/58/53
f 53/58/53 54/59/54 55/60/55
f 51/56/51 54/59/54 53/58/53
f 56/61/56 55/60/55 57/62/57
f 55/60/55 54/59/54 50/55/50
f 45/50/45 54/59/54 51/56/51
f 58/63/58 59/64/59 60/65/60
f 61/66/61 62/67/62 3/3/3
f 63/68/63 64/69/64 2/2/2
f 64/69/64 65/70/65 2/2/2
f 65/70/65 61/66/61 2/2/2
f 65/70/65 62/67/62 61/66/61
f 60/65/60 11/13/11 62/67/62
f 58/63/58 60/65/60 62/67/62
f 66/71/66 67/72/67 68/73/68
f 68/73/68 67/72/67 69/74/69
f 58/63/58 65/70/65 66/71/66
f 70/75/70 66/71/66 68/73/68
f 58/63/58 66/71/66 70/75/70
f 58/63/58 70/75/70 71/76/71
f 70/75/70 68/73/68 72/77/72
f 72/77/72 73/78/73 70/75/70
f 71/76/71 70/75/70 73/78/73
f 71/76/71 73/78/73 74/79/74
f 75/80/75 76/81/76 77/82/77
f 77/82/77 76/81/76 78/83/78
f 75/80/75 79/84/79 80/85/80
f 77/82/77 78/83/78 81/86/81
f 80/85/80 76/81/76 75/80/75
f 82/87/82 77/88/77 74/79/74
f 77/88/77 81/89/81 74/79/74
f 82/87/82 74/79/74 83/90/83
f 82/87/82 75/91/75 77/88/77
f 84/92/84 75/91/75 82/87/82
f 83/90/83 84/92/84 82/87/82
f 12/14/12 85/93/85 86/94/86
f 86/95/86 87/96/87 12/27/12
f 88/97/88 87/96/87 78/83/78
f 88/97/88 76/81/76 89/98/89
f 44/49/44 89/98/89 80/85/80
f 89/98/89 44/49/44 90/99/90
f 87/96/87 88/97/88 24/26/24
f 88/97/88 42/47/42 24/26/24
f 90/99/90 42/47/42 88/97/88
f 88/97/88 89/98/89 90/99/90
f 91/100/91 92/101/92 93/102/93
f 94/103/94 57/62/57 93/102/93
f 93/102/93 57/62/57 91/100/91
f 57/62/57 95/104/95 91/100/91
f 96/105/96 95/104/95 57/62/57
f 96/105/96 49/54/49 95/104/95
f 91/100/91 97/106/97 98/107/98
f 99/108/99 98/107/98 97/106/97
f 100/109/100 98/107/98 99/108/99
f 100/109/100 99/108/99 80/85/80
f 97/106/97 49/54/49 101/110/101
f 95/104/95 49/54/49 97/106/97
f 101/110/101 99/108/99 97/106/97
f 68/73/68 102/111/102 103/112/103
f 104/113/104 103/112/103 102/111/102
f 69/74/69 105/114/105 102/111/102
f 106/115/106 107/116/107 108/117/108
f 106/115/106 108/117/108 104/113/104
f 104/113/104 108/117/108 109/118/109
f 110/119/110 109/120/109 108/121/108
f 108/121/108 111/122/111 110/119/110
f 107/123/107 111/122/111 108/121/108
f 112/124/112 113/125/113 107/123/107
f 107/123/107 113/125/113 111/122/111
f 114/126/114 111/122/111 115/127/115
f 116/128/116 114/126/114 115/127/115
f 103/112/103 117/129/117 72/77/72
f 109/118/109 114/130/114 117/129/117
f 115/127/115 111/122/111 113/125/113
f 113/125/113 92/101/92 115/127/115
f 118/131/118 115/127/115 92/101/92
f 118/131/118 119/132/119 115/127/115
f 119/132/119 118/131/118 98/107/98
f 119/132/119 98/107/98 79/84/79
f 116/128/116 119/132/119 84/133/84
f 84/133/84 119/132/119 79/84/79
f 117/129/117 114/130/114 116/134/116
f 120/135/120 121/136/121 122/137/122
f 120/135/120 123/138/123 124/139/124
f 123/138/123 125/140/125 124/139/124
f 122/137/122 123/138/123 120/135/120
f 124/139/124 125/140/125 126/141/126
f 123/138/123 127/142/127 125/140/125
f 125/140/125 127/142/127 128/143/128
f 122/137/122 129/144/129 123/138/123
f 129/144/129 130/145/130 123/138/123
f 123/138/123 130/145/130 127/142/127
f 130/145/130 131/146/131 127/142/127
f 105/114/105 132/147/132 133/148/133
f 133/148/133 102/111/102 105/114/105
f 133/148/133 134/149/134 135/150/135
f 126/141/126 132/147/132 136/151/136
f 128/143/128 137/152/137 134/149/134
f 134/149/134 133/148/133 132/147/132
f 102/111/102 133/148/133 135/150/135
f 134/149/134 137/152/137 135/150/135
f 138/153/138 139/154/139 128/143/128
f 137/152/137 128/143/128 139/154/139
f 137/152/137 106/115/106 135/150/135
f 137/152/137 107/116/107 106/115/106
f 139/154/139 107/116/107 137/152/137
f 139/154/139 112/155/112 107/116/107
f 140/156/140 141/157/141 142/158/142
f 141/157/141 143/159/143 142/158/142
f 131/146/131 130/145/130 142/160/142
f 140/161/140 142/160/142 130/145/130
f 142/158/142 143/159/143 144/162/144
f 142/158/142 144/162/144 145/163/145
f 142/160/142 145/164/145 131/146/131
f 131/146/131 145/164/145 138/153/138
f 144/162/144 146/165/146 145/163/145
f 144/162/144 147/166/147 146/165/146
f 148/167/148 56/61/56 147/166/147
f 147/166/147 56/61/56 146/165/146
f 146/165/146 57/62/57 94/103/94
f 56/61/56 57/62/57 146/165/146
f 145/163/145 146/165/146 149/168/149
f 149/168/149 146/165/146 150/169/150
f 94/103/94 150/169/150 146/165/146
f 149/168/149 150/169/150 112/124/112
f 112/155/112 139/154/139 151/170/151
f 151/171/151 149/168/149 112/124/112
f 152/172/152 153/173/153 122/137/122
f 153/173/153 129/144/129 122/137/122
f 153/173/153 154/174/154 129/144/129
f 154/174/154 155/175/155 129/144/129
f 152/172/152 156/176/156 153/173/153
f 157/177/157 153/173/153 156/176/156
f 158/178/158 153/173/153 157/177/157
f 153/173/153 158/178/158 154/174/154
f 158/178/158 157/177/157 159/179/159
f 160/180/160 161/181/161 162/182/162
f 163/183/163 161/181/161 160/180/160
f 163/183/163 164/184/164 161/181/161
f 155/175/155 162/185/162 165/186/165
f 155/175/155 165/186/165 140/161/140
f 166/187/166 167/188/167 159/189/159
f 167/188/167 166/187/166 168/190/168
f 159/189/159 163/183/163 160/180/160
f 167/188/167 163/183/163 159/189/159
f 167/188/167 168/190/168 169/191/169
f 167/188/167 170/192/170 163/183/163
f 170/192/170 171/193/171 163/183/163
f 158/178/158 159/179/159 160/194/160
f 141/157/141 165/195/165 172/196/172
f 173/197/173 174/198/174 164/184/164
f 174/198/174 172/196/172 164/184/164
f 173/197/173 171/193/171 175/199/175
f 174/198/174 173/197/173 175/199/175
f 171/193/171 176/200/176 175/199/175
f 177/201/177 174/198/174 178/202/178
f 179/203/179 178/202/178 174/198/174
f 180/204/180 181/205/181 175/199/175
f 178/202/178 179/203/179 53/58/53
f 174/198/174 175/199/175 179/203/179
f 175/199/175 181/205/181 179/203/179
f 181/205/181 52/57/52 179/203/179
f 182/206/182 181/205/181 180/204/180
f 183/207/183 184/208/184 63/68/63
f 185/209/185 186/210/186 187/211/187
f 188/212/188 187/211/187 186/210/186
f 188/212/188 183/207/183 187/211/187
f 183/207/183 188/212/188 184/208/184
f 183/207/183 6/6/6 187/211/187
f 188/212/188 189/213/189 184/208/184
f 190/214/190 63/68/63 184/208/184
f 184/208/184 189/213/189 190/214/190
f 191/215/191 192/216/192 186/210/186
f 193/217/193 188/212/188 192/216/192
f 188/212/188 193/217/193 189/213/189
f 186/210/186 192/216/192 188/212/188
f 194/218/194 195/219/195 121/136/121
f 195/219/195 194/218/194 196/220/196
f 191/215/191 195/219/195 196/220/196
f 196/220/196 194/218/194 197/221/197
f 194/218/194 126/141/126 136/151/136
f 198/222/198 105/114/105 69/74/69
f 199/223/199 197/221/197 200/224/200
f 199/223/199 200/224/200 198/222/198
f 200/224/200 136/151/136 198/222/198
f 136/151/136 105/114/105 198/222/198
f 66/71/66 199/223/199 198/222/198
f 190/214/190 199/223/199 66/71/66
f 196/220/196 197/221/197 193/217/193
f 193/217/193 197/221/197 199/223/199
f 201/225/201 202/226/202 203/227/203
f 204/228/204 203/227/203 205/229/205
f 203/227/203 206/230/206 205/229/205
f 206/230/206 207/231/207 205/229/205
f 204/228/204 205/229/205 208/232/208
f 206/230/206 209/233/209 210/234/210
f 207/231/207 206/230/206 210/234/210
f 202/226/202 206/230/206 203/227/203
f 202/226/202 185/209/185 206/230/206
f 206/230/206 185/209/185 209/233/209
f 187/211/187 209/233/209 185/209/185
f 204/228/204 211/235/211 203/227/203
f 207/231/207 210/234/210 212/236/212
f 210/234/210 209/233/209 7/7/7
f 211/235/211 204/228/204 208/232/208
f 213/237/213 195/219/195 214/238/214
f 213/237/213 215/239/215 152/172/152
f 195/219/195 213/237/213 152/172/152
f 215/239/215 213/237/213 216/240/216
f 216/240/216 213/237/213 217/241/217
f 211/235/211 217/241/217 218/242/218
f 217/241/217 211/235/211 216/240/216
f 201/225/201 217/241/217 213/237/213
f 218/242/218 217/241/217 201/225/201
f 214/238/214 201/225/201 213/237/213
f 219/243/219 220/244/220 221/245/221
f 222/246/222 219/243/219 208/232/208
f 219/243/219 222/246/222 223/247/223
f 220/244/220 224/248/224 221/245/221
f 224/248/224 220/244/220 225/249/225
f 226/250/226 225/249/225 220/244/220
f 219/243/219 223/247/223 220/244/220
f 220/244/220 223/247/223 227/251/227
f 228/252/228 229/253/229 222/246/222
f 208/232/208 228/252/228 222/246/222
f 227/254/227 168/190/168 226/255/226
f 166/187/166 226/255/226 168/190/168
f 223/247/223 230/256/230 231/257/231
f 222/246/222 229/253/229 230/256/230
f 227/254/227 231/258/231 232/259/232
f 227/254/227 169/191/169 168/190/168
f 232/259/232 169/191/169 227/254/227
f 230/260/230 233/261/233 231/258/231
f 231/258/231 233/261/233 232/259/232
f 229/262/229 234/263/234 230/260/230
f 230/260/230 234/263/234 233/261/233
f 232/259/232 233/261/233 235/264/235
f 232/259/232 235/264/235 169/191/169
f 176/200/176 169/191/169 235/264/235
f 176/200/176 170/192/170 169/191/169
f 236/265/236 237/266/237 238/267/238
f 239/268/239 234/263/234 237/266/237
f 236/265/236 239/268/239 237/266/237
f 240/269/240 239/268/239 236/265/236
f 228/252/228 205/229/205 241/270/241
f 207/231/207 242/271/242 241/270/241
f 242/271/242 207/231/207 212/236/212
f 212/236/212 210/234/210 13/15/13
f 212/236/212 13/15/13 242/271/242
f 13/15/13 16/18/16 242/271/242
f 242/272/242 243/273/243 241/274/241
f 243/273/243 236/265/236 241/274/241
f 29/33/29 243/273/243 242/272/242
f 244/275/244 243/273/243 29/33/29
f 228/252/228 241/270/241 238/276/238
f 241/274/241 236/265/236 238/267/238
f 208/232/208 205/229/205 228/252/228
f 243/273/243 240/269/240 236/265/236
f 240/269/240 243/273/243 244/275/244
f 245/277/245 246/278/246 239/268/239
f 39/44/39 182/206/182 247/279/247
f 246/278/246 247/279/247 248/280/248
f 247/279/247 246/278/246 249/281/249
f 247/279/247 249/281/249 39/44/39
f 25/28/25 249/281/249 246/278/246
f 33/38/33 39/44/39 249/281/249
f 182/206/182 39/44/39 181/205/181
f 248/280/248 234/263/234 239/268/239
f 248/280/248 233/261/233 234/263/234
f 239/268/239 246/278/246 248/280/248
f 235/264/235 233/261/233 250/282/250
f 251/283/251 250/282/250 247/279/247
f 233/261/233 248/280/248 250/282/250
f 248/280/248 247/279/247 250/282/250
f 247/279/247 182/206/182 251/283/251
f 2/2/2 61/66/61 3/3/3
f 1/1/1 183/207/183 2/2/2
f 5/5/5 3/3/3 11/13/11
f 1/1/1 6/6/6 183/207/183
f 6/6/6 7/7/7 209/233/209
f 210/234/210 7/7/7 14/16/14
f 14/16/14 13/15/13 210/234/210
f 9/9/9 7/7/7 5/5/5
f 5/5/5 11/13/11 8/8/8
f 8/11/8 23/25/23 10/12/10
f 85/93/85 12/14/12 11/13/11
f 15/36/15 9/10/9 18/20/18
f 9/10/9 10/12/10 18/20/18
f 8/11/8 12/27/12 23/25/23
f 12/27/12 87/96/87 24/26/24
f 244/275/244 31/35/31 245/277/245
f 29/33/29 31/35/31 244/275/244
f 15/36/15 28/32/28 16/31/16
f 30/34/30 32/37/32 27/30/27
f 20/22/20 22/24/22 30/34/30
f 25/28/25 27/30/27 33/38/33
f 33/38/33 34/39/34 39/44/39
f 35/40/35 37/42/37 46/51/46
f 25/28/25 33/38/33 249/281/249
f 39/44/39 35/40/35 46/51/46
f 37/42/37 38/43/38 48/53/48
f 45/50/45 37/42/37 48/53/48
f 32/37/32 22/24/22 36/41/36
f 40/45/40 42/47/42 90/99/90
f 90/99/90 43/48/43 40/45/40
f 41/46/41 48/53/48 38/43/38
f 44/49/44 48/53/48 41/46/41
f 48/53/48 44/49/44 101/110/101
f 101/110/101 49/54/49 48/53/48
f 47/52/47 54/59/54 45/50/45
f 56/61/56 148/167/148 55/60/55
f 53/58/53 55/60/55 148/167/148
f 96/105/96 57/62/57 55/60/55
f 54/59/54 47/52/47 50/55/50
f 55/60/55 50/55/50 96/105/96
f 190/214/190 64/69/64 63/68/63
f 58/63/58 71/76/71 59/64/59
f 63/68/63 2/2/2 183/207/183
f 190/214/190 65/70/65 64/69/64
f 62/67/62 11/13/11 3/3/3
f 58/63/58 62/67/62 65/70/65
f 60/65/60 59/64/59 85/93/85
f 65/70/65 190/214/190 66/71/66
f 66/71/66 198/222/198 67/72/67
f 67/72/67 198/222/198 69/74/69
f 71/76/71 74/79/74 59/64/59
f 72/77/72 83/90/83 73/78/73
f 74/79/74 73/78/73 83/90/83
f 81/89/81 85/93/85 59/64/59
f 117/129/117 84/92/84 83/90/83
f 59/64/59 74/79/74 81/89/81
f 100/109/100 80/85/80 79/84/79
f 84/133/84 79/84/79 75/80/75
f 81/89/81 86/94/86 85/93/85
f 60/65/60 85/93/85 11/13/11
f 78/83/78 87/96/87 81/86/81
f 81/86/81 87/96/87 86/95/86
f 78/83/78 76/81/76 88/97/88
f 89/98/89 76/81/76 80/85/80
f 99/108/99 44/49/44 80/85/80
f 90/99/90 44/49/44 43/48/43
f 113/125/113 93/102/93 92/101/92
f 252/284/252 93/102/93 113/125/113
f 94/103/94 93/102/93 252/284/252
f 96/105/96 50/55/50 49/54/49
f 118/131/118 92/101/92 91/100/91
f 95/104/95 97/106/97 91/100/91
f 118/131/118 91/100/91 98/107/98
f 98/107/98 100/109/100 79/84/79
f 44/49/44 99/108/99 101/110/101
f 69/74/69 102/111/102 68/73/68
f 104/113/104 102/111/102 135/150/135
f 104/113/104 135/150/135 106/115/106
f 252/284/252 113/125/113 112/124/112
f 103/112/103 72/77/72 68/73/68
f 111/122/111 114/126/114 110/119/110
f 116/128/116 115/127/115 119/132/119
f 104/113/104 109/118/109 117/129/117
f 103/112/103 104/113/104 117/129/117
f 117/129/117 83/90/83 72/77/72
f 109/120/109 110/119/110 114/126/114
f 117/129/117 116/134/116 84/92/84
f 138/153/138 127/142/127 131/146/131
f 194/218/194 124/139/124 126/141/126
f 130/145/130 129/144/129 155/175/155
f 138/153/138 128/143/128 127/142/127
f 132/147/132 105/114/105 136/151/136
f 128/143/128 134/149/134 125/140/125
f 132/147/132 126/141/126 125/140/125
f 125/140/125 134/149/134 132/147/132
f 140/156/140 165/195/165 141/157/141
f 155/175/155 140/161/140 130/145/130
f 143/159/143 147/166/147 144/162/144
f 177/201/177 143/159/143 141/157/141
f 177/201/177 147/166/147 143/159/143
f 151/170/151 138/153/138 145/164/145
f 177/201/177 148/167/148 147/166/147
f 178/202/178 148/167/148 177/201/177
f 145/163/145 149/168/149 151/171/151
f 112/124/112 150/169/150 252/284/252
f 252/284/252 150/169/150 94/103/94
f 151/170/151 139/154/139 138/153/138
f 121/136/121 152/172/152 122/137/122
f 162/185/162 154/174/154 158/178/158
f 225/249/225 166/285/166 157/177/157
f 157/177/157 166/285/166 159/179/159
f 225/249/225 157/177/157 156/176/156
f 162/182/162 172/196/172 165/195/165
f 162/182/162 161/181/161 172/196/172
f 154/174/154 162/185/162 155/175/155
f 162/185/162 158/178/158 160/194/160
f 167/188/167 169/191/169 170/192/170
f 170/192/170 176/200/176 171/193/171
f 163/183/163 173/197/173 164/184/164
f 161/181/161 164/184/164 172/196/172
f 163/183/163 171/193/171 173/197/173
f 172/196/172 174/198/174 177/201/177
f 172/196/172 177/201/177 141/157/141
f 180/204/180 176/200/176 251/283/251
f 176/200/176 180/204/180 175/199/175
f 178/202/178 53/58/53 148/167/148
f 179/203/179 52/57/52 53/58/53
f 181/205/181 46/51/46 51/56/51
f 51/56/51 52/57/52 181/205/181
f 186/210/186 185/209/185 202/226/202
f 199/223/199 189/213/189 193/217/193
f 190/214/190 189/213/189 199/223/199
f 191/215/191 196/220/196 192/216/192
f 196/220/196 193/217/193 192/216/192
f 191/215/191 186/210/186 202/226/202
f 121/136/121 120/135/120 194/218/194
f 120/135/120 124/139/124 194/218/194
f 214/238/214 195/219/195 191/215/191
f 197/221/197 194/218/194 200/224/200
f 200/224/200 194/218/194 136/151/136
f 187/211/187 6/6/6 209/233/209
f 201/225/201 203/227/203 218/242/218
f 218/242/218 203/227/203 211/235/211
f 224/248/224 156/176/156 215/239/215
f 156/176/156 152/172/152 215/239/215
f 195/219/195 152/172/152 121/136/121
f 215/239/215 216/240/216 221/245/221
f 214/238/214 191/215/191 201/225/201
f 201/225/201 191/215/191 202/226/202
f 220/244/220 227/251/227 226/250/226
f 219/243/219 216/240/216 211/235/211
f 208/232/208 219/243/219 211/235/211
f 216/240/216 219/243/219 221/245/221
f 215/239/215 221/245/221 224/248/224
f 224/248/224 225/249/225 156/176/156
f 223/247/223 231/257/231 227/251/227
f 222/246/222 230/256/230 223/247/223
f 225/249/225 226/250/226 166/285/166
f 237/266/237 234/263/234 229/262/229
f 244/275/244 245/277/245 240/269/240
f 240/269/240 245/277/245 239/268/239
f 228/252/228 238/276/238 229/253/229
f 238/267/238 237/266/237 229/262/229
f 207/231/207 241/270/241 205/229/205
f 242/272/242 16/31/16 29/33/29
f 31/35/31 25/28/25 245/277/245
f 25/28/25 246/278/246 245/277/245
f 39/44/39 46/51/46 181/205/181
f 176/200/176 235/264/235 250/282/250
f 251/283/251 176/200/176 250/282/250
f 182/206/182 180/204/180 251/283/251

