{"asset":{"generator":"Khronos glTF Blender I/O v4.5.51","version":"2.0"},"scene":0,"scenes":[{"name":"Scene","nodes":[42]}],"nodes":[{"name":"Head_L","rotation":[0.7061522006988525,0.20448289811611176,0.6768947839736938,0.036732424050569534],"scale":[1,1.0000003576278687,1.0000001192092896],"translation":[0.3168584406375885,0.4118577241897583,0.5320804119110107]},{"name":"Head_R","rotation":[0.7061520218849182,-0.20448285341262817,-0.676895022392273,0.036732569336891174],"scale":[0.9999998211860657,1.0000001192092896,0.9999998807907104],"translation":[-0.31685909628868103,0.4118577241897583,0.5320806503295898]},{"children":[0,1],"name":"Head","rotation":[0.15569064021110535,-3.5017347954635625e-07,8.063132383995253e-08,0.9878059029579163],"translation":[1.1368683772161603e-13,2.8308022022247314,2.086165409309615e-07]},{"children":[2],"name":"Bone.004","rotation":[-0.13337162137031555,-1.2531145898719842e-07,-5.5951609567728156e-08,0.9910660982131958],"scale":[1,1,0.9999999403953552],"translation":[3.268496584496461e-13,1.0093694925308228,2.980233944072097e-07]},{"children":[3],"name":"Bone.003","rotation":[-0.4494837820529938,1.893149459419874e-08,-2.7395304869060055e-07,0.8932884931564331],"scale":[0.9999999403953552,0.9999999403953552,1],"translation":[-1.1368683772161603e-13,3.221829652786255,1.192093463942001e-07]},{"children":[4],"name":"Backbone","rotation":[0.31842777132987976,-1.0302431974196224e-07,1.4123990865755331e-07,0.9479471445083618],"scale":[1,0.9999999403953552,0.9999999403953552],"translation":[-2.842170943040401e-14,1.4431949853897095,-2.980232238769531e-07]},{"name":"Bone.006","rotation":[-0.4572630822658539,-1.3304230606081546e-07,-2.0541224898806831e-07,0.8893314599990845],"scale":[1,1,0.9999999403953552],"translation":[8.300931426674651e-07,1.4948036670684814,-1.5183930397033691]},{"name":"Finger3_L.002","rotation":[1.2951204553246498e-09,1.3159734635337372e-06,-1.2369130719669386e-10,1],"scale":[0.9999999403953552,1,0.9999999403953552],"translation":[3.6176061257719994e-08,0.4388253688812256,1.210719347000122e-08]},{"children":[7],"name":"Finger3_L.001","rotation":[-0.027286026626825333,0.01471282634884119,-0.009046358987689018,0.9994784593582153],"scale":[0.9999999403953552,0.9999999403953552,1],"translation":[-1.5366822481155396e-08,0.8335581421852112,-7.450580596923828e-09]},{"children":[8],"name":"Finger3_L","rotation":[-0.5740288496017456,-0.05977320298552513,0.025129342451691628,0.8162637948989868],"scale":[0.9999997615814209,0.9999998211860657,0.9999998807907104],"translation":[1.0523945093154907e-07,1.5396991968154907,-5.681067705154419e-08]},{"name":"Finger4_L.002","rotation":[-3.725290298461914e-09,2.1420419216156006e-08,6.28642782274369e-09,1],"scale":[0.9999999403953552,1,1],"translation":[-5.21540641784668e-08,0.42461374402046204,3.725290298461914e-09]},{"children":[10],"name":"Finger4_L.001","rotation":[0.025144141167402267,0.046593986451625824,-0.02132837101817131,0.9983696341514587],"scale":[1,1,1.0000001192092896],"translation":[4.470348358154297e-08,0.812315046787262,-3.725290298461914e-08]},{"children":[11],"name":"Finger4_L","rotation":[0.2857257127761841,0.6952854990959167,-0.5093647241592407,0.4189109802246094],"scale":[1,0.9999999403953552,1],"translation":[1.0523945093154907e-07,1.5396991968154907,-5.681067705154419e-08]},{"name":"Finger2_L.002","rotation":[-3.026798811589515e-09,5.8440495109834956e-08,-1.1175871783564162e-08,1],"scale":[1,0.9999998807907104,0.9999999403953552],"translation":[8.102506399154663e-08,0.4068792462348938,-3.259629011154175e-08]},{"children":[13],"name":"Finger2_L.001","rotation":[0.027914974838495255,-0.0314139761030674,0.02794903889298439,0.9987255334854126],"scale":[1,1,0.9999998807907104],"translation":[8.672941476106644e-09,0.7958705425262451,1.4901161193847656e-08]},{"children":[14],"name":"Finger2_L","rotation":[0.3028179109096527,-0.7483672499656677,0.5448697209358215,0.22663813829421997],"scale":[0.9999998807907104,1,0.9999999403953552],"translation":[1.0523945093154907e-07,1.5396991968154907,-5.681067705154419e-08]},{"name":"Finger1_L.001","rotation":[0.052711762487888336,-7.461698814381634e-09,0.014116971753537655,0.9985100030899048],"scale":[0.9999999403953552,1,0.9999999403953552],"translation":[5.960464477539063e-08,0.5013201832771301,-1.4901161193847656e-08]},{"children":[16],"name":"Finger1_L","rotation":[0.43147942423820496,-0.18863356113433838,0.18692240118980408,0.8621501922607422],"scale":[0.9999999403953552,0.9999998807907104,0.9999998807907104],"translation":[0.0038993372581899166,1.0726759433746338,0.2573016583919525]},{"children":[9,12,15,17],"name":"Leg_L.002","rotation":[-0.32549482583999634,0.11153856664896011,-0.07705250382423401,0.9357751607894897],"scale":[1,1.0000001192092896,1],"translation":[1.5972182154655457e-07,2.913003921508789,-1.1175870895385742e-07]},{"children":[18],"name":"Leg_L.001","rotation":[0.9884905815124512,-0.08205532282590866,-0.10800550132989883,0.06699352711439133],"translation":[1.6633802652359009,1.031469702720642,2.7536041736602783]},{"name":"Finger3_R.002","rotation":[3.041350282728672e-09,-1.3110693544149399e-06,-1.987245923373848e-09,1],"translation":[1.0988878784701228e-07,0.4388251304626465,6.05359673500061e-08]},{"children":[20],"name":"Finger3_R.001","rotation":[-0.02728601172566414,-0.014712837524712086,0.009046366438269615,0.9994784593582153],"translation":[-8.614733815193176e-08,0.8335581421852112,-1.862645149230957e-08]},{"children":[21],"name":"Finger3_R","rotation":[-0.5740289092063904,0.0597732812166214,-0.025129396468400955,0.8162637948989868],"scale":[0.9999999403953552,0.9999998211860657,0.9999999403953552],"translation":[-1.1641532182693481e-07,1.5396991968154907,-7.450580596923828e-09]},{"name":"Finger4_R.002","rotation":[4.190952029858863e-09,-5.587935447692871e-09,-9.778887921640944e-09,1],"scale":[1,0.9999998807907104,0.9999999403953552],"translation":[-9.96515154838562e-08,0.4246136546134949,-3.725290298461914e-08]},{"children":[23],"name":"Finger4_R.001","rotation":[0.025144146755337715,-0.04659415781497955,0.02132834680378437,0.9983696341514587],"scale":[1,1,1.0000001192092896],"translation":[8.568167686462402e-08,0.8123151063919067,7.450580596923828e-09]},{"children":[24],"name":"Finger4_R","rotation":[0.2857256233692169,-0.695285439491272,0.5093647837638855,0.4189110994338989],"translation":[-1.1641532182693481e-07,1.5396991968154907,-7.450580596923828e-09]},{"name":"Finger2_R.002","rotation":[2.3283064365386963e-10,-6.565824151039124e-08,-1.6530975699424744e-08,1],"translation":[4.190951585769653e-08,0.40687915682792664,2.2817403078079224e-08]},{"children":[26],"name":"Finger2_R.001","rotation":[0.027914972975850105,0.03141394630074501,-0.027949046343564987,0.9987255334854126],"scale":[1.0000001192092896,1.0000001192092896,1],"translation":[9.9564203992486e-08,0.7958706021308899,1.4901161193847656e-08]},{"children":[27],"name":"Finger2_R","rotation":[0.3028179705142975,0.7483673095703125,-0.544869601726532,0.22663801908493042],"scale":[1,0.9999998807907104,1],"translation":[-1.1641532182693481e-07,1.5396991968154907,-7.450580596923828e-09]},{"name":"Finger1_R.001","rotation":[0.05271175503730774,-3.3577645552895774e-08,-0.014116954989731312,0.99850994348526],"scale":[1,0.9999999403953552,1],"translation":[-7.450580596923828e-08,0.5013201236724854,-4.470348358154297e-08]},{"children":[29],"name":"Finger1_R","rotation":[0.43147942423820496,0.18863357603549957,-0.1869223564863205,0.8621501922607422],"translation":[-0.0038993102498352528,1.0726759433746338,0.2573017179965973]},{"children":[22,25,28,30],"name":"Leg_R.002","rotation":[-0.32549482583999634,-0.11153861880302429,0.0770525336265564,0.9357751607894897],"scale":[1,0.9999999403953552,0.9999999403953552],"translation":[-3.771856427192688e-08,2.913004159927368,-9.313225746154785e-08]},{"children":[31],"name":"Leg_R.001","rotation":[0.9884905219078064,0.08205529302358627,0.10800623893737793,0.06699364632368088],"scale":[1,0.9999997019767761,1],"translation":[-1.6633833646774292,1.0314698219299316,2.7536025047302246]},{"children":[5,6,19,32],"name":"Hip","rotation":[1.4861345221106603e-07,-0.8808383345603943,-0.4734172224998474,2.765096667189937e-07],"scale":[1,0.9999997615814209,1],"translation":[0,-1.684061050415039,5.113720893859863]},{"name":"IK-Leg_L","rotation":[-3.0908619663705394e-08,0.7071067690849304,-0.7071067690849304,3.0908619663705394e-08],"translation":[-1.5534377098083496,0.29030466079711914,0.33834439516067505]},{"name":"IK-Leg_R","rotation":[-3.0908619663705394e-08,0.7071067690849304,-0.7071067690849304,3.0908619663705394e-08],"translation":[1.5534377098083496,0.29030466079711914,0.33834439516067505]},{"name":"IK-Knee_L","rotation":[0,0,-1,0],"translation":[-1.5099053382873535,-2.6813530921936035,2.5968878269195557]},{"name":"IK-Knee_R","rotation":[0,0,-1,0],"translation":[1.5099053382873535,-2.6813530921936035,2.5968878269195557]},{"name":"IK-Head","rotation":[1.2577338281971606e-07,0.8180829882621765,0.5751001834869385,1.5928665675346565e-07],"scale":[1,0.9999996423721313,1],"translation":[-5.570910843744059e-07,2.5425915718078613,11.1798095703125]},{"children":[33,34,35,36,37,38],"name":"Main","rotation":[0,0.7071067690849304,0.7071067690849304,0]},{"mesh":0,"name":"Chicken","skin":0},{"mesh":1,"name":"Eyes","skin":0},{"children":[40,41,39],"name":"Armature"}],"animations":[{"channels":[{"sampler":0,"target":{"node":39,"path":"translation"}},{"sampler":1,"target":{"node":39,"path":"rotation"}},{"sampler":2,"target":{"node":39,"path":"scale"}},{"sampler":3,"target":{"node":33,"path":"translation"}},{"sampler":4,"target":{"node":33,"path":"rotation"}},{"sampler":5,"target":{"node":33,"path":"scale"}},{"sampler":6,"target":{"node":5,"path":"translation"}},{"sampler":7,"target":{"node":5,"path":"rotation"}},{"sampler":8,"target":{"node":5,"path":"scale"}},{"sampler":9,"target":{"node":4,"path":"translation"}},{"sampler":10,"target":{"node":4,"path":"rotation"}},{"sampler":11,"target":{"node":4,"path":"scale"}},{"sampler":12,"target":{"node":3,"path":"translation"}},{"sampler":13,"target":{"node":3,"path":"rotation"}},{"sampler":14,"target":{"node":3,"path":"scale"}},{"sampler":15,"target":{"node":2,"path":"translation"}},{"sampler":16,"target":{"node":2,"path":"rotation"}},{"sampler":17,"target":{"node":2,"path":"scale"}},{"sampler":18,"target":{"node":0,"path":"translation"}},{"sampler":19,"target":{"node":0,"path":"rotation"}},{"sampler":20,"target":{"node":0,"path":"scale"}},{"sampler":21,"target":{"node":1,"path":"translation"}},{"sampler":22,"target":{"node":1,"path":"rotation"}},{"sampler":23,"target":{"node":1,"path":"scale"}},{"sampler":24,"target":{"node":6,"path":"translation"}},{"sampler":25,"target":{"node":6,"path":"rotation"}},{"sampler":26,"target":{"node":6,"path":"scale"}},{"sampler":27,"target":{"node":19,"path":"translation"}},{"sampler":28,"target":{"node":19,"path":"rotation"}},{"sampler":29,"target":{"node":19,"path":"scale"}},{"sampler":30,"target":{"node":18,"path":"translation"}},{"sampler":31,"target":{"node":18,"path":"rotation"}},{"sampler":32,"target":{"node":18,"path":"scale"}},{"sampler":33,"target":{"node":9,"path":"translation"}},{"sampler":34,"target":{"node":9,"path":"rotation"}},{"sampler":35,"target":{"node":9,"path":"scale"}},{"sampler":36,"target":{"node":8,"path":"translation"}},{"sampler":37,"target":{"node":8,"path":"rotation"}},{"sampler":38,"target":{"node":8,"path":"scale"}},{"sampler":39,"target":{"node":7,"path":"translation"}},{"sampler":40,"target":{"node":7,"path":"rotation"}},{"sampler":41,"target":{"node":7,"path":"scale"}},{"sampler":42,"target":{"node":12,"path":"translation"}},{"sampler":43,"target":{"node":12,"path":"rotation"}},{"sampler":44,"target":{"node":12,"path":"scale"}},{"sampler":45,"target":{"node":11,"path":"translation"}},{"sampler":46,"target":{"node":11,"path":"rotation"}},{"sampler":47,"target":{"node":11,"path":"scale"}},{"sampler":48,"target":{"node":10,"path":"translation"}},{"sampler":49,"target":{"node":10,"path":"rotation"}},{"sampler":50,"target":{"node":10,"path":"scale"}},{"sampler":51,"target":{"node":15,"path":"translation"}},{"sampler":52,"target":{"node":15,"path":"rotation"}},{"sampler":53,"target":{"node":15,"path":"scale"}},{"sampler":54,"target":{"node":14,"path":"translation"}},{"sampler":55,"target":{"node":14,"path":"rotation"}},{"sampler":56,"target":{"node":14,"path":"scale"}},{"sampler":57,"target":{"node":13,"path":"translation"}},{"sampler":58,"target":{"node":13,"path":"rotation"}},{"sampler":59,"target":{"node":13,"path":"scale"}},{"sampler":60,"target":{"node":17,"path":"translation"}},{"sampler":61,"target":{"node":17,"path":"rotation"}},{"sampler":62,"target":{"node":17,"path":"scale"}},{"sampler":63,"target":{"node":16,"path":"translation"}},{"sampler":64,"target":{"node":16,"path":"rotation"}},{"sampler":65,"target":{"node":16,"path":"scale"}},{"sampler":66,"target":{"node":32,"path":"translation"}},{"sampler":67,"target":{"node":32,"path":"rotation"}},{"sampler":68,"target":{"node":32,"path":"scale"}},{"sampler":69,"target":{"node":31,"path":"translation"}},{"sampler":70,"target":{"node":31,"path":"rotation"}},{"sampler":71,"target":{"node":31,"path":"scale"}},{"sampler":72,"target":{"node":22,"path":"translation"}},{"sampler":73,"target":{"node":22,"path":"rotation"}},{"sampler":74,"target":{"node":22,"path":"scale"}},{"sampler":75,"target":{"node":21,"path":"translation"}},{"sampler":76,"target":{"node":21,"path":"rotation"}},{"sampler":77,"target":{"node":21,"path":"scale"}},{"sampler":78,"target":{"node":20,"path":"translation"}},{"sampler":79,"target":{"node":20,"path":"rotation"}},{"sampler":80,"target":{"node":20,"path":"scale"}},{"sampler":81,"target":{"node":25,"path":"translation"}},{"sampler":82,"target":{"node":25,"path":"rotation"}},{"sampler":83,"target":{"node":25,"path":"scale"}},{"sampler":84,"target":{"node":24,"path":"translation"}},{"sampler":85,"target":{"node":24,"path":"rotation"}},{"sampler":86,"target":{"node":24,"path":"scale"}},{"sampler":87,"target":{"node":23,"path":"translation"}},{"sampler":88,"target":{"node":23,"path":"rotation"}},{"sampler":89,"target":{"node":23,"path":"scale"}},{"sampler":90,"target":{"node":28,"path":"translation"}},{"sampler":91,"target":{"node":28,"path":"rotation"}},{"sampler":92,"target":{"node":28,"path":"scale"}},{"sampler":93,"target":{"node":27,"path":"translation"}},{"sampler":94,"target":{"node":27,"path":"rotation"}},{"sampler":95,"target":{"node":27,"path":"scale"}},{"sampler":96,"target":{"node":26,"path":"translation"}},{"sampler":97,"target":{"node":26,"path":"rotation"}},{"sampler":98,"target":{"node":26,"path":"scale"}},{"sampler":99,"target":{"node":30,"path":"translation"}},{"sampler":100,"target":{"node":30,"path":"rotation"}},{"sampler":101,"target":{"node":30,"path":"scale"}},{"sampler":102,"target":{"node":29,"path":"translation"}},{"sampler":103,"target":{"node":29,"path":"rotation"}},{"sampler":104,"target":{"node":29,"path":"scale"}},{"sampler":105,"target":{"node":34,"path":"translation"}},{"sampler":106,"target":{"node":34,"path":"rotation"}},{"sampler":107,"target":{"node":34,"path":"scale"}},{"sampler":108,"target":{"node":35,"path":"translation"}},{"sampler":109,"target":{"node":35,"path":"rotation"}},{"sampler":110,"target":{"node":35,"path":"scale"}},{"sampler":111,"target":{"node":36,"path":"translation"}},{"sampler":112,"target":{"node":36,"path":"rotation"}},{"sampler":113,"target":{"node":36,"path":"scale"}},{"sampler":114,"target":{"node":37,"path":"translation"}},{"sampler":115,"target":{"node":37,"path":"rotation"}},{"sampler":116,"target":{"node":37,"path":"scale"}},{"sampler":117,"target":{"node":38,"path":"translation"}},{"sampler":118,"target":{"node":38,"path":"rotation"}},{"sampler":119,"target":{"node":38,"path":"scale"}}],"name":"eat","samplers":[{"input":19,"interpolation":"STEP","output":20},{"input":19,"interpolation":"STEP","output":21},{"input":19,"interpolation":"STEP","output":22},{"input":23,"interpolation":"LINEAR","output":24},{"input":23,"interpolation":"LINEAR","output":25},{"input":19,"interpolation":"STEP","output":26},{"input":19,"interpolation":"STEP","output":27},{"input":23,"interpolation":"LINEAR","output":28},{"input":19,"interpolation":"STEP","output":29},{"input":19,"interpolation":"STEP","output":30},{"input":23,"interpolation":"LINEAR","output":31},{"input":19,"interpolation":"STEP","output":32},{"input":19,"interpolation":"STEP","output":33},{"input":23,"interpolation":"LINEAR","output":34},{"input":19,"interpolation":"STEP","output":35},{"input":19,"interpolation":"STEP","output":36},{"input":23,"interpolation":"LINEAR","output":37},{"input":19,"interpolation":"STEP","output":22},{"input":19,"interpolation":"STEP","output":38},{"input":19,"interpolation":"STEP","output":39},{"input":19,"interpolation":"STEP","output":40},{"input":19,"interpolation":"STEP","output":41},{"input":19,"interpolation":"STEP","output":42},{"input":19,"interpolation":"STEP","output":43},{"input":19,"interpolation":"STEP","output":44},{"input":19,"interpolation":"STEP","output":45},{"input":19,"interpolation":"STEP","output":22},{"input":19,"interpolation":"STEP","output":46},{"input":23,"interpolation":"LINEAR","output":47},{"input":19,"interpolation":"STEP","output":48},{"input":19,"interpolation":"STEP","output":49},{"input":23,"interpolation":"LINEAR","output":50},{"input":19,"interpolation":"STEP","output":51},{"input":19,"interpolation":"STEP","output":52},{"input":19,"interpolation":"STEP","output":53},{"input":19,"interpolation":"STEP","output":54},{"input":19,"interpolation":"STEP","output":55},{"input":19,"interpolation":"STEP","output":56},{"input":19,"interpolation":"STEP","output":57},{"input":19,"interpolation":"STEP","output":58},{"input":19,"interpolation":"STEP","output":59},{"input":19,"interpolation":"STEP","output":22},{"input":19,"interpolation":"STEP","output":60},{"input":19,"interpolation":"STEP","output":61},{"input":19,"interpolation":"STEP","output":62},{"input":19,"interpolation":"STEP","output":63},{"input":19,"interpolation":"STEP","output":64},{"input":19,"interpolation":"STEP","output":65},{"input":19,"interpolation":"STEP","output":66},{"input":19,"interpolation":"STEP","output":67},{"input":19,"interpolation":"STEP","output":68},{"input":19,"interpolation":"STEP","output":69},{"input":19,"interpolation":"STEP","output":70},{"input":19,"interpolation":"STEP","output":57},{"input":19,"interpolation":"STEP","output":71},{"input":19,"interpolation":"STEP","output":72},{"input":19,"interpolation":"STEP","output":73},{"input":19,"interpolation":"STEP","output":74},{"input":19,"interpolation":"STEP","output":75},{"input":19,"interpolation":"STEP","output":22},{"input":19,"interpolation":"STEP","output":76},{"input":19,"interpolation":"STEP","output":77},{"input":19,"interpolation":"STEP","output":78},{"input":19,"interpolation":"STEP","output":79},{"input":19,"interpolation":"STEP","output":80},{"input":19,"interpolation":"STEP","output":81},{"input":19,"interpolation":"STEP","output":82},{"input":23,"interpolation":"LINEAR","output":83},{"input":19,"interpolation":"STEP","output":84},{"input":19,"interpolation":"STEP","output":85},{"input":23,"interpolation":"LINEAR","output":86},{"input":19,"interpolation":"STEP","output":87},{"input":19,"interpolation":"STEP","output":88},{"input":19,"interpolation":"STEP","output":89},{"input":19,"interpolation":"STEP","output":90},{"input":19,"interpolation":"STEP","output":91},{"input":19,"interpolation":"STEP","output":92},{"input":19,"interpolation":"STEP","output":22},{"input":19,"interpolation":"STEP","output":93},{"input":19,"interpolation":"STEP","output":94},{"input":19,"interpolation":"STEP","output":68},{"input":19,"interpolation":"STEP","output":95},{"input":19,"interpolation":"STEP","output":96},{"input":19,"interpolation":"STEP","output":22},{"input":19,"interpolation":"STEP","output":97},{"input":19,"interpolation":"STEP","output":98},{"input":19,"interpolation":"STEP","output":99},{"input":19,"interpolation":"STEP","output":100},{"input":19,"interpolation":"STEP","output":101},{"input":19,"interpolation":"STEP","output":102},{"input":19,"interpolation":"STEP","output":103},{"input":19,"interpolation":"STEP","output":104},{"input":19,"interpolation":"STEP","output":105},{"input":19,"interpolation":"STEP","output":106},{"input":19,"interpolation":"STEP","output":107},{"input":19,"interpolation":"STEP","output":22},{"input":19,"interpolation":"STEP","output":108},{"input":19,"interpolation":"STEP","output":109},{"input":19,"interpolation":"STEP","output":22},{"input":19,"interpolation":"STEP","output":110},{"input":19,"interpolation":"STEP","output":111},{"input":19,"interpolation":"STEP","output":112},{"input":19,"interpolation":"STEP","output":113},{"input":19,"interpolation":"STEP","output":114},{"input":19,"interpolation":"STEP","output":115},{"input":19,"interpolation":"STEP","output":116},{"input":19,"interpolation":"STEP","output":117},{"input":19,"interpolation":"STEP","output":22},{"input":19,"interpolation":"STEP","output":118},{"input":19,"interpolation":"STEP","output":117},{"input":19,"interpolation":"STEP","output":22},{"input":19,"interpolation":"STEP","output":119},{"input":19,"interpolation":"STEP","output":120},{"input":19,"interpolation":"STEP","output":22},{"input":19,"interpolation":"STEP","output":121},{"input":19,"interpolation":"STEP","output":120},{"input":19,"interpolation":"STEP","output":22},{"input":23,"interpolation":"LINEAR","output":122},{"input":23,"interpolation":"LINEAR","output":123},{"input":19,"interpolation":"STEP","output":124}]},{"channels":[{"sampler":0,"target":{"node":39,"path":"translation"}},{"sampler":1,"target":{"node":39,"path":"rotation"}},{"sampler":2,"target":{"node":39,"path":"scale"}},{"sampler":3,"target":{"node":33,"path":"translation"}},{"sampler":4,"target":{"node":33,"path":"rotation"}},{"sampler":5,"target":{"node":33,"path":"scale"}},{"sampler":6,"target":{"node":5,"path":"translation"}},{"sampler":7,"target":{"node":5,"path":"rotation"}},{"sampler":8,"target":{"node":5,"path":"scale"}},{"sampler":9,"target":{"node":4,"path":"translation"}},{"sampler":10,"target":{"node":4,"path":"rotation"}},{"sampler":11,"target":{"node":4,"path":"scale"}},{"sampler":12,"target":{"node":3,"path":"translation"}},{"sampler":13,"target":{"node":3,"path":"rotation"}},{"sampler":14,"target":{"node":3,"path":"scale"}},{"sampler":15,"target":{"node":2,"path":"translation"}},{"sampler":16,"target":{"node":2,"path":"rotation"}},{"sampler":17,"target":{"node":2,"path":"scale"}},{"sampler":18,"target":{"node":0,"path":"translation"}},{"sampler":19,"target":{"node":0,"path":"rotation"}},{"sampler":20,"target":{"node":0,"path":"scale"}},{"sampler":21,"target":{"node":1,"path":"translation"}},{"sampler":22,"target":{"node":1,"path":"rotation"}},{"sampler":23,"target":{"node":1,"path":"scale"}},{"sampler":24,"target":{"node":6,"path":"translation"}},{"sampler":25,"target":{"node":6,"path":"rotation"}},{"sampler":26,"target":{"node":6,"path":"scale"}},{"sampler":27,"target":{"node":19,"path":"translation"}},{"sampler":28,"target":{"node":19,"path":"rotation"}},{"sampler":29,"target":{"node":19,"path":"scale"}},{"sampler":30,"target":{"node":18,"path":"translation"}},{"sampler":31,"target":{"node":18,"path":"rotation"}},{"sampler":32,"target":{"node":18,"path":"scale"}},{"sampler":33,"target":{"node":9,"path":"translation"}},{"sampler":34,"target":{"node":9,"path":"rotation"}},{"sampler":35,"target":{"node":9,"path":"scale"}},{"sampler":36,"target":{"node":8,"path":"translation"}},{"sampler":37,"target":{"node":8,"path":"rotation"}},{"sampler":38,"target":{"node":8,"path":"scale"}},{"sampler":39,"target":{"node":7,"path":"translation"}},{"sampler":40,"target":{"node":7,"path":"rotation"}},{"sampler":41,"target":{"node":7,"path":"scale"}},{"sampler":42,"target":{"node":12,"path":"translation"}},{"sampler":43,"target":{"node":12,"path":"rotation"}},{"sampler":44,"target":{"node":12,"path":"scale"}},{"sampler":45,"target":{"node":11,"path":"translation"}},{"sampler":46,"target":{"node":11,"path":"rotation"}},{"sampler":47,"target":{"node":11,"path":"scale"}},{"sampler":48,"target":{"node":10,"path":"translation"}},{"sampler":49,"target":{"node":10,"path":"rotation"}},{"sampler":50,"target":{"node":10,"path":"scale"}},{"sampler":51,"target":{"node":15,"path":"translation"}},{"sampler":52,"target":{"node":15,"path":"rotation"}},{"sampler":53,"target":{"node":15,"path":"scale"}},{"sampler":54,"target":{"node":14,"path":"translation"}},{"sampler":55,"target":{"node":14,"path":"rotation"}},{"sampler":56,"target":{"node":14,"path":"scale"}},{"sampler":57,"target":{"node":13,"path":"translation"}},{"sampler":58,"target":{"node":13,"path":"rotation"}},{"sampler":59,"target":{"node":13,"path":"scale"}},{"sampler":60,"target":{"node":17,"path":"translation"}},{"sampler":61,"target":{"node":17,"path":"rotation"}},{"sampler":62,"target":{"node":17,"path":"scale"}},{"sampler":63,"target":{"node":16,"path":"translation"}},{"sampler":64,"target":{"node":16,"path":"rotation"}},{"sampler":65,"target":{"node":16,"path":"scale"}},{"sampler":66,"target":{"node":32,"path":"translation"}},{"sampler":67,"target":{"node":32,"path":"rotation"}},{"sampler":68,"target":{"node":32,"path":"scale"}},{"sampler":69,"target":{"node":31,"path":"translation"}},{"sampler":70,"target":{"node":31,"path":"rotation"}},{"sampler":71,"target":{"node":31,"path":"scale"}},{"sampler":72,"target":{"node":22,"path":"translation"}},{"sampler":73,"target":{"node":22,"path":"rotation"}},{"sampler":74,"target":{"node":22,"path":"scale"}},{"sampler":75,"target":{"node":21,"path":"translation"}},{"sampler":76,"target":{"node":21,"path":"rotation"}},{"sampler":77,"target":{"node":21,"path":"scale"}},{"sampler":78,"target":{"node":20,"path":"translation"}},{"sampler":79,"target":{"node":20,"path":"rotation"}},{"sampler":80,"target":{"node":20,"path":"scale"}},{"sampler":81,"target":{"node":25,"path":"translation"}},{"sampler":82,"target":{"node":25,"path":"rotation"}},{"sampler":83,"target":{"node":25,"path":"scale"}},{"sampler":84,"target":{"node":24,"path":"translation"}},{"sampler":85,"target":{"node":24,"path":"rotation"}},{"sampler":86,"target":{"node":24,"path":"scale"}},{"sampler":87,"target":{"node":23,"path":"translation"}},{"sampler":88,"target":{"node":23,"path":"rotation"}},{"sampler":89,"target":{"node":23,"path":"scale"}},{"sampler":90,"target":{"node":28,"path":"translation"}},{"sampler":91,"target":{"node":28,"path":"rotation"}},{"sampler":92,"target":{"node":28,"path":"scale"}},{"sampler":93,"target":{"node":27,"path":"translation"}},{"sampler":94,"target":{"node":27,"path":"rotation"}},{"sampler":95,"target":{"node":27,"path":"scale"}},{"sampler":96,"target":{"node":26,"path":"translation"}},{"sampler":97,"target":{"node":26,"path":"rotation"}},{"sampler":98,"target":{"node":26,"path":"scale"}},{"sampler":99,"target":{"node":30,"path":"translation"}},{"sampler":100,"target":{"node":30,"path":"rotation"}},{"sampler":101,"target":{"node":30,"path":"scale"}},{"sampler":102,"target":{"node":29,"path":"translation"}},{"sampler":103,"target":{"node":29,"path":"rotation"}},{"sampler":104,"target":{"node":29,"path":"scale"}},{"sampler":105,"target":{"node":34,"path":"translation"}},{"sampler":106,"target":{"node":34,"path":"rotation"}},{"sampler":107,"target":{"node":34,"path":"scale"}},{"sampler":108,"target":{"node":35,"path":"translation"}},{"sampler":109,"target":{"node":35,"path":"rotation"}},{"sampler":110,"target":{"node":35,"path":"scale"}},{"sampler":111,"target":{"node":36,"path":"translation"}},{"sampler":112,"target":{"node":36,"path":"rotation"}},{"sampler":113,"target":{"node":36,"path":"scale"}},{"sampler":114,"target":{"node":37,"path":"translation"}},{"sampler":115,"target":{"node":37,"path":"rotation"}},{"sampler":116,"target":{"node":37,"path":"scale"}},{"sampler":117,"target":{"node":38,"path":"translation"}},{"sampler":118,"target":{"node":38,"path":"rotation"}},{"sampler":119,"target":{"node":38,"path":"scale"}}],"name":"idle","samplers":[{"input":125,"interpolation":"STEP","output":20},{"input":125,"interpolation":"STEP","output":21},{"input":125,"interpolation":"STEP","output":22},{"input":126,"interpolation":"LINEAR","output":127},{"input":125,"interpolation":"STEP","output":128},{"input":125,"interpolation":"STEP","output":26},{"input":125,"interpolation":"STEP","output":27},{"input":126,"interpolation":"LINEAR","output":129},{"input":125,"interpolation":"STEP","output":29},{"input":125,"interpolation":"STEP","output":30},{"input":126,"interpolation":"LINEAR","output":130},{"input":125,"interpolation":"STEP","output":32},{"input":125,"interpolation":"STEP","output":33},{"input":126,"interpolation":"LINEAR","output":131},{"input":125,"interpolation":"STEP","output":35},{"input":125,"interpolation":"STEP","output":36},{"input":126,"interpolation":"LINEAR","output":132},{"input":125,"interpolation":"STEP","output":22},{"input":125,"interpolation":"STEP","output":38},{"input":126,"interpolation":"LINEAR","output":133},{"input":125,"interpolation":"STEP","output":40},{"input":125,"interpolation":"STEP","output":41},{"input":126,"interpolation":"LINEAR","output":134},{"input":125,"interpolation":"STEP","output":43},{"input":125,"interpolation":"STEP","output":44},{"input":125,"interpolation":"STEP","output":45},{"input":125,"interpolation":"STEP","output":22},{"input":125,"interpolation":"STEP","output":46},{"input":126,"interpolation":"LINEAR","output":135},{"input":125,"interpolation":"STEP","output":48},{"input":125,"interpolation":"STEP","output":49},{"input":126,"interpolation":"LINEAR","output":136},{"input":125,"interpolation":"STEP","output":51},{"input":125,"interpolation":"STEP","output":52},{"input":126,"interpolation":"LINEAR","output":137},{"input":125,"interpolation":"STEP","output":54},{"input":125,"interpolation":"STEP","output":55},{"input":126,"interpolation":"LINEAR","output":138},{"input":125,"interpolation":"STEP","output":57},{"input":125,"interpolation":"STEP","output":58},{"input":126,"interpolation":"LINEAR","output":139},{"input":125,"interpolation":"STEP","output":22},{"input":125,"interpolation":"STEP","output":60},{"input":126,"interpolation":"LINEAR","output":140},{"input":125,"interpolation":"STEP","output":62},{"input":125,"interpolation":"STEP","output":63},{"input":126,"interpolation":"LINEAR","output":141},{"input":125,"interpolation":"STEP","output":65},{"input":125,"interpolation":"STEP","output":66},{"input":126,"interpolation":"LINEAR","output":142},{"input":125,"interpolation":"STEP","output":68},{"input":125,"interpolation":"STEP","output":69},{"input":126,"interpolation":"LINEAR","output":143},{"input":125,"interpolation":"STEP","output":57},{"input":125,"interpolation":"STEP","output":71},{"input":126,"interpolation":"LINEAR","output":144},{"input":125,"interpolation":"STEP","output":73},{"input":125,"interpolation":"STEP","output":74},{"input":126,"interpolation":"LINEAR","output":145},{"input":125,"interpolation":"STEP","output":22},{"input":126,"interpolation":"LINEAR","output":146},{"input":126,"interpolation":"LINEAR","output":147},{"input":125,"interpolation":"STEP","output":78},{"input":125,"interpolation":"STEP","output":79},{"input":126,"interpolation":"LINEAR","output":148},{"input":125,"interpolation":"STEP","output":81},{"input":125,"interpolation":"STEP","output":82},{"input":126,"interpolation":"LINEAR","output":149},{"input":125,"interpolation":"STEP","output":84},{"input":125,"interpolation":"STEP","output":85},{"input":126,"interpolation":"LINEAR","output":150},{"input":125,"interpolation":"STEP","output":87},{"input":125,"interpolation":"STEP","output":88},{"input":126,"interpolation":"LINEAR","output":151},{"input":125,"interpolation":"STEP","output":90},{"input":125,"interpolation":"STEP","output":91},{"input":125,"interpolation":"STEP","output":92},{"input":125,"interpolation":"STEP","output":22},{"input":125,"interpolation":"STEP","output":93},{"input":125,"interpolation":"STEP","output":94},{"input":125,"interpolation":"STEP","output":68},{"input":125,"interpolation":"STEP","output":95},{"input":126,"interpolation":"LINEAR","output":152},{"input":125,"interpolation":"STEP","output":22},{"input":125,"interpolation":"STEP","output":97},{"input":125,"interpolation":"STEP","output":98},{"input":125,"interpolation":"STEP","output":99},{"input":125,"interpolation":"STEP","output":100},{"input":125,"interpolation":"STEP","output":101},{"input":125,"interpolation":"STEP","output":102},{"input":125,"interpolation":"STEP","output":103},{"input":126,"interpolation":"LINEAR","output":153},{"input":125,"interpolation":"STEP","output":105},{"input":125,"interpolation":"STEP","output":106},{"input":125,"interpolation":"STEP","output":107},{"input":125,"interpolation":"STEP","output":22},{"input":125,"interpolation":"STEP","output":108},{"input":125,"interpolation":"STEP","output":109},{"input":125,"interpolation":"STEP","output":22},{"input":126,"interpolation":"LINEAR","output":154},{"input":126,"interpolation":"LINEAR","output":155},{"input":125,"interpolation":"STEP","output":112},{"input":125,"interpolation":"STEP","output":113},{"input":125,"interpolation":"STEP","output":114},{"input":125,"interpolation":"STEP","output":115},{"input":126,"interpolation":"LINEAR","output":156},{"input":125,"interpolation":"STEP","output":117},{"input":125,"interpolation":"STEP","output":22},{"input":125,"interpolation":"STEP","output":118},{"input":125,"interpolation":"STEP","output":117},{"input":125,"interpolation":"STEP","output":22},{"input":125,"interpolation":"STEP","output":119},{"input":125,"interpolation":"STEP","output":120},{"input":125,"interpolation":"STEP","output":22},{"input":125,"interpolation":"STEP","output":121},{"input":125,"interpolation":"STEP","output":120},{"input":125,"interpolation":"STEP","output":22},{"input":126,"interpolation":"LINEAR","output":157},{"input":126,"interpolation":"LINEAR","output":158},{"input":125,"interpolation":"STEP","output":124}]},{"channels":[{"sampler":0,"target":{"node":39,"path":"translation"}},{"sampler":1,"target":{"node":39,"path":"rotation"}},{"sampler":2,"target":{"node":39,"path":"scale"}},{"sampler":3,"target":{"node":33,"path":"translation"}},{"sampler":4,"target":{"node":33,"path":"rotation"}},{"sampler":5,"target":{"node":33,"path":"scale"}},{"sampler":6,"target":{"node":5,"path":"translation"}},{"sampler":7,"target":{"node":5,"path":"rotation"}},{"sampler":8,"target":{"node":5,"path":"scale"}},{"sampler":9,"target":{"node":4,"path":"translation"}},{"sampler":10,"target":{"node":4,"path":"rotation"}},{"sampler":11,"target":{"node":4,"path":"scale"}},{"sampler":12,"target":{"node":3,"path":"translation"}},{"sampler":13,"target":{"node":3,"path":"rotation"}},{"sampler":14,"target":{"node":3,"path":"scale"}},{"sampler":15,"target":{"node":2,"path":"translation"}},{"sampler":16,"target":{"node":2,"path":"rotation"}},{"sampler":17,"target":{"node":2,"path":"scale"}},{"sampler":18,"target":{"node":0,"path":"translation"}},{"sampler":19,"target":{"node":0,"path":"rotation"}},{"sampler":20,"target":{"node":0,"path":"scale"}},{"sampler":21,"target":{"node":1,"path":"translation"}},{"sampler":22,"target":{"node":1,"path":"rotation"}},{"sampler":23,"target":{"node":1,"path":"scale"}},{"sampler":24,"target":{"node":6,"path":"translation"}},{"sampler":25,"target":{"node":6,"path":"rotation"}},{"sampler":26,"target":{"node":6,"path":"scale"}},{"sampler":27,"target":{"node":19,"path":"translation"}},{"sampler":28,"target":{"node":19,"path":"rotation"}},{"sampler":29,"target":{"node":19,"path":"scale"}},{"sampler":30,"target":{"node":18,"path":"translation"}},{"sampler":31,"target":{"node":18,"path":"rotation"}},{"sampler":32,"target":{"node":18,"path":"scale"}},{"sampler":33,"target":{"node":9,"path":"translation"}},{"sampler":34,"target":{"node":9,"path":"rotation"}},{"sampler":35,"target":{"node":9,"path":"scale"}},{"sampler":36,"target":{"node":8,"path":"translation"}},{"sampler":37,"target":{"node":8,"path":"rotation"}},{"sampler":38,"target":{"node":8,"path":"scale"}},{"sampler":39,"target":{"node":7,"path":"translation"}},{"sampler":40,"target":{"node":7,"path":"rotation"}},{"sampler":41,"target":{"node":7,"path":"scale"}},{"sampler":42,"target":{"node":12,"path":"translation"}},{"sampler":43,"target":{"node":12,"path":"rotation"}},{"sampler":44,"target":{"node":12,"path":"scale"}},{"sampler":45,"target":{"node":11,"path":"translation"}},{"sampler":46,"target":{"node":11,"path":"rotation"}},{"sampler":47,"target":{"node":11,"path":"scale"}},{"sampler":48,"target":{"node":10,"path":"translation"}},{"sampler":49,"target":{"node":10,"path":"rotation"}},{"sampler":50,"target":{"node":10,"path":"scale"}},{"sampler":51,"target":{"node":15,"path":"translation"}},{"sampler":52,"target":{"node":15,"path":"rotation"}},{"sampler":53,"target":{"node":15,"path":"scale"}},{"sampler":54,"target":{"node":14,"path":"translation"}},{"sampler":55,"target":{"node":14,"path":"rotation"}},{"sampler":56,"target":{"node":14,"path":"scale"}},{"sampler":57,"target":{"node":13,"path":"translation"}},{"sampler":58,"target":{"node":13,"path":"rotation"}},{"sampler":59,"target":{"node":13,"path":"scale"}},{"sampler":60,"target":{"node":17,"path":"translation"}},{"sampler":61,"target":{"node":17,"path":"rotation"}},{"sampler":62,"target":{"node":17,"path":"scale"}},{"sampler":63,"target":{"node":16,"path":"translation"}},{"sampler":64,"target":{"node":16,"path":"rotation"}},{"sampler":65,"target":{"node":16,"path":"scale"}},{"sampler":66,"target":{"node":32,"path":"translation"}},{"sampler":67,"target":{"node":32,"path":"rotation"}},{"sampler":68,"target":{"node":32,"path":"scale"}},{"sampler":69,"target":{"node":31,"path":"translation"}},{"sampler":70,"target":{"node":31,"path":"rotation"}},{"sampler":71,"target":{"node":31,"path":"scale"}},{"sampler":72,"target":{"node":22,"path":"translation"}},{"sampler":73,"target":{"node":22,"path":"rotation"}},{"sampler":74,"target":{"node":22,"path":"scale"}},{"sampler":75,"target":{"node":21,"path":"translation"}},{"sampler":76,"target":{"node":21,"path":"rotation"}},{"sampler":77,"target":{"node":21,"path":"scale"}},{"sampler":78,"target":{"node":20,"path":"translation"}},{"sampler":79,"target":{"node":20,"path":"rotation"}},{"sampler":80,"target":{"node":20,"path":"scale"}},{"sampler":81,"target":{"node":25,"path":"translation"}},{"sampler":82,"target":{"node":25,"path":"rotation"}},{"sampler":83,"target":{"node":25,"path":"scale"}},{"sampler":84,"target":{"node":24,"path":"translation"}},{"sampler":85,"target":{"node":24,"path":"rotation"}},{"sampler":86,"target":{"node":24,"path":"scale"}},{"sampler":87,"target":{"node":23,"path":"translation"}},{"sampler":88,"target":{"node":23,"path":"rotation"}},{"sampler":89,"target":{"node":23,"path":"scale"}},{"sampler":90,"target":{"node":28,"path":"translation"}},{"sampler":91,"target":{"node":28,"path":"rotation"}},{"sampler":92,"target":{"node":28,"path":"scale"}},{"sampler":93,"target":{"node":27,"path":"translation"}},{"sampler":94,"target":{"node":27,"path":"rotation"}},{"sampler":95,"target":{"node":27,"path":"scale"}},{"sampler":96,"target":{"node":26,"path":"translation"}},{"sampler":97,"target":{"node":26,"path":"rotation"}},{"sampler":98,"target":{"node":26,"path":"scale"}},{"sampler":99,"target":{"node":30,"path":"translation"}},{"sampler":100,"target":{"node":30,"path":"rotation"}},{"sampler":101,"target":{"node":30,"path":"scale"}},{"sampler":102,"target":{"node":29,"path":"translation"}},{"sampler":103,"target":{"node":29,"path":"rotation"}},{"sampler":104,"target":{"node":29,"path":"scale"}},{"sampler":105,"target":{"node":34,"path":"translation"}},{"sampler":106,"target":{"node":34,"path":"rotation"}},{"sampler":107,"target":{"node":34,"path":"scale"}},{"sampler":108,"target":{"node":35,"path":"translation"}},{"sampler":109,"target":{"node":35,"path":"rotation"}},{"sampler":110,"target":{"node":35,"path":"scale"}},{"sampler":111,"target":{"node":36,"path":"translation"}},{"sampler":112,"target":{"node":36,"path":"rotation"}},{"sampler":113,"target":{"node":36,"path":"scale"}},{"sampler":114,"target":{"node":37,"path":"translation"}},{"sampler":115,"target":{"node":37,"path":"rotation"}},{"sampler":116,"target":{"node":37,"path":"scale"}},{"sampler":117,"target":{"node":38,"path":"translation"}},{"sampler":118,"target":{"node":38,"path":"rotation"}},{"sampler":119,"target":{"node":38,"path":"scale"}}],"name":"walk","samplers":[{"input":19,"interpolation":"STEP","output":20},{"input":19,"interpolation":"STEP","output":21},{"input":19,"interpolation":"STEP","output":22},{"input":19,"interpolation":"STEP","output":159},{"input":19,"interpolation":"STEP","output":128},{"input":19,"interpolation":"STEP","output":26},{"input":19,"interpolation":"STEP","output":27},{"input":23,"interpolation":"LINEAR","output":160},{"input":19,"interpolation":"STEP","output":29},{"input":19,"interpolation":"STEP","output":30},{"input":23,"interpolation":"LINEAR","output":161},{"input":19,"interpolation":"STEP","output":32},{"input":19,"interpolation":"STEP","output":33},{"input":23,"interpolation":"LINEAR","output":162},{"input":19,"interpolation":"STEP","output":35},{"input":19,"interpolation":"STEP","output":36},{"input":23,"interpolation":"LINEAR","output":163},{"input":19,"interpolation":"STEP","output":22},{"input":19,"interpolation":"STEP","output":38},{"input":19,"interpolation":"STEP","output":39},{"input":19,"interpolation":"STEP","output":40},{"input":19,"interpolation":"STEP","output":41},{"input":19,"interpolation":"STEP","output":42},{"input":19,"interpolation":"STEP","output":43},{"input":19,"interpolation":"STEP","output":44},{"input":23,"interpolation":"LINEAR","output":164},{"input":19,"interpolation":"STEP","output":22},{"input":19,"interpolation":"STEP","output":46},{"input":23,"interpolation":"LINEAR","output":165},{"input":19,"interpolation":"STEP","output":166},{"input":19,"interpolation":"STEP","output":167},{"input":23,"interpolation":"LINEAR","output":168},{"input":19,"interpolation":"STEP","output":169},{"input":19,"interpolation":"STEP","output":170},{"input":23,"interpolation":"LINEAR","output":171},{"input":19,"interpolation":"STEP","output":172},{"input":19,"interpolation":"STEP","output":173},{"input":23,"interpolation":"LINEAR","output":174},{"input":19,"interpolation":"STEP","output":175},{"input":19,"interpolation":"STEP","output":176},{"input":23,"interpolation":"LINEAR","output":177},{"input":19,"interpolation":"STEP","output":81},{"input":19,"interpolation":"STEP","output":178},{"input":23,"interpolation":"LINEAR","output":179},{"input":19,"interpolation":"STEP","output":180},{"input":19,"interpolation":"STEP","output":181},{"input":23,"interpolation":"LINEAR","output":182},{"input":19,"interpolation":"STEP","output":183},{"input":19,"interpolation":"STEP","output":184},{"input":23,"interpolation":"LINEAR","output":185},{"input":19,"interpolation":"STEP","output":57},{"input":19,"interpolation":"STEP","output":186},{"input":23,"interpolation":"LINEAR","output":187},{"input":19,"interpolation":"STEP","output":188},{"input":19,"interpolation":"STEP","output":189},{"input":23,"interpolation":"LINEAR","output":190},{"input":19,"interpolation":"STEP","output":191},{"input":19,"interpolation":"STEP","output":192},{"input":23,"interpolation":"LINEAR","output":193},{"input":19,"interpolation":"STEP","output":194},{"input":23,"interpolation":"LINEAR","output":195},{"input":23,"interpolation":"LINEAR","output":196},{"input":19,"interpolation":"STEP","output":197},{"input":19,"interpolation":"STEP","output":198},{"input":23,"interpolation":"LINEAR","output":199},{"input":19,"interpolation":"STEP","output":200},{"input":19,"interpolation":"STEP","output":82},{"input":23,"interpolation":"LINEAR","output":201},{"input":19,"interpolation":"STEP","output":202},{"input":19,"interpolation":"STEP","output":203},{"input":23,"interpolation":"LINEAR","output":204},{"input":19,"interpolation":"STEP","output":188},{"input":19,"interpolation":"STEP","output":205},{"input":23,"interpolation":"LINEAR","output":206},{"input":19,"interpolation":"STEP","output":35},{"input":19,"interpolation":"STEP","output":207},{"input":23,"interpolation":"LINEAR","output":208},{"input":19,"interpolation":"STEP","output":200},{"input":19,"interpolation":"STEP","output":209},{"input":23,"interpolation":"LINEAR","output":210},{"input":19,"interpolation":"STEP","output":200},{"input":19,"interpolation":"STEP","output":211},{"input":23,"interpolation":"LINEAR","output":212},{"input":19,"interpolation":"STEP","output":213},{"input":19,"interpolation":"STEP","output":214},{"input":23,"interpolation":"LINEAR","output":215},{"input":19,"interpolation":"STEP","output":216},{"input":19,"interpolation":"STEP","output":217},{"input":23,"interpolation":"LINEAR","output":218},{"input":19,"interpolation":"STEP","output":219},{"input":19,"interpolation":"STEP","output":220},{"input":23,"interpolation":"LINEAR","output":221},{"input":19,"interpolation":"STEP","output":222},{"input":19,"interpolation":"STEP","output":223},{"input":23,"interpolation":"LINEAR","output":224},{"input":19,"interpolation":"STEP","output":78},{"input":19,"interpolation":"STEP","output":225},{"input":23,"interpolation":"LINEAR","output":226},{"input":19,"interpolation":"STEP","output":227},{"input":23,"interpolation":"LINEAR","output":228},{"input":23,"interpolation":"LINEAR","output":229},{"input":19,"interpolation":"STEP","output":230},{"input":19,"interpolation":"STEP","output":231},{"input":23,"interpolation":"LINEAR","output":232},{"input":19,"interpolation":"STEP","output":62},{"input":23,"interpolation":"LINEAR","output":233},{"input":19,"interpolation":"STEP","output":117},{"input":19,"interpolation":"STEP","output":22},{"input":23,"interpolation":"LINEAR","output":234},{"input":19,"interpolation":"STEP","output":117},{"input":19,"interpolation":"STEP","output":22},{"input":19,"interpolation":"STEP","output":235},{"input":19,"interpolation":"STEP","output":120},{"input":19,"interpolation":"STEP","output":22},{"input":19,"interpolation":"STEP","output":236},{"input":19,"interpolation":"STEP","output":120},{"input":19,"interpolation":"STEP","output":22},{"input":23,"interpolation":"LINEAR","output":237},{"input":19,"interpolation":"STEP","output":238},{"input":19,"interpolation":"STEP","output":124}]}],"materials":[{"doubleSided":true,"name":"Hen feathers","normalTexture":{"index":0,"scale":0.44999998807907104},"pbrMetallicRoughness":{"baseColorTexture":{"index":1},"metallicFactor":0,"roughnessFactor":0.8299999833106995}},{"doubleSided":true,"name":"Hen Material.001","pbrMetallicRoughness":{"baseColorFactor":[0.019999999552965164,0.014999999664723873,0.012000000104308128,1],"metallicFactor":0,"roughnessFactor":0.800000011920929}}],"meshes":[{"name":"Cylinder.001","primitives":[{"attributes":{"POSITION":0,"NORMAL":1,"TEXCOORD_0":2,"TEXCOORD_1":3,"TEXCOORD_2":4,"TEXCOORD_3":5,"TEXCOORD_4":6,"TEXCOORD_5":7,"TEXCOORD_6":8,"JOINTS_0":9,"WEIGHTS_0":10},"indices":11,"material":0}]},{"name":"Sphere.001","primitives":[{"attributes":{"POSITION":13,"NORMAL":14,"TEXCOORD_0":15,"JOINTS_0":16,"WEIGHTS_0":17},"indices":18,"material":1}]}],"textures":[{"sampler":0,"source":0},{"sampler":0,"source":1}],"images":[{"name":"ChickenNorm","uri":"ChickenNorm.webp"},{"name":"UV-Texture","uri":"UV-Texture.webp"}],"skins":[{"inverseBindMatrices":12,"joints":[39,33,5,4,3,2,0,1,6,19,18,9,8,7,12,11,10,15,14,13,17,16,32,31,22,21,20,25,24,23,28,27,26,30,29,34,35,36,37,38],"name":"Armature"}],"accessors":[{"bufferView":0,"componentType":5126,"count":1745,"max":[3.290316343307495,12.63961410522461,4.458044052124023],"min":[-3.290316343307495,-0.016399860382080078,-4.6576642990112305],"type":"VEC3"},{"bufferView":1,"componentType":5126,"count":1745,"type":"VEC3"},{"bufferView":2,"componentType":5126,"count":1745,"type":"VEC2"},{"bufferView":3,"componentType":5126,"count":1745,"type":"VEC2"},{"bufferView":4,"componentType":5126,"count":1745,"type":"VEC2"},{"bufferView":5,"componentType":5126,"count":1745,"type":"VEC2"},{"bufferView":6,"componentType":5126,"count":1745,"type":"VEC2"},{"bufferView":7,"componentType":5126,"count":1745,"type":"VEC2"},{"bufferView":8,"componentType":5126,"count":1745,"type":"VEC2"},{"bufferView":9,"componentType":5121,"count":1745,"type":"VEC4"},{"bufferView":10,"componentType":5126,"count":1745,"type":"VEC4"},{"bufferView":11,"componentType":5123,"count":8028,"type":"SCALAR"},{"bufferView":12,"componentType":5126,"count":40,"type":"MAT4"},{"bufferView":13,"componentType":5126,"count":34,"max":[0.5573676824569702,12.05484390258789,3.229517698287964],"min":[-0.5573675632476807,11.662403106689453,2.8401081562042236],"type":"VEC3"},{"bufferView":14,"componentType":5126,"count":34,"type":"VEC3"},{"bufferView":15,"componentType":5126,"count":34,"type":"VEC2"},{"bufferView":16,"componentType":5121,"count":34,"type":"VEC4"},{"bufferView":17,"componentType":5126,"count":34,"type":"VEC4"},{"bufferView":18,"componentType":5123,"count":144,"type":"SCALAR"},{"bufferView":19,"componentType":5126,"count":2,"max":[2.2083333333333335],"min":[0],"type":"SCALAR"},{"bufferView":20,"componentType":5126,"count":2,"type":"VEC3"},{"bufferView":21,"componentType":5126,"count":2,"type":"VEC4"},{"bufferView":22,"componentType":5126,"count":2,"type":"VEC3"},{"bufferView":23,"componentType":5126,"count":54,"max":[2.2083333333333335],"min":[0],"type":"SCALAR"},{"bufferView":24,"componentType":5126,"count":54,"type":"VEC3"},{"bufferView":25,"componentType":5126,"count":54,"type":"VEC4"},{"bufferView":26,"componentType":5126,"count":2,"type":"VEC3"},{"bufferView":27,"componentType":5126,"count":2,"type":"VEC3"},{"bufferView":28,"componentType":5126,"count":54,"type":"VEC4"},{"bufferView":29,"componentType":5126,"count":2,"type":"VEC3"},{"bufferView":30,"componentType":5126,"count":2,"type":"VEC3"},{"bufferView":31,"componentType":5126,"count":54,"type":"VEC4"},{"bufferView":32,"componentType":5126,"count":2,"type":"VEC3"},{"bufferView":33,"componentType":5126,"count":2,"type":"VEC3"},{"bufferView":34,"componentType":5126,"count":54,"type":"VEC4"},{"bufferView":35,"componentType":5126,"count":2,"type":"VEC3"},{"bufferView":36,"componentType":5126,"count":2,"type":"VEC3"},{"bufferView":37,"componentType":5126,"count":54,"type":"VEC4"},{"bufferView":38,"componentType":5126,"count":2,"type":"VEC3"},{"bufferView":39,"componentType":5126,"count":2,"type":"VEC4"},{"bufferView":40,"componentType":5126,"count":2,"type":"VEC3"},{"bufferView":41,"componentType":5126,"count":2,"type":"VEC3"},{"bufferView":42,"componentType":5126,"count":2,"type":"VEC4"},{"bufferView":43,"componentType":5126,"count":2,"type":"VEC3"},{"bufferView":44,"componentType":5126,"count":2,"type":"VEC3"},{"bufferView":45,"componentType":5126,"count":2,"type":"VEC4"},{"bufferView":46,"componentType":5126,"count":2,"type":"VEC3"},{"bufferView":47,"componentType":5126,"count":54,"type":"VEC4"},{"bufferView":48,"componentType":5126,"count":2,"type":"VEC3"},{"bufferView":49,"componentType":5126,"count":2,"type":"VEC3"},{"bufferView":50,"componentType":5126,"count":54,"type":"VEC4"},{"bufferView":51,"componentType":5126,"count":2,"type":"VEC3"},{"bufferView":52,"componentType":5126,"count":2,"type":"VEC3"},{"bufferView":53,"componentType":5126,"count":2,"type":"VEC4"},{"bufferView":54,"componentType":5126,"count":2,"type":"VEC3"},{"bufferView":55,"componentType":5126,"count":2,"type":"VEC3"},{"bufferView":56,"componentType":5126,"count":2,"type":"VEC4"},{"bufferView":57,"componentType":5126,"count":2,"type":"VEC3"},{"bufferView":58,"componentType":5126,"count":2,"type":"VEC3"},{"bufferView":59,"componentType":5126,"count":2,"type":"VEC4"},{"bufferView":60,"componentType":5126,"count":2,"type":"VEC3"},{"bufferView":61,"componentType":5126,"count":2,"type":"VEC4"},{"bufferView":62,"componentType":5126,"count":2,"type":"VEC3"},{"bufferView":63,"componentType":5126,"count":2,"type":"VEC3"},{"bufferView":64,"componentType":5126,"count":2,"type":"VEC4"},{"bufferView":65,"componentType":5126,"count":2,"type":"VEC3"},{"bufferView":66,"componentType":5126,"count":2,"type":"VEC3"},{"bufferView":67,"componentType":5126,"count":2,"type":"VEC4"},{"bufferView":68,"componentType":5126,"count":2,"type":"VEC3"},{"bufferView":69,"componentType":5126,"count":2,"type":"VEC3"},{"bufferView":70,"componentType":5126,"count":2,"type":"VEC4"},{"bufferView":71,"componentType":5126,"count":2,"type":"VEC3"},{"bufferView":72,"componentType":5126,"count":2,"type":"VEC4"},{"bufferView":73,"componentType":5126,"count":2,"type":"VEC3"},{"bufferView":74,"componentType":5126,"count":2,"type":"VEC3"},{"bufferView":75,"componentType":5126,"count":2,"type":"VEC4"},{"bufferView":76,"componentType":5126,"count":2,"type":"VEC3"},{"bufferView":77,"componentType":5126,"count":2,"type":"VEC4"},{"bufferView":78,"componentType":5126,"count":2,"type":"VEC3"},{"bufferView":79,"componentType":5126,"count":2,"type":"VEC3"},{"bufferView":80,"componentType":5126,"count":2,"type":"VEC4"},{"bufferView":81,"componentType":5126,"count":2,"type":"VEC3"},{"bufferView":82,"componentType":5126,"count":2,"type":"VEC3"},{"bufferView":83,"componentType":5126,"count":54,"type":"VEC4"},{"bufferView":84,"componentType":5126,"count":2,"type":"VEC3"},{"bufferView":85,"componentType":5126,"count":2,"type":"VEC3"},{"bufferView":86,"componentType":5126,"count":54,"type":"VEC4"},{"bufferView":87,"componentType":5126,"count":2,"type":"VEC3"},{"bufferView":88,"componentType":5126,"count":2,"type":"VEC3"},{"bufferView":89,"componentType":5126,"count":2,"type":"VEC4"},{"bufferView":90,"componentType":5126,"count":2,"type":"VEC3"},{"bufferView":91,"componentType":5126,"count":2,"type":"VEC3"},{"bufferView":92,"componentType":5126,"count":2,"type":"VEC4"},{"bufferView":93,"componentType":5126,"count":2,"type":"VEC3"},{"bufferView":94,"componentType":5126,"count":2,"type":"VEC4"},{"bufferView":95,"componentType":5126,"count":2,"type":"VEC3"},{"bufferView":96,"componentType":5126,"count":2,"type":"VEC4"},{"bufferView":97,"componentType":5126,"count":2,"type":"VEC3"},{"bufferView":98,"componentType":5126,"count":2,"type":"VEC4"},{"bufferView":99,"componentType":5126,"count":2,"type":"VEC3"},{"bufferView":100,"componentType":5126,"count":2,"type":"VEC3"},{"bufferView":101,"componentType":5126,"count":2,"type":"VEC4"},{"bufferView":102,"componentType":5126,"count":2,"type":"VEC3"},{"bufferView":103,"componentType":5126,"count":2,"type":"VEC3"},{"bufferView":104,"componentType":5126,"count":2,"type":"VEC4"},{"bufferView":105,"componentType":5126,"count":2,"type":"VEC3"},{"bufferView":106,"componentType":5126,"count":2,"type":"VEC3"},{"bufferView":107,"componentType":5126,"count":2,"type":"VEC4"},{"bufferView":108,"componentType":5126,"count":2,"type":"VEC3"},{"bufferView":109,"componentType":5126,"count":2,"type":"VEC4"},{"bufferView":110,"componentType":5126,"count":2,"type":"VEC3"},{"bufferView":111,"componentType":5126,"count":2,"type":"VEC4"},{"bufferView":112,"componentType":5126,"count":2,"type":"VEC3"},{"bufferView":113,"componentType":5126,"count":2,"type":"VEC3"},{"bufferView":114,"componentType":5126,"count":2,"type":"VEC4"},{"bufferView":115,"componentType":5126,"count":2,"type":"VEC3"},{"bufferView":116,"componentType":5126,"count":2,"type":"VEC3"},{"bufferView":117,"componentType":5126,"count":2,"type":"VEC4"},{"bufferView":118,"componentType":5126,"count":2,"type":"VEC3"},{"bufferView":119,"componentType":5126,"count":2,"type":"VEC3"},{"bufferView":120,"componentType":5126,"count":2,"type":"VEC4"},{"bufferView":121,"componentType":5126,"count":2,"type":"VEC3"},{"bufferView":122,"componentType":5126,"count":54,"type":"VEC3"},{"bufferView":123,"componentType":5126,"count":54,"type":"VEC4"},{"bufferView":124,"componentType":5126,"count":2,"type":"VEC3"},{"bufferView":125,"componentType":5126,"count":2,"max":[3.0833333333333335],"min":[0],"type":"SCALAR"},{"bufferView":126,"componentType":5126,"count":75,"max":[3.0833333333333335],"min":[0],"type":"SCALAR"},{"bufferView":127,"componentType":5126,"count":75,"type":"VEC3"},{"bufferView":128,"componentType":5126,"count":2,"type":"VEC4"},{"bufferView":129,"componentType":5126,"count":75,"type":"VEC4"},{"bufferView":130,"componentType":5126,"count":75,"type":"VEC4"},{"bufferView":131,"componentType":5126,"count":75,"type":"VEC4"},{"bufferView":132,"componentType":5126,"count":75,"type":"VEC4"},{"bufferView":133,"componentType":5126,"count":75,"type":"VEC4"},{"bufferView":134,"componentType":5126,"count":75,"type":"VEC4"},{"bufferView":135,"componentType":5126,"count":75,"type":"VEC4"},{"bufferView":136,"componentType":5126,"count":75,"type":"VEC4"},{"bufferView":137,"componentType":5126,"count":75,"type":"VEC4"},{"bufferView":138,"componentType":5126,"count":75,"type":"VEC4"},{"bufferView":139,"componentType":5126,"count":75,"type":"VEC4"},{"bufferView":140,"componentType":5126,"count":75,"type":"VEC4"},{"bufferView":141,"componentType":5126,"count":75,"type":"VEC4"},{"bufferView":142,"componentType":5126,"count":75,"type":"VEC4"},{"bufferView":143,"componentType":5126,"count":75,"type":"VEC4"},{"bufferView":144,"componentType":5126,"count":75,"type":"VEC4"},{"bufferView":145,"componentType":5126,"count":75,"type":"VEC4"},{"bufferView":146,"componentType":5126,"count":75,"type":"VEC3"},{"bufferView":147,"componentType":5126,"count":75,"type":"VEC4"},{"bufferView":148,"componentType":5126,"count":75,"type":"VEC4"},{"bufferView":149,"componentType":5126,"count":75,"type":"VEC4"},{"bufferView":150,"componentType":5126,"count":75,"type":"VEC4"},{"bufferView":151,"componentType":5126,"count":75,"type":"VEC4"},{"bufferView":152,"componentType":5126,"count":75,"type":"VEC4"},{"bufferView":153,"componentType":5126,"count":75,"type":"VEC4"},{"bufferView":154,"componentType":5126,"count":75,"type":"VEC3"},{"bufferView":155,"componentType":5126,"count":75,"type":"VEC4"},{"bufferView":156,"componentType":5126,"count":75,"type":"VEC3"},{"bufferView":157,"componentType":5126,"count":75,"type":"VEC3"},{"bufferView":158,"componentType":5126,"count":75,"type":"VEC4"},{"bufferView":159,"componentType":5126,"count":2,"type":"VEC3"},{"bufferView":160,"componentType":5126,"count":54,"type":"VEC4"},{"bufferView":161,"componentType":5126,"count":54,"type":"VEC4"},{"bufferView":162,"componentType":5126,"count":54,"type":"VEC4"},{"bufferView":163,"componentType":5126,"count":54,"type":"VEC4"},{"bufferView":164,"componentType":5126,"count":54,"type":"VEC4"},{"bufferView":165,"componentType":5126,"count":54,"type":"VEC4"},{"bufferView":166,"componentType":5126,"count":2,"type":"VEC3"},{"bufferView":167,"componentType":5126,"count":2,"type":"VEC3"},{"bufferView":168,"componentType":5126,"count":54,"type":"VEC4"},{"bufferView":169,"componentType":5126,"count":2,"type":"VEC3"},{"bufferView":170,"componentType":5126,"count":2,"type":"VEC3"},{"bufferView":171,"componentType":5126,"count":54,"type":"VEC4"},{"bufferView":172,"componentType":5126,"count":2,"type":"VEC3"},{"bufferView":173,"componentType":5126,"count":2,"type":"VEC3"},{"bufferView":174,"componentType":5126,"count":54,"type":"VEC4"},{"bufferView":175,"componentType":5126,"count":2,"type":"VEC3"},{"bufferView":176,"componentType":5126,"count":2,"type":"VEC3"},{"bufferView":177,"componentType":5126,"count":54,"type":"VEC4"},{"bufferView":178,"componentType":5126,"count":2,"type":"VEC3"},{"bufferView":179,"componentType":5126,"count":54,"type":"VEC4"},{"bufferView":180,"componentType":5126,"count":2,"type":"VEC3"},{"bufferView":181,"componentType":5126,"count":2,"type":"VEC3"},{"bufferView":182,"componentType":5126,"count":54,"type":"VEC4"},{"bufferView":183,"componentType":5126,"count":2,"type":"VEC3"},{"bufferView":184,"componentType":5126,"count":2,"type":"VEC3"},{"bufferView":185,"componentType":5126,"count":54,"type":"VEC4"},{"bufferView":186,"componentType":5126,"count":2,"type":"VEC3"},{"bufferView":187,"componentType":5126,"count":54,"type":"VEC4"},{"bufferView":188,"componentType":5126,"count":2,"type":"VEC3"},{"bufferView":189,"componentType":5126,"count":2,"type":"VEC3"},{"bufferView":190,"componentType":5126,"count":54,"type":"VEC4"},{"bufferView":191,"componentType":5126,"count":2,"type":"VEC3"},{"bufferView":192,"componentType":5126,"count":2,"type":"VEC3"},{"bufferView":193,"componentType":5126,"count":54,"type":"VEC4"},{"bufferView":194,"componentType":5126,"count":2,"type":"VEC3"},{"bufferView":195,"componentType":5126,"count":54,"type":"VEC3"},{"bufferView":196,"componentType":5126,"count":54,"type":"VEC4"},{"bufferView":197,"componentType":5126,"count":2,"type":"VEC3"},{"bufferView":198,"componentType":5126,"count":2,"type":"VEC3"},{"bufferView":199,"componentType":5126,"count":54,"type":"VEC4"},{"bufferView":200,"componentType":5126,"count":2,"type":"VEC3"},{"bufferView":201,"componentType":5126,"count":54,"type":"VEC4"},{"bufferView":202,"componentType":5126,"count":2,"type":"VEC3"},{"bufferView":203,"componentType":5126,"count":2,"type":"VEC3"},{"bufferView":204,"componentType":5126,"count":54,"type":"VEC4"},{"bufferView":205,"componentType":5126,"count":2,"type":"VEC3"},{"bufferView":206,"componentType":5126,"count":54,"type":"VEC4"},{"bufferView":207,"componentType":5126,"count":2,"type":"VEC3"},{"bufferView":208,"componentType":5126,"count":54,"type":"VEC4"},{"bufferView":209,"componentType":5126,"count":2,"type":"VEC3"},{"bufferView":210,"componentType":5126,"count":54,"type":"VEC4"},{"bufferView":211,"componentType":5126,"count":2,"type":"VEC3"},{"bufferView":212,"componentType":5126,"count":54,"type":"VEC4"},{"bufferView":213,"componentType":5126,"count":2,"type":"VEC3"},{"bufferView":214,"componentType":5126,"count":2,"type":"VEC3"},{"bufferView":215,"componentType":5126,"count":54,"type":"VEC4"},{"bufferView":216,"componentType":5126,"count":2,"type":"VEC3"},{"bufferView":217,"componentType":5126,"count":2,"type":"VEC3"},{"bufferView":218,"componentType":5126,"count":54,"type":"VEC4"},{"bufferView":219,"componentType":5126,"count":2,"type":"VEC3"},{"bufferView":220,"componentType":5126,"count":2,"type":"VEC3"},{"bufferView":221,"componentType":5126,"count":54,"type":"VEC4"},{"bufferView":222,"componentType":5126,"count":2,"type":"VEC3"},{"bufferView":223,"componentType":5126,"count":2,"type":"VEC3"},{"bufferView":224,"componentType":5126,"count":54,"type":"VEC4"},{"bufferView":225,"componentType":5126,"count":2,"type":"VEC3"},{"bufferView":226,"componentType":5126,"count":54,"type":"VEC4"},{"bufferView":227,"componentType":5126,"count":2,"type":"VEC3"},{"bufferView":228,"componentType":5126,"count":54,"type":"VEC3"},{"bufferView":229,"componentType":5126,"count":54,"type":"VEC4"},{"bufferView":230,"componentType":5126,"count":2,"type":"VEC3"},{"bufferView":231,"componentType":5126,"count":2,"type":"VEC3"},{"bufferView":232,"componentType":5126,"count":54,"type":"VEC4"},{"bufferView":233,"componentType":5126,"count":54,"type":"VEC3"},{"bufferView":234,"componentType":5126,"count":54,"type":"VEC3"},{"bufferView":235,"componentType":5126,"count":2,"type":"VEC3"},{"bufferView":236,"componentType":5126,"count":2,"type":"VEC3"},{"bufferView":237,"componentType":5126,"count":54,"type":"VEC3"},{"bufferView":238,"componentType":5126,"count":2,"type":"VEC4"}],"bufferViews":[{"buffer":0,"byteLength":20940,"byteOffset":0,"target":34962},{"buffer":0,"byteLength":20940,"byteOffset":20940,"target":34962},{"buffer":0,"byteLength":13960,"byteOffset":41880,"target":34962},{"buffer":0,"byteLength":13960,"byteOffset":55840,"target":34962},{"buffer":0,"byteLength":13960,"byteOffset":69800,"target":34962},{"buffer":0,"byteLength":13960,"byteOffset":83760,"target":34962},{"buffer":0,"byteLength":13960,"byteOffset":97720,"target":34962},{"buffer":0,"byteLength":13960,"byteOffset":111680,"target":34962},{"buffer":0,"byteLength":13960,"byteOffset":125640,"target":34962},{"buffer":0,"byteLength":6980,"byteOffset":139600,"target":34962},{"buffer":0,"byteLength":27920,"byteOffset":146580,"target":34962},{"buffer":0,"byteLength":16056,"byteOffset":174500,"target":34963},{"buffer":0,"byteLength":2560,"byteOffset":190556},{"buffer":0,"byteLength":408,"byteOffset":193116,"target":34962},{"buffer":0,"byteLength":408,"byteOffset":193524,"target":34962},{"buffer":0,"byteLength":272,"byteOffset":193932,"target":34962},{"buffer":0,"byteLength":136,"byteOffset":194204,"target":34962},{"buffer":0,"byteLength":544,"byteOffset":194340,"target":34962},{"buffer":0,"byteLength":288,"byteOffset":194884,"target":34963},{"buffer":0,"byteLength":8,"byteOffset":195172},{"buffer":0,"byteLength":24,"byteOffset":195180},{"buffer":0,"byteLength":32,"byteOffset":195204},{"buffer":0,"byteLength":24,"byteOffset":195236},{"buffer":0,"byteLength":216,"byteOffset":195260},{"buffer":0,"byteLength":648,"byteOffset":195476},{"buffer":0,"byteLength":864,"byteOffset":196124},{"buffer":0,"byteLength":24,"byteOffset":196988},{"buffer":0,"byteLength":24,"byteOffset":197012},{"buffer":0,"byteLength":864,"byteOffset":197036},{"buffer":0,"byteLength":24,"byteOffset":197900},{"buffer":0,"byteLength":24,"byteOffset":197924},{"buffer":0,"byteLength":864,"byteOffset":197948},{"buffer":0,"byteLength":24,"byteOffset":198812},{"buffer":0,"byteLength":24,"byteOffset":198836},{"buffer":0,"byteLength":864,"byteOffset":198860},{"buffer":0,"byteLength":24,"byteOffset":199724},{"buffer":0,"byteLength":24,"byteOffset":199748},{"buffer":0,"byteLength":864,"byteOffset":199772},{"buffer":0,"byteLength":24,"byteOffset":200636},{"buffer":0,"byteLength":32,"byteOffset":200660},{"buffer":0,"byteLength":24,"byteOffset":200692},{"buffer":0,"byteLength":24,"byteOffset":200716},{"buffer":0,"byteLength":32,"byteOffset":200740},{"buffer":0,"byteLength":24,"byteOffset":200772},{"buffer":0,"byteLength":24,"byteOffset":200796},{"buffer":0,"byteLength":32,"byteOffset":200820},{"buffer":0,"byteLength":24,"byteOffset":200852},{"buffer":0,"byteLength":864,"byteOffset":200876},{"buffer":0,"byteLength":24,"byteOffset":201740},{"buffer":0,"byteLength":24,"byteOffset":201764},{"buffer":0,"byteLength":864,"byteOffset":201788},{"buffer":0,"byteLength":24,"byteOffset":202652},{"buffer":0,"byteLength":24,"byteOffset":202676},{"buffer":0,"byteLength":32,"byteOffset":202700},{"buffer":0,"byteLength":24,"byteOffset":202732},{"buffer":0,"byteLength":24,"byteOffset":202756},{"buffer":0,"byteLength":32,"byteOffset":202780},{"buffer":0,"byteLength":24,"byteOffset":202812},{"buffer":0,"byteLength":24,"byteOffset":202836},{"buffer":0,"byteLength":32,"byteOffset":202860},{"buffer":0,"byteLength":24,"byteOffset":202892},{"buffer":0,"byteLength":32,"byteOffset":202916},{"buffer":0,"byteLength":24,"byteOffset":202948},{"buffer":0,"byteLength":24,"byteOffset":202972},{"buffer":0,"byteLength":32,"byteOffset":202996},{"buffer":0,"byteLength":24,"byteOffset":203028},{"buffer":0,"byteLength":24,"byteOffset":203052},{"buffer":0,"byteLength":32,"byteOffset":203076},{"buffer":0,"byteLength":24,"byteOffset":203108},{"buffer":0,"byteLength":24,"byteOffset":203132},{"buffer":0,"byteLength":32,"byteOffset":203156},{"buffer":0,"byteLength":24,"byteOffset":203188},{"buffer":0,"byteLength":32,"byteOffset":203212},{"buffer":0,"byteLength":24,"byteOffset":203244},{"buffer":0,"byteLength":24,"byteOffset":203268},{"buffer":0,"byteLength":32,"byteOffset":203292},{"buffer":0,"byteLength":24,"byteOffset":203324},{"buffer":0,"byteLength":32,"byteOffset":203348},{"buffer":0,"byteLength":24,"byteOffset":203380},{"buffer":0,"byteLength":24,"byteOffset":203404},{"buffer":0,"byteLength":32,"byteOffset":203428},{"buffer":0,"byteLength":24,"byteOffset":203460},{"buffer":0,"byteLength":24,"byteOffset":203484},{"buffer":0,"byteLength":864,"byteOffset":203508},{"buffer":0,"byteLength":24,"byteOffset":204372},{"buffer":0,"byteLength":24,"byteOffset":204396},{"buffer":0,"byteLength":864,"byteOffset":204420},{"buffer":0,"byteLength":24,"byteOffset":205284},{"buffer":0,"byteLength":24,"byteOffset":205308},{"buffer":0,"byteLength":32,"byteOffset":205332},{"buffer":0,"byteLength":24,"byteOffset":205364},{"buffer":0,"byteLength":24,"byteOffset":205388},{"buffer":0,"byteLength":32,"byteOffset":205412},{"buffer":0,"byteLength":24,"byteOffset":205444},{"buffer":0,"byteLength":32,"byteOffset":205468},{"buffer":0,"byteLength":24,"byteOffset":205500},{"buffer":0,"byteLength":32,"byteOffset":205524},{"buffer":0,"byteLength":24,"byteOffset":205556},{"buffer":0,"byteLength":32,"byteOffset":205580},{"buffer":0,"byteLength":24,"byteOffset":205612},{"buffer":0,"byteLength":24,"byteOffset":205636},{"buffer":0,"byteLength":32,"byteOffset":205660},{"buffer":0,"byteLength":24,"byteOffset":205692},{"buffer":0,"byteLength":24,"byteOffset":205716},{"buffer":0,"byteLength":32,"byteOffset":205740},{"buffer":0,"byteLength":24,"byteOffset":205772},{"buffer":0,"byteLength":24,"byteOffset":205796},{"buffer":0,"byteLength":32,"byteOffset":205820},{"buffer":0,"byteLength":24,"byteOffset":205852},{"buffer":0,"byteLength":32,"byteOffset":205876},{"buffer":0,"byteLength":24,"byteOffset":205908},{"buffer":0,"byteLength":32,"byteOffset":205932},{"buffer":0,"byteLength":24,"byteOffset":205964},{"buffer":0,"byteLength":24,"byteOffset":205988},{"buffer":0,"byteLength":32,"byteOffset":206012},{"buffer":0,"byteLength":24,"byteOffset":206044},{"buffer":0,"byteLength":24,"byteOffset":206068},{"buffer":0,"byteLength":32,"byteOffset":206092},{"buffer":0,"byteLength":24,"byteOffset":206124},{"buffer":0,"byteLength":24,"byteOffset":206148},{"buffer":0,"byteLength":32,"byteOffset":206172},{"buffer":0,"byteLength":24,"byteOffset":206204},{"buffer":0,"byteLength":648,"byteOffset":206228},{"buffer":0,"byteLength":864,"byteOffset":206876},{"buffer":0,"byteLength":24,"byteOffset":207740},{"buffer":0,"byteLength":8,"byteOffset":207764},{"buffer":0,"byteLength":300,"byteOffset":207772},{"buffer":0,"byteLength":900,"byteOffset":208072},{"buffer":0,"byteLength":32,"byteOffset":208972},{"buffer":0,"byteLength":1200,"byteOffset":209004},{"buffer":0,"byteLength":1200,"byteOffset":210204},{"buffer":0,"byteLength":1200,"byteOffset":211404},{"buffer":0,"byteLength":1200,"byteOffset":212604},{"buffer":0,"byteLength":1200,"byteOffset":213804},{"buffer":0,"byteLength":1200,"byteOffset":215004},{"buffer":0,"byteLength":1200,"byteOffset":216204},{"buffer":0,"byteLength":1200,"byteOffset":217404},{"buffer":0,"byteLength":1200,"byteOffset":218604},{"buffer":0,"byteLength":1200,"byteOffset":219804},{"buffer":0,"byteLength":1200,"byteOffset":221004},{"buffer":0,"byteLength":1200,"byteOffset":222204},{"buffer":0,"byteLength":1200,"byteOffset":223404},{"buffer":0,"byteLength":1200,"byteOffset":224604},{"buffer":0,"byteLength":1200,"byteOffset":225804},{"buffer":0,"byteLength":1200,"byteOffset":227004},{"buffer":0,"byteLength":1200,"byteOffset":228204},{"buffer":0,"byteLength":900,"byteOffset":229404},{"buffer":0,"byteLength":1200,"byteOffset":230304},{"buffer":0,"byteLength":1200,"byteOffset":231504},{"buffer":0,"byteLength":1200,"byteOffset":232704},{"buffer":0,"byteLength":1200,"byteOffset":233904},{"buffer":0,"byteLength":1200,"byteOffset":235104},{"buffer":0,"byteLength":1200,"byteOffset":236304},{"buffer":0,"byteLength":1200,"byteOffset":237504},{"buffer":0,"byteLength":900,"byteOffset":238704},{"buffer":0,"byteLength":1200,"byteOffset":239604},{"buffer":0,"byteLength":900,"byteOffset":240804},{"buffer":0,"byteLength":900,"byteOffset":241704},{"buffer":0,"byteLength":1200,"byteOffset":242604},{"buffer":0,"byteLength":24,"byteOffset":243804},{"buffer":0,"byteLength":864,"byteOffset":243828},{"buffer":0,"byteLength":864,"byteOffset":244692},{"buffer":0,"byteLength":864,"byteOffset":245556},{"buffer":0,"byteLength":864,"byteOffset":246420},{"buffer":0,"byteLength":864,"byteOffset":247284},{"buffer":0,"byteLength":864,"byteOffset":248148},{"buffer":0,"byteLength":24,"byteOffset":249012},{"buffer":0,"byteLength":24,"byteOffset":249036},{"buffer":0,"byteLength":864,"byteOffset":249060},{"buffer":0,"byteLength":24,"byteOffset":249924},{"buffer":0,"byteLength":24,"byteOffset":249948},{"buffer":0,"byteLength":864,"byteOffset":249972},{"buffer":0,"byteLength":24,"byteOffset":250836},{"buffer":0,"byteLength":24,"byteOffset":250860},{"buffer":0,"byteLength":864,"byteOffset":250884},{"buffer":0,"byteLength":24,"byteOffset":251748},{"buffer":0,"byteLength":24,"byteOffset":251772},{"buffer":0,"byteLength":864,"byteOffset":251796},{"buffer":0,"byteLength":24,"byteOffset":252660},{"buffer":0,"byteLength":864,"byteOffset":252684},{"buffer":0,"byteLength":24,"byteOffset":253548},{"buffer":0,"byteLength":24,"byteOffset":253572},{"buffer":0,"byteLength":864,"byteOffset":253596},{"buffer":0,"byteLength":24,"byteOffset":254460},{"buffer":0,"byteLength":24,"byteOffset":254484},{"buffer":0,"byteLength":864,"byteOffset":254508},{"buffer":0,"byteLength":24,"byteOffset":255372},{"buffer":0,"byteLength":864,"byteOffset":255396},{"buffer":0,"byteLength":24,"byteOffset":256260},{"buffer":0,"byteLength":24,"byteOffset":256284},{"buffer":0,"byteLength":864,"byteOffset":256308},{"buffer":0,"byteLength":24,"byteOffset":257172},{"buffer":0,"byteLength":24,"byteOffset":257196},{"buffer":0,"byteLength":864,"byteOffset":257220},{"buffer":0,"byteLength":24,"byteOffset":258084},{"buffer":0,"byteLength":648,"byteOffset":258108},{"buffer":0,"byteLength":864,"byteOffset":258756},{"buffer":0,"byteLength":24,"byteOffset":259620},{"buffer":0,"byteLength":24,"byteOffset":259644},{"buffer":0,"byteLength":864,"byteOffset":259668},{"buffer":0,"byteLength":24,"byteOffset":260532},{"buffer":0,"byteLength":864,"byteOffset":260556},{"buffer":0,"byteLength":24,"byteOffset":261420},{"buffer":0,"byteLength":24,"byteOffset":261444},{"buffer":0,"byteLength":864,"byteOffset":261468},{"buffer":0,"byteLength":24,"byteOffset":262332},{"buffer":0,"byteLength":864,"byteOffset":262356},{"buffer":0,"byteLength":24,"byteOffset":263220},{"buffer":0,"byteLength":864,"byteOffset":263244},{"buffer":0,"byteLength":24,"byteOffset":264108},{"buffer":0,"byteLength":864,"byteOffset":264132},{"buffer":0,"byteLength":24,"byteOffset":264996},{"buffer":0,"byteLength":864,"byteOffset":265020},{"buffer":0,"byteLength":24,"byteOffset":265884},{"buffer":0,"byteLength":24,"byteOffset":265908},{"buffer":0,"byteLength":864,"byteOffset":265932},{"buffer":0,"byteLength":24,"byteOffset":266796},{"buffer":0,"byteLength":24,"byteOffset":266820},{"buffer":0,"byteLength":864,"byteOffset":266844},{"buffer":0,"byteLength":24,"byteOffset":267708},{"buffer":0,"byteLength":24,"byteOffset":267732},{"buffer":0,"byteLength":864,"byteOffset":267756},{"buffer":0,"byteLength":24,"byteOffset":268620},{"buffer":0,"byteLength":24,"byteOffset":268644},{"buffer":0,"byteLength":864,"byteOffset":268668},{"buffer":0,"byteLength":24,"byteOffset":269532},{"buffer":0,"byteLength":864,"byteOffset":269556},{"buffer":0,"byteLength":24,"byteOffset":270420},{"buffer":0,"byteLength":648,"byteOffset":270444},{"buffer":0,"byteLength":864,"byteOffset":271092},{"buffer":0,"byteLength":24,"byteOffset":271956},{"buffer":0,"byteLength":24,"byteOffset":271980},{"buffer":0,"byteLength":864,"byteOffset":272004},{"buffer":0,"byteLength":648,"byteOffset":272868},{"buffer":0,"byteLength":648,"byteOffset":273516},{"buffer":0,"byteLength":24,"byteOffset":274164},{"buffer":0,"byteLength":24,"byteOffset":274188},{"buffer":0,"byteLength":648,"byteOffset":274212},{"buffer":0,"byteLength":32,"byteOffset":274860}],"samplers":[{"magFilter":9729,"minFilter":9987}],"buffers":[{"byteLength":274892,"uri":"chicken.bin"}]}