{"asset":{"generator":"Khronos glTF Blender I/O v4.5.51","version":"2.0"},"scene":0,"scenes":[{"name":"Scene","nodes":[18]}],"nodes":[{"name":"head","rotation":[0.46966928243637085,0,0,0.8828424215316772],"translation":[0,1.6101233959197998,-1.1920928955078125e-07]},{"children":[0],"name":"neck","rotation":[-0.19508005678653717,0,0,0.9807873964309692],"translation":[0,3.505709648132324,-7.450580596923828e-09]},{"name":"tail","rotation":[0.8464288115501404,0,0,0.5325018763542175],"scale":[1,1,1.0000001192092896],"translation":[0,-1.6301977634429932,-0.39364269375801086]},{"name":"frontRFoot","rotation":[-0.36555343866348267,0,0,0.930790364742279],"translation":[-5.960464477539063e-08,2.000394582748413,-5.494803190231323e-08]},{"children":[3],"name":"frontRLower","rotation":[-0.03220076113939285,0,0,0.9994814395904541],"scale":[1,0.9999999403953552,1],"translation":[0,1.8017725944519043,-3.725290298461914e-08]},{"children":[4],"name":"frontR","rotation":[0.7420653104782104,0,0,0.6703276634216309],"scale":[1,1,1.0000001192092896],"translation":[-0.9100000262260437,3.7239251136779785,0.5633646845817566]},{"name":"backRFoot","rotation":[-0.5863502621650696,0,0,0.8100576400756836],"translation":[1.1920928955078125e-07,2.0880560874938965,6.705522537231445e-08]},{"children":[6],"name":"backRLower","rotation":[0.2574140131473541,0,0,0.9663012027740479],"scale":[1,1.0000001192092896,1],"translation":[0,1.8483465909957886,5.960464477539063e-08]},{"children":[7],"name":"backR","rotation":[0.6436991691589355,0,0,0.7652786374092102],"translation":[-1.0199999809265137,-0.8685832619667053,0.30093657970428467]},{"name":"frontLFoot","rotation":[-0.36555343866348267,0,0,0.930790364742279],"translation":[5.960464477539063e-08,2.000394582748413,-5.494803190231323e-08]},{"children":[9],"name":"frontLLower","rotation":[-0.03220076113939285,0,0,0.9994814395904541],"scale":[1,0.9999999403953552,1],"translation":[0,1.8017725944519043,-3.725290298461914e-08]},{"children":[10],"name":"frontL","rotation":[0.7420653104782104,0,0,0.6703276634216309],"scale":[1,1,1.0000001192092896],"translation":[0.9100000262260437,3.7239251136779785,0.5633646845817566]},{"name":"backLFoot","rotation":[-0.5863502621650696,0,0,0.8100576400756836],"translation":[-1.1920928955078125e-07,2.0880560874938965,6.705522537231445e-08]},{"children":[12],"name":"backLLower","rotation":[0.2574140131473541,0,0,0.9663012027740479],"scale":[1,1.0000001192092896,1],"translation":[0,1.8483465909957886,5.960464477539063e-08]},{"children":[13],"name":"backL","rotation":[0.6436991691589355,0,0,0.7652786374092102],"translation":[1.0199999809265137,-0.8685832619667053,0.30093657970428467]},{"children":[1,2,5,8,11,14],"name":"body","rotation":[0.6866405010223389,0,0,0.7269971370697021],"scale":[1,1,1.0000026226043701],"translation":[0,4.5,-1.7000000476837158]},{"mesh":0,"name":"Cube","skin":0},{"mesh":1,"name":"Cube.001","skin":0},{"children":[16,17,15],"name":"Cow"}],"animations":[{"channels":[{"sampler":0,"target":{"node":15,"path":"translation"}},{"sampler":1,"target":{"node":15,"path":"rotation"}},{"sampler":2,"target":{"node":15,"path":"scale"}},{"sampler":3,"target":{"node":1,"path":"translation"}},{"sampler":4,"target":{"node":1,"path":"rotation"}},{"sampler":5,"target":{"node":1,"path":"scale"}},{"sampler":6,"target":{"node":0,"path":"translation"}},{"sampler":7,"target":{"node":0,"path":"rotation"}},{"sampler":8,"target":{"node":0,"path":"scale"}},{"sampler":9,"target":{"node":2,"path":"translation"}},{"sampler":10,"target":{"node":2,"path":"rotation"}},{"sampler":11,"target":{"node":2,"path":"scale"}},{"sampler":12,"target":{"node":5,"path":"translation"}},{"sampler":13,"target":{"node":5,"path":"rotation"}},{"sampler":14,"target":{"node":5,"path":"scale"}},{"sampler":15,"target":{"node":4,"path":"translation"}},{"sampler":16,"target":{"node":4,"path":"rotation"}},{"sampler":17,"target":{"node":4,"path":"scale"}},{"sampler":18,"target":{"node":3,"path":"translation"}},{"sampler":19,"target":{"node":3,"path":"rotation"}},{"sampler":20,"target":{"node":3,"path":"scale"}},{"sampler":21,"target":{"node":8,"path":"translation"}},{"sampler":22,"target":{"node":8,"path":"rotation"}},{"sampler":23,"target":{"node":8,"path":"scale"}},{"sampler":24,"target":{"node":7,"path":"translation"}},{"sampler":25,"target":{"node":7,"path":"rotation"}},{"sampler":26,"target":{"node":7,"path":"scale"}},{"sampler":27,"target":{"node":6,"path":"translation"}},{"sampler":28,"target":{"node":6,"path":"rotation"}},{"sampler":29,"target":{"node":6,"path":"scale"}},{"sampler":30,"target":{"node":11,"path":"translation"}},{"sampler":31,"target":{"node":11,"path":"rotation"}},{"sampler":32,"target":{"node":11,"path":"scale"}},{"sampler":33,"target":{"node":10,"path":"translation"}},{"sampler":34,"target":{"node":10,"path":"rotation"}},{"sampler":35,"target":{"node":10,"path":"scale"}},{"sampler":36,"target":{"node":9,"path":"translation"}},{"sampler":37,"target":{"node":9,"path":"rotation"}},{"sampler":38,"target":{"node":9,"path":"scale"}},{"sampler":39,"target":{"node":14,"path":"translation"}},{"sampler":40,"target":{"node":14,"path":"rotation"}},{"sampler":41,"target":{"node":14,"path":"scale"}},{"sampler":42,"target":{"node":13,"path":"translation"}},{"sampler":43,"target":{"node":13,"path":"rotation"}},{"sampler":44,"target":{"node":13,"path":"scale"}},{"sampler":45,"target":{"node":12,"path":"translation"}},{"sampler":46,"target":{"node":12,"path":"rotation"}},{"sampler":47,"target":{"node":12,"path":"scale"}}],"name":"eat","samplers":[{"input":13,"interpolation":"LINEAR","output":14},{"input":15,"interpolation":"STEP","output":16},{"input":15,"interpolation":"STEP","output":17},{"input":15,"interpolation":"STEP","output":18},{"input":13,"interpolation":"LINEAR","output":19},{"input":15,"interpolation":"STEP","output":20},{"input":15,"interpolation":"STEP","output":21},{"input":13,"interpolation":"LINEAR","output":22},{"input":15,"interpolation":"STEP","output":23},{"input":15,"interpolation":"STEP","output":24},{"input":13,"interpolation":"LINEAR","output":25},{"input":15,"interpolation":"STEP","output":26},{"input":15,"interpolation":"STEP","output":27},{"input":15,"interpolation":"STEP","output":28},{"input":15,"interpolation":"STEP","output":26},{"input":15,"interpolation":"STEP","output":29},{"input":15,"interpolation":"STEP","output":30},{"input":15,"interpolation":"STEP","output":20},{"input":15,"interpolation":"STEP","output":31},{"input":15,"interpolation":"STEP","output":32},{"input":15,"interpolation":"STEP","output":20},{"input":15,"interpolation":"STEP","output":33},{"input":15,"interpolation":"STEP","output":34},{"input":15,"interpolation":"STEP","output":20},{"input":15,"interpolation":"STEP","output":35},{"input":15,"interpolation":"STEP","output":36},{"input":15,"interpolation":"STEP","output":37},{"input":15,"interpolation":"STEP","output":38},{"input":15,"interpolation":"STEP","output":39},{"input":15,"interpolation":"STEP","output":20},{"input":15,"interpolation":"STEP","output":40},{"input":15,"interpolation":"STEP","output":28},{"input":15,"interpolation":"STEP","output":26},{"input":15,"interpolation":"STEP","output":29},{"input":15,"interpolation":"STEP","output":30},{"input":15,"interpolation":"STEP","output":20},{"input":15,"interpolation":"STEP","output":31},{"input":15,"interpolation":"STEP","output":32},{"input":15,"interpolation":"STEP","output":20},{"input":15,"interpolation":"STEP","output":41},{"input":15,"interpolation":"STEP","output":34},{"input":15,"interpolation":"STEP","output":20},{"input":15,"interpolation":"STEP","output":42},{"input":15,"interpolation":"STEP","output":36},{"input":15,"interpolation":"STEP","output":37},{"input":15,"interpolation":"STEP","output":43},{"input":15,"interpolation":"STEP","output":39},{"input":15,"interpolation":"STEP","output":20}]},{"channels":[{"sampler":0,"target":{"node":15,"path":"translation"}},{"sampler":1,"target":{"node":15,"path":"rotation"}},{"sampler":2,"target":{"node":15,"path":"scale"}},{"sampler":3,"target":{"node":1,"path":"translation"}},{"sampler":4,"target":{"node":1,"path":"rotation"}},{"sampler":5,"target":{"node":1,"path":"scale"}},{"sampler":6,"target":{"node":0,"path":"translation"}},{"sampler":7,"target":{"node":0,"path":"rotation"}},{"sampler":8,"target":{"node":0,"path":"scale"}},{"sampler":9,"target":{"node":2,"path":"translation"}},{"sampler":10,"target":{"node":2,"path":"rotation"}},{"sampler":11,"target":{"node":2,"path":"scale"}},{"sampler":12,"target":{"node":5,"path":"translation"}},{"sampler":13,"target":{"node":5,"path":"rotation"}},{"sampler":14,"target":{"node":5,"path":"scale"}},{"sampler":15,"target":{"node":4,"path":"translation"}},{"sampler":16,"target":{"node":4,"path":"rotation"}},{"sampler":17,"target":{"node":4,"path":"scale"}},{"sampler":18,"target":{"node":3,"path":"translation"}},{"sampler":19,"target":{"node":3,"path":"rotation"}},{"sampler":20,"target":{"node":3,"path":"scale"}},{"sampler":21,"target":{"node":8,"path":"translation"}},{"sampler":22,"target":{"node":8,"path":"rotation"}},{"sampler":23,"target":{"node":8,"path":"scale"}},{"sampler":24,"target":{"node":7,"path":"translation"}},{"sampler":25,"target":{"node":7,"path":"rotation"}},{"sampler":26,"target":{"node":7,"path":"scale"}},{"sampler":27,"target":{"node":6,"path":"translation"}},{"sampler":28,"target":{"node":6,"path":"rotation"}},{"sampler":29,"target":{"node":6,"path":"scale"}},{"sampler":30,"target":{"node":11,"path":"translation"}},{"sampler":31,"target":{"node":11,"path":"rotation"}},{"sampler":32,"target":{"node":11,"path":"scale"}},{"sampler":33,"target":{"node":10,"path":"translation"}},{"sampler":34,"target":{"node":10,"path":"rotation"}},{"sampler":35,"target":{"node":10,"path":"scale"}},{"sampler":36,"target":{"node":9,"path":"translation"}},{"sampler":37,"target":{"node":9,"path":"rotation"}},{"sampler":38,"target":{"node":9,"path":"scale"}},{"sampler":39,"target":{"node":14,"path":"translation"}},{"sampler":40,"target":{"node":14,"path":"rotation"}},{"sampler":41,"target":{"node":14,"path":"scale"}},{"sampler":42,"target":{"node":13,"path":"translation"}},{"sampler":43,"target":{"node":13,"path":"rotation"}},{"sampler":44,"target":{"node":13,"path":"scale"}},{"sampler":45,"target":{"node":12,"path":"translation"}},{"sampler":46,"target":{"node":12,"path":"rotation"}},{"sampler":47,"target":{"node":12,"path":"scale"}}],"name":"idle","samplers":[{"input":44,"interpolation":"LINEAR","output":45},{"input":46,"interpolation":"STEP","output":16},{"input":46,"interpolation":"STEP","output":17},{"input":46,"interpolation":"STEP","output":18},{"input":44,"interpolation":"LINEAR","output":47},{"input":46,"interpolation":"STEP","output":48},{"input":46,"interpolation":"STEP","output":21},{"input":44,"interpolation":"LINEAR","output":49},{"input":46,"interpolation":"STEP","output":20},{"input":46,"interpolation":"STEP","output":24},{"input":44,"interpolation":"LINEAR","output":50},{"input":46,"interpolation":"STEP","output":26},{"input":46,"interpolation":"STEP","output":27},{"input":46,"interpolation":"STEP","output":28},{"input":46,"interpolation":"STEP","output":26},{"input":46,"interpolation":"STEP","output":29},{"input":46,"interpolation":"STEP","output":30},{"input":46,"interpolation":"STEP","output":20},{"input":46,"interpolation":"STEP","output":31},{"input":46,"interpolation":"STEP","output":32},{"input":46,"interpolation":"STEP","output":20},{"input":46,"interpolation":"STEP","output":33},{"input":46,"interpolation":"STEP","output":34},{"input":46,"interpolation":"STEP","output":20},{"input":46,"interpolation":"STEP","output":35},{"input":46,"interpolation":"STEP","output":36},{"input":46,"interpolation":"STEP","output":37},{"input":46,"interpolation":"STEP","output":38},{"input":46,"interpolation":"STEP","output":39},{"input":46,"interpolation":"STEP","output":20},{"input":46,"interpolation":"STEP","output":40},{"input":46,"interpolation":"STEP","output":28},{"input":46,"interpolation":"STEP","output":26},{"input":46,"interpolation":"STEP","output":29},{"input":46,"interpolation":"STEP","output":30},{"input":46,"interpolation":"STEP","output":20},{"input":46,"interpolation":"STEP","output":31},{"input":46,"interpolation":"STEP","output":32},{"input":46,"interpolation":"STEP","output":20},{"input":46,"interpolation":"STEP","output":41},{"input":46,"interpolation":"STEP","output":34},{"input":46,"interpolation":"STEP","output":20},{"input":46,"interpolation":"STEP","output":42},{"input":46,"interpolation":"STEP","output":36},{"input":46,"interpolation":"STEP","output":37},{"input":46,"interpolation":"STEP","output":43},{"input":46,"interpolation":"STEP","output":39},{"input":46,"interpolation":"STEP","output":20}]},{"channels":[{"sampler":0,"target":{"node":15,"path":"translation"}},{"sampler":1,"target":{"node":15,"path":"rotation"}},{"sampler":2,"target":{"node":15,"path":"scale"}},{"sampler":3,"target":{"node":1,"path":"translation"}},{"sampler":4,"target":{"node":1,"path":"rotation"}},{"sampler":5,"target":{"node":1,"path":"scale"}},{"sampler":6,"target":{"node":0,"path":"translation"}},{"sampler":7,"target":{"node":0,"path":"rotation"}},{"sampler":8,"target":{"node":0,"path":"scale"}},{"sampler":9,"target":{"node":2,"path":"translation"}},{"sampler":10,"target":{"node":2,"path":"rotation"}},{"sampler":11,"target":{"node":2,"path":"scale"}},{"sampler":12,"target":{"node":5,"path":"translation"}},{"sampler":13,"target":{"node":5,"path":"rotation"}},{"sampler":14,"target":{"node":5,"path":"scale"}},{"sampler":15,"target":{"node":4,"path":"translation"}},{"sampler":16,"target":{"node":4,"path":"rotation"}},{"sampler":17,"target":{"node":4,"path":"scale"}},{"sampler":18,"target":{"node":3,"path":"translation"}},{"sampler":19,"target":{"node":3,"path":"rotation"}},{"sampler":20,"target":{"node":3,"path":"scale"}},{"sampler":21,"target":{"node":8,"path":"translation"}},{"sampler":22,"target":{"node":8,"path":"rotation"}},{"sampler":23,"target":{"node":8,"path":"scale"}},{"sampler":24,"target":{"node":7,"path":"translation"}},{"sampler":25,"target":{"node":7,"path":"rotation"}},{"sampler":26,"target":{"node":7,"path":"scale"}},{"sampler":27,"target":{"node":6,"path":"translation"}},{"sampler":28,"target":{"node":6,"path":"rotation"}},{"sampler":29,"target":{"node":6,"path":"scale"}},{"sampler":30,"target":{"node":11,"path":"translation"}},{"sampler":31,"target":{"node":11,"path":"rotation"}},{"sampler":32,"target":{"node":11,"path":"scale"}},{"sampler":33,"target":{"node":10,"path":"translation"}},{"sampler":34,"target":{"node":10,"path":"rotation"}},{"sampler":35,"target":{"node":10,"path":"scale"}},{"sampler":36,"target":{"node":9,"path":"translation"}},{"sampler":37,"target":{"node":9,"path":"rotation"}},{"sampler":38,"target":{"node":9,"path":"scale"}},{"sampler":39,"target":{"node":14,"path":"translation"}},{"sampler":40,"target":{"node":14,"path":"rotation"}},{"sampler":41,"target":{"node":14,"path":"scale"}},{"sampler":42,"target":{"node":13,"path":"translation"}},{"sampler":43,"target":{"node":13,"path":"rotation"}},{"sampler":44,"target":{"node":13,"path":"scale"}},{"sampler":45,"target":{"node":12,"path":"translation"}},{"sampler":46,"target":{"node":12,"path":"rotation"}},{"sampler":47,"target":{"node":12,"path":"scale"}}],"name":"walk","samplers":[{"input":51,"interpolation":"LINEAR","output":52},{"input":53,"interpolation":"STEP","output":16},{"input":53,"interpolation":"STEP","output":17},{"input":53,"interpolation":"STEP","output":18},{"input":51,"interpolation":"LINEAR","output":54},{"input":53,"interpolation":"STEP","output":48},{"input":53,"interpolation":"STEP","output":21},{"input":51,"interpolation":"LINEAR","output":55},{"input":53,"interpolation":"STEP","output":20},{"input":53,"interpolation":"STEP","output":24},{"input":51,"interpolation":"LINEAR","output":56},{"input":53,"interpolation":"STEP","output":26},{"input":53,"interpolation":"STEP","output":27},{"input":51,"interpolation":"LINEAR","output":57},{"input":53,"interpolation":"STEP","output":26},{"input":53,"interpolation":"STEP","output":58},{"input":51,"interpolation":"LINEAR","output":59},{"input":53,"interpolation":"STEP","output":60},{"input":53,"interpolation":"STEP","output":61},{"input":51,"interpolation":"LINEAR","output":62},{"input":53,"interpolation":"STEP","output":63},{"input":53,"interpolation":"STEP","output":33},{"input":51,"interpolation":"LINEAR","output":64},{"input":53,"interpolation":"STEP","output":20},{"input":53,"interpolation":"STEP","output":35},{"input":51,"interpolation":"LINEAR","output":65},{"input":53,"interpolation":"STEP","output":37},{"input":53,"interpolation":"STEP","output":38},{"input":51,"interpolation":"LINEAR","output":66},{"input":53,"interpolation":"STEP","output":20},{"input":53,"interpolation":"STEP","output":40},{"input":51,"interpolation":"LINEAR","output":67},{"input":53,"interpolation":"STEP","output":26},{"input":53,"interpolation":"STEP","output":68},{"input":51,"interpolation":"LINEAR","output":69},{"input":53,"interpolation":"STEP","output":70},{"input":53,"interpolation":"STEP","output":71},{"input":51,"interpolation":"LINEAR","output":72},{"input":53,"interpolation":"STEP","output":26},{"input":53,"interpolation":"STEP","output":41},{"input":51,"interpolation":"LINEAR","output":73},{"input":53,"interpolation":"STEP","output":20},{"input":53,"interpolation":"STEP","output":42},{"input":51,"interpolation":"LINEAR","output":74},{"input":53,"interpolation":"STEP","output":37},{"input":53,"interpolation":"STEP","output":43},{"input":51,"interpolation":"LINEAR","output":75},{"input":53,"interpolation":"STEP","output":20}]}],"materials":[{"doubleSided":true,"name":"Cow coat","normalTexture":{"index":0,"scale":0.44999998807907104},"pbrMetallicRoughness":{"baseColorTexture":{"index":1},"metallicFactor":0,"roughnessFactor":0.8299999833106995}},{"doubleSided":true,"name":"Cow eyes","pbrMetallicRoughness":{"baseColorTexture":{"index":2},"metallicFactor":0,"roughnessFactor":0.30000001192092896}}],"meshes":[{"name":"Cube","primitives":[{"attributes":{"POSITION":0,"NORMAL":1,"TEXCOORD_0":2,"JOINTS_0":3,"WEIGHTS_0":4},"indices":5,"material":0}]},{"name":"Cube.001","primitives":[{"attributes":{"POSITION":7,"NORMAL":8,"TEXCOORD_0":9,"JOINTS_0":10,"WEIGHTS_0":11},"indices":12,"material":1}]}],"textures":[{"sampler":0,"source":0},{"sampler":0,"source":1},{"sampler":0,"source":2}],"images":[{"name":"colorOpacityCowNorm","uri":"colorOpacityCowNorm.webp"},{"name":"colorOpacityCow","uri":"colorOpacityCow.webp"},{"name":"cowEye","uri":"cowEye.webp"}],"skins":[{"inverseBindMatrices":6,"joints":[15,1,0,2,5,4,3,8,7,6,11,10,9,14,13,12],"name":"Cow"}],"accessors":[{"bufferView":0,"componentType":5126,"count":3517,"max":[1.5364869832992554,6.2195844650268555,4.9465460777282715],"min":[-1.536484956741333,1.5368652128699978e-08,-4.889469146728516],"type":"VEC3"},{"bufferView":1,"componentType":5126,"count":3517,"type":"VEC3"},{"bufferView":2,"componentType":5126,"count":3517,"type":"VEC2"},{"bufferView":3,"componentType":5121,"count":3517,"type":"VEC4"},{"bufferView":4,"componentType":5126,"count":3517,"type":"VEC4"},{"bufferView":5,"componentType":5123,"count":18276,"type":"SCALAR"},{"bufferView":6,"componentType":5126,"count":16,"type":"MAT4"},{"bufferView":7,"componentType":5126,"count":112,"max":[0.635204017162323,5.250189781188965,3.9050652980804443],"min":[-0.635204017162323,5.074629306793213,3.717952251434326],"type":"VEC3"},{"bufferView":8,"componentType":5126,"count":112,"type":"VEC3"},{"bufferView":9,"componentType":5126,"count":112,"type":"VEC2"},{"bufferView":10,"componentType":5121,"count":112,"type":"VEC4"},{"bufferView":11,"componentType":5126,"count":112,"type":"VEC4"},{"bufferView":12,"componentType":5123,"count":576,"type":"SCALAR"},{"bufferView":13,"componentType":5126,"count":151,"max":[5],"min":[0],"type":"SCALAR"},{"bufferView":14,"componentType":5126,"count":151,"type":"VEC3"},{"bufferView":15,"componentType":5126,"count":2,"max":[5],"min":[0],"type":"SCALAR"},{"bufferView":16,"componentType":5126,"count":2,"type":"VEC4"},{"bufferView":17,"componentType":5126,"count":2,"type":"VEC3"},{"bufferView":18,"componentType":5126,"count":2,"type":"VEC3"},{"bufferView":19,"componentType":5126,"count":151,"type":"VEC4"},{"bufferView":20,"componentType":5126,"count":2,"type":"VEC3"},{"bufferView":21,"componentType":5126,"count":2,"type":"VEC3"},{"bufferView":22,"componentType":5126,"count":151,"type":"VEC4"},{"bufferView":23,"componentType":5126,"count":2,"type":"VEC3"},{"bufferView":24,"componentType":5126,"count":2,"type":"VEC3"},{"bufferView":25,"componentType":5126,"count":151,"type":"VEC4"},{"bufferView":26,"componentType":5126,"count":2,"type":"VEC3"},{"bufferView":27,"componentType":5126,"count":2,"type":"VEC3"},{"bufferView":28,"componentType":5126,"count":2,"type":"VEC4"},{"bufferView":29,"componentType":5126,"count":2,"type":"VEC3"},{"bufferView":30,"componentType":5126,"count":2,"type":"VEC4"},{"bufferView":31,"componentType":5126,"count":2,"type":"VEC3"},{"bufferView":32,"componentType":5126,"count":2,"type":"VEC4"},{"bufferView":33,"componentType":5126,"count":2,"type":"VEC3"},{"bufferView":34,"componentType":5126,"count":2,"type":"VEC4"},{"bufferView":35,"componentType":5126,"count":2,"type":"VEC3"},{"bufferView":36,"componentType":5126,"count":2,"type":"VEC4"},{"bufferView":37,"componentType":5126,"count":2,"type":"VEC3"},{"bufferView":38,"componentType":5126,"count":2,"type":"VEC3"},{"bufferView":39,"componentType":5126,"count":2,"type":"VEC4"},{"bufferView":40,"componentType":5126,"count":2,"type":"VEC3"},{"bufferView":41,"componentType":5126,"count":2,"type":"VEC3"},{"bufferView":42,"componentType":5126,"count":2,"type":"VEC3"},{"bufferView":43,"componentType":5126,"count":2,"type":"VEC3"},{"bufferView":44,"componentType":5126,"count":121,"max":[4],"min":[0],"type":"SCALAR"},{"bufferView":45,"componentType":5126,"count":121,"type":"VEC3"},{"bufferView":46,"componentType":5126,"count":2,"max":[4],"min":[0],"type":"SCALAR"},{"bufferView":47,"componentType":5126,"count":121,"type":"VEC4"},{"bufferView":48,"componentType":5126,"count":2,"type":"VEC3"},{"bufferView":49,"componentType":5126,"count":121,"type":"VEC4"},{"bufferView":50,"componentType":5126,"count":121,"type":"VEC4"},{"bufferView":51,"componentType":5126,"count":73,"max":[2.4],"min":[0],"type":"SCALAR"},{"bufferView":52,"componentType":5126,"count":73,"type":"VEC3"},{"bufferView":53,"componentType":5126,"count":2,"max":[2.4],"min":[0],"type":"SCALAR"},{"bufferView":54,"componentType":5126,"count":73,"type":"VEC4"},{"bufferView":55,"componentType":5126,"count":73,"type":"VEC4"},{"bufferView":56,"componentType":5126,"count":73,"type":"VEC4"},{"bufferView":57,"componentType":5126,"count":73,"type":"VEC4"},{"bufferView":58,"componentType":5126,"count":2,"type":"VEC3"},{"bufferView":59,"componentType":5126,"count":73,"type":"VEC4"},{"bufferView":60,"componentType":5126,"count":2,"type":"VEC3"},{"bufferView":61,"componentType":5126,"count":2,"type":"VEC3"},{"bufferView":62,"componentType":5126,"count":73,"type":"VEC4"},{"bufferView":63,"componentType":5126,"count":2,"type":"VEC3"},{"bufferView":64,"componentType":5126,"count":73,"type":"VEC4"},{"bufferView":65,"componentType":5126,"count":73,"type":"VEC4"},{"bufferView":66,"componentType":5126,"count":73,"type":"VEC4"},{"bufferView":67,"componentType":5126,"count":73,"type":"VEC4"},{"bufferView":68,"componentType":5126,"count":2,"type":"VEC3"},{"bufferView":69,"componentType":5126,"count":73,"type":"VEC4"},{"bufferView":70,"componentType":5126,"count":2,"type":"VEC3"},{"bufferView":71,"componentType":5126,"count":2,"type":"VEC3"},{"bufferView":72,"componentType":5126,"count":73,"type":"VEC4"},{"bufferView":73,"componentType":5126,"count":73,"type":"VEC4"},{"bufferView":74,"componentType":5126,"count":73,"type":"VEC4"},{"bufferView":75,"componentType":5126,"count":73,"type":"VEC4"}],"bufferViews":[{"buffer":0,"byteLength":42204,"byteOffset":0,"target":34962},{"buffer":0,"byteLength":42204,"byteOffset":42204,"target":34962},{"buffer":0,"byteLength":28136,"byteOffset":84408,"target":34962},{"buffer":0,"byteLength":14068,"byteOffset":112544,"target":34962},{"buffer":0,"byteLength":56272,"byteOffset":126612,"target":34962},{"buffer":0,"byteLength":36552,"byteOffset":182884,"target":34963},{"buffer":0,"byteLength":1024,"byteOffset":219436},{"buffer":0,"byteLength":1344,"byteOffset":220460,"target":34962},{"buffer":0,"byteLength":1344,"byteOffset":221804,"target":34962},{"buffer":0,"byteLength":896,"byteOffset":223148,"target":34962},{"buffer":0,"byteLength":448,"byteOffset":224044,"target":34962},{"buffer":0,"byteLength":1792,"byteOffset":224492,"target":34962},{"buffer":0,"byteLength":1152,"byteOffset":226284,"target":34963},{"buffer":0,"byteLength":604,"byteOffset":227436},{"buffer":0,"byteLength":1812,"byteOffset":228040},{"buffer":0,"byteLength":8,"byteOffset":229852},{"buffer":0,"byteLength":32,"byteOffset":229860},{"buffer":0,"byteLength":24,"byteOffset":229892},{"buffer":0,"byteLength":24,"byteOffset":229916},{"buffer":0,"byteLength":2416,"byteOffset":229940},{"buffer":0,"byteLength":24,"byteOffset":232356},{"buffer":0,"byteLength":24,"byteOffset":232380},{"buffer":0,"byteLength":2416,"byteOffset":232404},{"buffer":0,"byteLength":24,"byteOffset":234820},{"buffer":0,"byteLength":24,"byteOffset":234844},{"buffer":0,"byteLength":2416,"byteOffset":234868},{"buffer":0,"byteLength":24,"byteOffset":237284},{"buffer":0,"byteLength":24,"byteOffset":237308},{"buffer":0,"byteLength":32,"byteOffset":237332},{"buffer":0,"byteLength":24,"byteOffset":237364},{"buffer":0,"byteLength":32,"byteOffset":237388},{"buffer":0,"byteLength":24,"byteOffset":237420},{"buffer":0,"byteLength":32,"byteOffset":237444},{"buffer":0,"byteLength":24,"byteOffset":237476},{"buffer":0,"byteLength":32,"byteOffset":237500},{"buffer":0,"byteLength":24,"byteOffset":237532},{"buffer":0,"byteLength":32,"byteOffset":237556},{"buffer":0,"byteLength":24,"byteOffset":237588},{"buffer":0,"byteLength":24,"byteOffset":237612},{"buffer":0,"byteLength":32,"byteOffset":237636},{"buffer":0,"byteLength":24,"byteOffset":237668},{"buffer":0,"byteLength":24,"byteOffset":237692},{"buffer":0,"byteLength":24,"byteOffset":237716},{"buffer":0,"byteLength":24,"byteOffset":237740},{"buffer":0,"byteLength":484,"byteOffset":237764},{"buffer":0,"byteLength":1452,"byteOffset":238248},{"buffer":0,"byteLength":8,"byteOffset":239700},{"buffer":0,"byteLength":1936,"byteOffset":239708},{"buffer":0,"byteLength":24,"byteOffset":241644},{"buffer":0,"byteLength":1936,"byteOffset":241668},{"buffer":0,"byteLength":1936,"byteOffset":243604},{"buffer":0,"byteLength":292,"byteOffset":245540},{"buffer":0,"byteLength":876,"byteOffset":245832},{"buffer":0,"byteLength":8,"byteOffset":246708},{"buffer":0,"byteLength":1168,"byteOffset":246716},{"buffer":0,"byteLength":1168,"byteOffset":247884},{"buffer":0,"byteLength":1168,"byteOffset":249052},{"buffer":0,"byteLength":1168,"byteOffset":250220},{"buffer":0,"byteLength":24,"byteOffset":251388},{"buffer":0,"byteLength":1168,"byteOffset":251412},{"buffer":0,"byteLength":24,"byteOffset":252580},{"buffer":0,"byteLength":24,"byteOffset":252604},{"buffer":0,"byteLength":1168,"byteOffset":252628},{"buffer":0,"byteLength":24,"byteOffset":253796},{"buffer":0,"byteLength":1168,"byteOffset":253820},{"buffer":0,"byteLength":1168,"byteOffset":254988},{"buffer":0,"byteLength":1168,"byteOffset":256156},{"buffer":0,"byteLength":1168,"byteOffset":257324},{"buffer":0,"byteLength":24,"byteOffset":258492},{"buffer":0,"byteLength":1168,"byteOffset":258516},{"buffer":0,"byteLength":24,"byteOffset":259684},{"buffer":0,"byteLength":24,"byteOffset":259708},{"buffer":0,"byteLength":1168,"byteOffset":259732},{"buffer":0,"byteLength":1168,"byteOffset":260900},{"buffer":0,"byteLength":1168,"byteOffset":262068},{"buffer":0,"byteLength":1168,"byteOffset":263236}],"samplers":[{"magFilter":9729,"minFilter":9987}],"buffers":[{"byteLength":264404,"uri":"cow.bin"}]}